<?xml version="1.0" standalone="no"?>
<!DOCTYPE svg PUBLIC "-//W3C//DTD SVG 1.1//EN" "http://www.w3.org/Graphics/SVG/1.1/DTD/svg11.dtd" >
<svg xmlns="http://www.w3.org/2000/svg">
<metadata>
This is a custom SVG webfont generated by Font Squirrel.
</metadata>
<defs>
<font id="webfontpLw1Anrf" horiz-adv-x="640" >
<font-face units-per-em="1000" ascent="800" descent="-200" />
<missing-glyph horiz-adv-x="500" />
<glyph unicode=" " />
<glyph unicode="!" d="M349 -104q0 -27 -16 -50t-42 -23t-42 23t-16 50q0 28 15.5 49.5t42.5 21.5t42.5 -21.5t15.5 -49.5zM324 360l-32 -44l-34 44v321l32 44l34 -44v-321z" />
<glyph unicode="&#x22;" d="M324 560l-32 -44l-34 44v121l32 44l34 -44v-121zM82 560l-32 -44l-33 44v121l32 44l33 -44v-121z" />
<glyph unicode="#" d="M324 360l-32 -44l-34 44v321l32 44l34 -44v-321zM521 303l-35 -42h-148l-36 40l36 42h148zM279 303l-35 -42h-148l-35 40l35 42h148zM324 -77l-32 -45l-34 45v320l32 44l34 -44v-320zM565 360l-32 -44l-34 44v323l32 44l34 -44v-323zM565 -77l-32 -45l-34 45v320l32 44 l34 -44v-320zM82 360l-32 -44l-33 44v321l32 44l33 -44v-321zM82 -77l-32 -45l-33 45v320l32 44l33 -44v-320z" />
<glyph unicode="$" d="M521 303l-35 -42h-148l-36 40l36 42h148zM279 303l-35 -42h-148l-35 40l35 42h148zM279 741l-35 -42h-148l-35 40l35 42h148zM279 -135l-35 -42h-148l-35 40l35 42h148zM521 741l-35 -42h-148l-36 40l36 42h148zM324 360l-32 -44l-34 44v321l32 44l34 -44v-321zM324 -77 l-32 -45l-34 45v320l32 44l34 -44v-320zM521 -135l-35 -42h-148l-36 40l36 42h148zM565 -77l-32 -45l-34 45v320l32 44l34 -44v-320zM82 360l-32 -44l-33 44v321l32 44l33 -44v-321z" />
<glyph unicode="%" d="M324 360l-32 -44l-34 44v321l32 44l34 -44v-321zM521 303l-35 -42h-148l-36 40l36 42h148zM279 303l-35 -42h-148l-35 40l35 42h148zM324 -77l-32 -45l-34 45v320l32 44l34 -44v-320zM487 577l-122 -219h-30v86l135 240h17v-107zM246 160l-134 -240h-18v106l123 220h29 v-86zM279 741l-35 -42h-148l-35 40l35 42h148zM565 -77l-32 -45l-34 45v320l32 44l34 -44v-320zM82 360l-32 -44l-33 44v321l32 44l33 -44v-321zM521 -135l-35 -42h-148l-36 40l36 42h148z" />
<glyph unicode="&#x26;" d="M521 -135l-35 -42h-148l-36 40l36 42h148zM279 741l-35 -42h-148l-35 40l35 42h148zM324 360l-32 -44l-34 44v321l32 44l34 -44v-321zM324 -77l-32 -45l-34 45v320l32 44l34 -44v-320zM279 -135l-35 -42h-148l-35 40l35 42h148zM82 360l-32 -44l-33 44v321l32 44l33 -44 v-321zM279 303l-35 -42h-148l-35 40l35 42h148zM82 -77l-32 -45l-33 45v320l32 44l33 -44v-320zM487 160l-134 -240h-18v106l123 220h29v-86z" />
<glyph unicode="'" d="M324 560l-32 -44l-34 44v121l32 44l34 -44v-121z" />
<glyph unicode="(" d="M324 360l-32 -44l-34 44v321l32 44l34 -44v-321zM324 -77l-32 -45l-34 45v320l32 44l34 -44v-320zM521 741l-35 -42h-148l-36 40l36 42h148zM521 -135l-35 -42h-148l-36 40l36 42h148z" />
<glyph unicode=")" d="M324 360l-32 -44l-34 44v321l32 44l34 -44v-321zM324 -77l-32 -45l-34 45v320l32 44l34 -44v-320zM279 741l-35 -42h-148l-35 40l35 42h148zM279 -135l-35 -42h-148l-35 40l35 42h148z" />
<glyph unicode="*" d="M246 358h-29l-123 219v107h18l134 -240v-86zM487 -80h-17l-135 240v86h30l122 -220v-106zM487 577l-122 -219h-30v86l135 240h17v-107zM246 160l-134 -240h-18v106l123 220h29v-86z" />
<glyph unicode="+" d="M324 360l-32 -44l-34 44v321l32 44l34 -44v-321zM324 -77l-32 -45l-34 45v320l32 44l34 -44v-320zM521 303l-35 -42h-148l-36 40l36 42h148zM279 303l-35 -42h-148l-35 40l35 42h148z" />
<glyph unicode="," d="M349 -104q0 -33 -16 -79q-19 -54 -42 -54t-42 53q-16 45 -16 80q0 28 15.5 49.5t42.5 21.5t42.5 -21.5t15.5 -49.5z" />
<glyph unicode="-" d="M521 303l-35 -42h-148l-36 40l36 42h148zM279 303l-35 -42h-148l-35 40l35 42h148z" />
<glyph unicode="&#x2010;" d="M521 303l-35 -42h-148l-36 40l36 42h148zM279 303l-35 -42h-148l-35 40l35 42h148z" />
<glyph unicode="." d="M349 -104q0 -27 -16 -50t-42 -23t-42 23t-16 50q0 28 15.5 49.5t42.5 21.5t42.5 -21.5t15.5 -49.5z" />
<glyph unicode="/" d="M487 577l-122 -219h-30v86l135 240h17v-107zM246 160l-134 -240h-18v106l123 220h29v-86z" />
<glyph unicode="0" d="M82 360l-32 -44l-33 44v321l32 44l33 -44v-321zM82 -77l-32 -45l-33 45v320l32 44l33 -44v-320zM521 -135l-35 -42h-148l-36 40l36 42h148zM279 -135l-35 -42h-148l-35 40l35 42h148zM565 360l-32 -44l-34 44v323l32 44l34 -44v-323zM565 -77l-32 -45l-34 45v320l32 44 l34 -44v-320zM487 577l-122 -219h-30v86l135 240h17v-107zM246 160l-134 -240h-18v106l123 220h29v-86zM521 741l-35 -42h-148l-36 40l36 42h148zM279 741l-35 -42h-148l-35 40l35 42h148z" />
<glyph unicode="1" d="M279 741l-35 -42h-148l-35 40l35 42h148zM324 360l-32 -44l-34 44v321l32 44l34 -44v-321zM324 -77l-32 -45l-34 45v320l32 44l34 -44v-320zM279 -135l-35 -42h-148l-35 40l35 42h148zM521 -135l-35 -42h-148l-36 40l36 42h148z" />
<glyph unicode="2" d="M521 741l-35 -42h-148l-36 40l36 42h148zM279 741l-35 -42h-148l-35 40l35 42h148zM521 303l-35 -42h-148l-36 40l36 42h148zM279 303l-35 -42h-148l-35 40l35 42h148zM521 -135l-35 -42h-148l-36 40l36 42h148zM279 -135l-35 -42h-148l-35 40l35 42h148zM565 360 l-32 -44l-34 44v323l32 44l34 -44v-323zM82 -77l-32 -45l-33 45v320l32 44l33 -44v-320z" />
<glyph unicode="3" d="M521 741l-35 -42h-148l-36 40l36 42h148zM279 741l-35 -42h-148l-35 40l35 42h148zM521 -135l-35 -42h-148l-36 40l36 42h148zM279 -135l-35 -42h-148l-35 40l35 42h148zM565 360l-32 -44l-34 44v323l32 44l34 -44v-323zM521 303l-35 -42h-148l-36 40l36 42h148zM565 -77 l-32 -45l-34 45v320l32 44l34 -44v-320z" />
<glyph unicode="4" d="M521 303l-35 -42h-148l-36 40l36 42h148zM279 303l-35 -42h-148l-35 40l35 42h148zM565 360l-32 -44l-34 44v323l32 44l34 -44v-323zM565 -77l-32 -45l-34 45v320l32 44l34 -44v-320zM82 360l-32 -44l-33 44v321l32 44l33 -44v-321z" />
<glyph unicode="5" d="M521 741l-35 -42h-148l-36 40l36 42h148zM279 741l-35 -42h-148l-35 40l35 42h148zM521 303l-35 -42h-148l-36 40l36 42h148zM279 303l-35 -42h-148l-35 40l35 42h148zM521 -135l-35 -42h-148l-36 40l36 42h148zM279 -135l-35 -42h-148l-35 40l35 42h148zM565 -77 l-32 -45l-34 45v320l32 44l34 -44v-320zM82 360l-32 -44l-33 44v321l32 44l33 -44v-321z" />
<glyph unicode="6" d="M565 -77l-32 -45l-34 45v320l32 44l34 -44v-320zM82 360l-32 -44l-33 44v321l32 44l33 -44v-321zM521 -135l-35 -42h-148l-36 40l36 42h148zM279 -135l-35 -42h-148l-35 40l35 42h148zM521 303l-35 -42h-148l-36 40l36 42h148zM279 303l-35 -42h-148l-35 40l35 42h148z M521 741l-35 -42h-148l-36 40l36 42h148zM279 741l-35 -42h-148l-35 40l35 42h148zM82 -77l-32 -45l-33 45v320l32 44l33 -44v-320z" />
<glyph unicode="7" d="M487 577l-122 -219h-30v86l135 240h17v-107zM246 160l-134 -240h-18v106l123 220h29v-86zM521 741l-35 -42h-148l-36 40l36 42h148zM279 741l-35 -42h-148l-35 40l35 42h148z" />
<glyph unicode="8" d="M565 360l-32 -44l-34 44v323l32 44l34 -44v-323zM82 -77l-32 -45l-33 45v320l32 44l33 -44v-320zM521 -135l-35 -42h-148l-36 40l36 42h148zM279 -135l-35 -42h-148l-35 40l35 42h148zM521 303l-35 -42h-148l-36 40l36 42h148zM279 303l-35 -42h-148l-35 40l35 42h148z M521 741l-35 -42h-148l-36 40l36 42h148zM279 741l-35 -42h-148l-35 40l35 42h148zM565 -77l-32 -45l-34 45v320l32 44l34 -44v-320zM82 360l-32 -44l-33 44v321l32 44l33 -44v-321z" />
<glyph unicode="9" d="M565 -77l-32 -45l-34 45v320l32 44l34 -44v-320zM82 360l-32 -44l-33 44v321l32 44l33 -44v-321zM521 -135l-35 -42h-148l-36 40l36 42h148zM279 -135l-35 -42h-148l-35 40l35 42h148zM521 303l-35 -42h-148l-36 40l36 42h148zM279 303l-35 -42h-148l-35 40l35 42h148z M521 741l-35 -42h-148l-36 40l36 42h148zM279 741l-35 -42h-148l-35 40l35 42h148zM565 360l-32 -44l-34 44v323l32 44l34 -44v-323z" />
<glyph unicode=":" d="M349 435q0 -28 -15 -48q-16 -23 -43 -23q-26 0 -42 22t-16 49t16 50t42 23t42 -23t16 -50zM349 169q0 -27 -15 -49q-17 -25 -43 -25t-43 25q-15 22 -15 49q0 28 15.5 49.5t42.5 21.5q26 0 42 -22t16 -49z" />
<glyph unicode=";" d="M349 435q0 -28 -15 -48q-16 -23 -43 -23q-26 0 -42 22t-16 49t16 50t42 23t42 -23t16 -50zM349 169q0 -31 -16 -78q-19 -56 -42 -56t-42 54q-16 46 -16 80q0 28 15.5 49.5t42.5 21.5q26 0 42 -22t16 -49z" />
<glyph unicode="&#x3c;" d="M487 577l-122 -219h-30v86l135 240h17v-107zM487 -80h-17l-135 240v86h30l122 -220v-106z" />
<glyph unicode="=" d="M521 203l-35 -42h-148l-36 40l36 42h148zM279 203l-35 -42h-148l-35 40l35 42h148zM521 403l-35 -42h-148l-36 40l36 42h148zM279 403l-35 -42h-148l-35 40l35 42h148z" />
<glyph unicode="&#x3e;" d="M246 358h-29l-123 219v107h18l134 -240v-86zM246 160l-134 -240h-18v106l123 220h29v-86z" />
<glyph unicode="?" d="M521 741l-35 -42h-148l-36 40l36 42h148zM279 741l-35 -42h-148l-35 40l35 42h148zM565 360l-32 -44l-34 44v323l32 44l34 -44v-323zM521 303l-35 -42h-148l-36 40l36 42h148zM324 -77l-32 -45l-34 45v320l32 44l34 -44v-320z" />
<glyph unicode="@" d="M521 -135l-35 -42h-148l-36 40l36 42h148zM279 -135l-35 -42h-148l-35 40l35 42h148zM521 741l-35 -42h-148l-36 40l36 42h148zM279 741l-35 -42h-148l-35 40l35 42h148zM246 358h-29l-123 219v107h18l134 -240v-86zM487 -80h-17l-135 240v86h30l122 -220v-106zM487 577 l-122 -219h-30v86l135 240h17v-107zM246 160l-134 -240h-18v106l123 220h29v-86zM324 360l-32 -44l-34 44v321l32 44l34 -44v-321zM521 303l-35 -42h-148l-36 40l36 42h148zM279 303l-35 -42h-148l-35 40l35 42h148zM324 -77l-32 -45l-34 45v320l32 44l34 -44v-320zM565 360 l-32 -44l-34 44v323l32 44l34 -44v-323zM565 -77l-32 -45l-34 45v320l32 44l34 -44v-320zM82 360l-32 -44l-33 44v321l32 44l33 -44v-321zM82 -77l-32 -45l-33 45v320l32 44l33 -44v-320z" />
<glyph unicode="A" d="M521 303l-35 -42h-148l-36 40l36 42h148zM279 303l-35 -42h-148l-35 40l35 42h148zM487 358h-29l-123 219v107h18l134 -240v-86zM246 577l-123 -219h-29v86l135 240h17v-107zM565 -77l-32 -45l-34 45v320l32 44l34 -44v-320zM82 -77l-32 -45l-33 45v320l32 44l33 -44 v-320z" />
<glyph unicode="B" d="M565 360l-32 -44l-34 44v323l32 44l34 -44v-323zM82 -77l-32 -45l-33 45v320l32 44l33 -44v-320zM521 -135l-35 -42h-148l-36 40l36 42h148zM279 -135l-35 -42h-148l-35 40l35 42h148zM521 303l-35 -42h-148l-36 40l36 42h148zM279 303l-35 -42h-148l-35 40l35 42h148z M521 741l-35 -42h-148l-36 40l36 42h148zM279 741l-35 -42h-148l-35 40l35 42h148zM565 -77l-32 -45l-34 45v320l32 44l34 -44v-320zM82 360l-32 -44l-33 44v321l32 44l33 -44v-321z" />
<glyph unicode="C" d="M521 -135l-35 -42h-148l-36 40l36 42h148zM279 -135l-35 -42h-148l-35 40l35 42h148zM82 360l-32 -44l-33 44v321l32 44l33 -44v-321zM82 -77l-32 -45l-33 45v320l32 44l33 -44v-320zM521 741l-35 -42h-148l-36 40l36 42h148zM279 741l-35 -42h-148l-35 40l35 42h148z " />
<glyph unicode="D" d="M487 358h-29l-123 219v107h18l134 -240v-86zM487 160l-134 -240h-18v106l123 220h29v-86zM279 741l-35 -42h-148l-35 40l35 42h148zM82 360l-32 -44l-33 44v321l32 44l33 -44v-321zM82 -77l-32 -45l-33 45v320l32 44l33 -44v-320zM279 -135l-35 -42h-148l-35 40l35 42 h148z" />
<glyph unicode="E" d="M521 -135l-35 -42h-148l-36 40l36 42h148zM279 -135l-35 -42h-148l-35 40l35 42h148zM82 360l-32 -44l-33 44v321l32 44l33 -44v-321zM82 -77l-32 -45l-33 45v320l32 44l33 -44v-320zM521 741l-35 -42h-148l-36 40l36 42h148zM279 741l-35 -42h-148l-35 40l35 42h148z M521 303l-35 -42h-148l-36 40l36 42h148zM279 303l-35 -42h-148l-35 40l35 42h148z" />
<glyph unicode="F" d="M521 741l-35 -42h-148l-36 40l36 42h148zM279 741l-35 -42h-148l-35 40l35 42h148zM521 303l-35 -42h-148l-36 40l36 42h148zM279 303l-35 -42h-148l-35 40l35 42h148zM82 360l-32 -44l-33 44v321l32 44l33 -44v-321zM82 -77l-32 -45l-33 45v320l32 44l33 -44v-320z" />
<glyph unicode="G" d="M82 360l-32 -44l-33 44v321l32 44l33 -44v-321zM82 -77l-32 -45l-33 45v320l32 44l33 -44v-320zM521 -135l-35 -42h-148l-36 40l36 42h148zM279 -135l-35 -42h-148l-35 40l35 42h148zM521 741l-35 -42h-148l-36 40l36 42h148zM279 741l-35 -42h-148l-35 40l35 42h148z M521 303l-35 -42h-148l-36 40l36 42h148zM565 -77l-32 -45l-34 45v320l32 44l34 -44v-320z" />
<glyph unicode="H" d="M565 360l-32 -44l-34 44v323l32 44l34 -44v-323zM565 -77l-32 -45l-34 45v320l32 44l34 -44v-320zM82 360l-32 -44l-33 44v321l32 44l33 -44v-321zM521 303l-35 -42h-148l-36 40l36 42h148zM279 303l-35 -42h-148l-35 40l35 42h148zM82 -77l-32 -45l-33 45v320l32 44 l33 -44v-320z" />
<glyph unicode="I" d="M521 741l-35 -42h-148l-36 40l36 42h148zM324 360l-32 -44l-34 44v321l32 44l34 -44v-321zM324 -77l-32 -45l-34 45v320l32 44l34 -44v-320zM521 -135l-35 -42h-148l-36 40l36 42h148zM279 741l-35 -42h-148l-35 40l35 42h148zM279 -135l-35 -42h-148l-35 40l35 42h148z " />
<glyph unicode="J" d="M521 -135l-35 -42h-148l-36 40l36 42h148zM279 -135l-35 -42h-148l-35 40l35 42h148zM521 741l-35 -42h-148l-36 40l36 42h148zM565 360l-32 -44l-34 44v323l32 44l34 -44v-323zM565 -77l-32 -45l-34 45v320l32 44l34 -44v-320zM82 -77l-32 -45l-33 45v320l32 44l33 -44 v-320z" />
<glyph unicode="K" d="M487 577l-122 -219h-30v86l135 240h17v-107zM487 -80h-17l-135 240v86h30l122 -220v-106zM82 360l-32 -44l-33 44v321l32 44l33 -44v-321zM279 303l-35 -42h-148l-35 40l35 42h148zM82 -77l-32 -45l-33 45v320l32 44l33 -44v-320z" />
<glyph unicode="L" d="M521 -135l-35 -42h-148l-36 40l36 42h148zM279 -135l-35 -42h-148l-35 40l35 42h148zM82 360l-32 -44l-33 44v321l32 44l33 -44v-321zM82 -77l-32 -45l-33 45v320l32 44l33 -44v-320z" />
<glyph unicode="M" d="M246 358h-29l-123 219v107h18l134 -240v-86zM565 360l-32 -44l-34 44v323l32 44l34 -44v-323zM487 577l-122 -219h-30v86l135 240h17v-107zM565 -77l-32 -45l-34 45v320l32 44l34 -44v-320zM82 360l-32 -44l-33 44v321l32 44l33 -44v-321zM82 -77l-32 -45l-33 45v320 l32 44l33 -44v-320z" />
<glyph unicode="N" d="M246 358h-29l-123 219v107h18l134 -240v-86zM487 -80h-17l-135 240v86h30l122 -220v-106zM565 360l-32 -44l-34 44v323l32 44l34 -44v-323zM565 -77l-32 -45l-34 45v320l32 44l34 -44v-320zM82 360l-32 -44l-33 44v321l32 44l33 -44v-321zM82 -77l-32 -45l-33 45v320 l32 44l33 -44v-320z" />
<glyph unicode="O" d="M82 360l-32 -44l-33 44v321l32 44l33 -44v-321zM82 -77l-32 -45l-33 45v320l32 44l33 -44v-320zM521 -135l-35 -42h-148l-36 40l36 42h148zM279 -135l-35 -42h-148l-35 40l35 42h148zM521 741l-35 -42h-148l-36 40l36 42h148zM279 741l-35 -42h-148l-35 40l35 42h148z M565 360l-32 -44l-34 44v323l32 44l34 -44v-323zM565 -77l-32 -45l-34 45v320l32 44l34 -44v-320z" />
<glyph unicode="P" d="M82 360l-32 -44l-33 44v321l32 44l33 -44v-321zM82 -77l-32 -45l-33 45v320l32 44l33 -44v-320zM521 303l-35 -42h-148l-36 40l36 42h148zM279 303l-35 -42h-148l-35 40l35 42h148zM521 741l-35 -42h-148l-36 40l36 42h148zM279 741l-35 -42h-148l-35 40l35 42h148z M565 360l-32 -44l-34 44v323l32 44l34 -44v-323z" />
<glyph unicode="Q" d="M565 360l-32 -44l-34 44v323l32 44l34 -44v-323zM565 -77l-32 -45l-34 45v320l32 44l34 -44v-320zM82 360l-32 -44l-33 44v321l32 44l33 -44v-321zM82 -77l-32 -45l-33 45v320l32 44l33 -44v-320zM521 -135l-35 -42h-148l-36 40l36 42h148zM279 -135l-35 -42h-148l-35 40 l35 42h148zM521 741l-35 -42h-148l-36 40l36 42h148zM279 741l-35 -42h-148l-35 40l35 42h148zM487 -80h-17l-135 240v86h30l122 -220v-106z" />
<glyph unicode="R" d="M565 360l-32 -44l-34 44v323l32 44l34 -44v-323zM82 360l-32 -44l-33 44v321l32 44l33 -44v-321zM82 -77l-32 -45l-33 45v320l32 44l33 -44v-320zM521 303l-35 -42h-148l-36 40l36 42h148zM279 303l-35 -42h-148l-35 40l35 42h148zM521 741l-35 -42h-148l-36 40l36 42 h148zM279 741l-35 -42h-148l-35 40l35 42h148zM487 -80h-17l-135 240v86h30l122 -220v-106z" />
<glyph unicode="S" d="M521 741l-35 -42h-148l-36 40l36 42h148zM279 741l-35 -42h-148l-35 40l35 42h148zM521 303l-35 -42h-148l-36 40l36 42h148zM279 303l-35 -42h-148l-35 40l35 42h148zM521 -135l-35 -42h-148l-36 40l36 42h148zM279 -135l-35 -42h-148l-35 40l35 42h148zM565 -77 l-32 -45l-34 45v320l32 44l34 -44v-320zM82 360l-32 -44l-33 44v321l32 44l33 -44v-321z" />
<glyph unicode="T" d="M324 360l-32 -44l-34 44v321l32 44l34 -44v-321zM324 -77l-32 -45l-34 45v320l32 44l34 -44v-320zM521 741l-35 -42h-148l-36 40l36 42h148zM279 741l-35 -42h-148l-35 40l35 42h148z" />
<glyph unicode="U" d="M82 360l-32 -44l-33 44v321l32 44l33 -44v-321zM82 -77l-32 -45l-33 45v320l32 44l33 -44v-320zM521 -135l-35 -42h-148l-36 40l36 42h148zM279 -135l-35 -42h-148l-35 40l35 42h148zM565 360l-32 -44l-34 44v323l32 44l34 -44v-323zM565 -77l-32 -45l-34 45v320l32 44 l34 -44v-320z" />
<glyph unicode="V" d="M565 360l-32 -44l-34 44v323l32 44l34 -44v-323zM487 160l-134 -240h-18v106l123 220h29v-86zM82 360l-32 -44l-33 44v321l32 44l33 -44v-321zM246 -80h-17l-135 240v86h29l123 -220v-106z" />
<glyph unicode="W" d="M565 360l-32 -44l-34 44v323l32 44l34 -44v-323zM565 -77l-32 -45l-34 45v320l32 44l34 -44v-320zM487 -80h-17l-135 240v86h30l122 -220v-106zM82 360l-32 -44l-33 44v321l32 44l33 -44v-321zM246 160l-134 -240h-18v106l123 220h29v-86zM82 -77l-32 -45l-33 45v320 l32 44l33 -44v-320z" />
<glyph unicode="X" d="M246 358h-29l-123 219v107h18l134 -240v-86zM487 -80h-17l-135 240v86h30l122 -220v-106zM487 577l-122 -219h-30v86l135 240h17v-107zM246 160l-134 -240h-18v106l123 220h29v-86z" />
<glyph unicode="Y" d="M246 358h-29l-123 219v107h18l134 -240v-86zM487 577l-122 -219h-30v86l135 240h17v-107zM324 -77l-32 -45l-34 45v320l32 44l34 -44v-320z" />
<glyph unicode="Z" d="M487 577l-122 -219h-30v86l135 240h17v-107zM246 160l-134 -240h-18v106l123 220h29v-86zM521 741l-35 -42h-148l-36 40l36 42h148zM279 741l-35 -42h-148l-35 40l35 42h148zM521 -135l-35 -42h-148l-36 40l36 42h148zM279 -135l-35 -42h-148l-35 40l35 42h148z" />
<glyph unicode="[" d="M324 360l-32 -44l-34 44v321l32 44l34 -44v-321zM324 -77l-32 -45l-34 45v320l32 44l34 -44v-320zM521 741l-35 -42h-148l-36 40l36 42h148zM521 -135l-35 -42h-148l-36 40l36 42h148z" />
<glyph unicode="\" d="M246 358h-29l-123 219v107h18l134 -240v-86zM487 -80h-17l-135 240v86h30l122 -220v-106z" />
<glyph unicode="]" d="M324 360l-32 -44l-34 44v321l32 44l34 -44v-321zM324 -77l-32 -45l-34 45v320l32 44l34 -44v-320zM279 741l-35 -42h-148l-35 40l35 42h148zM279 -135l-35 -42h-148l-35 40l35 42h148z" />
<glyph unicode="^" d="M487 358h-29l-123 219v107h18l134 -240v-86zM246 577l-123 -219h-29v86l135 240h17v-107z" />
<glyph unicode="_" d="M521 -135l-35 -42h-148l-36 40l36 42h148zM279 -135l-35 -42h-148l-35 40l35 42h148z" />
<glyph unicode="`" d="M246 358h-29l-123 219v107h18l134 -240v-86z" />
<glyph unicode="a" d="M521 303l-35 -42h-148l-36 40l36 42h148zM279 303l-35 -42h-148l-35 40l35 42h148zM487 358h-29l-123 219v107h18l134 -240v-86zM246 577l-123 -219h-29v86l135 240h17v-107zM565 -77l-32 -45l-34 45v320l32 44l34 -44v-320zM82 -77l-32 -45l-33 45v320l32 44l33 -44 v-320z" />
<glyph unicode="b" d="M565 360l-32 -44l-34 44v323l32 44l34 -44v-323zM82 -77l-32 -45l-33 45v320l32 44l33 -44v-320zM521 -135l-35 -42h-148l-36 40l36 42h148zM279 -135l-35 -42h-148l-35 40l35 42h148zM521 303l-35 -42h-148l-36 40l36 42h148zM279 303l-35 -42h-148l-35 40l35 42h148z M521 741l-35 -42h-148l-36 40l36 42h148zM279 741l-35 -42h-148l-35 40l35 42h148zM565 -77l-32 -45l-34 45v320l32 44l34 -44v-320zM82 360l-32 -44l-33 44v321l32 44l33 -44v-321z" />
<glyph unicode="c" d="M521 -135l-35 -42h-148l-36 40l36 42h148zM279 -135l-35 -42h-148l-35 40l35 42h148zM82 360l-32 -44l-33 44v321l32 44l33 -44v-321zM82 -77l-32 -45l-33 45v320l32 44l33 -44v-320zM521 741l-35 -42h-148l-36 40l36 42h148zM279 741l-35 -42h-148l-35 40l35 42h148z " />
<glyph unicode="d" d="M487 358h-29l-123 219v107h18l134 -240v-86zM487 160l-134 -240h-18v106l123 220h29v-86zM279 741l-35 -42h-148l-35 40l35 42h148zM82 360l-32 -44l-33 44v321l32 44l33 -44v-321zM82 -77l-32 -45l-33 45v320l32 44l33 -44v-320zM279 -135l-35 -42h-148l-35 40l35 42 h148z" />
<glyph unicode="e" d="M521 -135l-35 -42h-148l-36 40l36 42h148zM279 -135l-35 -42h-148l-35 40l35 42h148zM82 360l-32 -44l-33 44v321l32 44l33 -44v-321zM82 -77l-32 -45l-33 45v320l32 44l33 -44v-320zM521 741l-35 -42h-148l-36 40l36 42h148zM279 741l-35 -42h-148l-35 40l35 42h148z M521 303l-35 -42h-148l-36 40l36 42h148zM279 303l-35 -42h-148l-35 40l35 42h148z" />
<glyph unicode="f" d="M521 741l-35 -42h-148l-36 40l36 42h148zM279 741l-35 -42h-148l-35 40l35 42h148zM521 303l-35 -42h-148l-36 40l36 42h148zM279 303l-35 -42h-148l-35 40l35 42h148zM82 360l-32 -44l-33 44v321l32 44l33 -44v-321zM82 -77l-32 -45l-33 45v320l32 44l33 -44v-320z" />
<glyph unicode="g" d="M82 360l-32 -44l-33 44v321l32 44l33 -44v-321zM82 -77l-32 -45l-33 45v320l32 44l33 -44v-320zM521 -135l-35 -42h-148l-36 40l36 42h148zM279 -135l-35 -42h-148l-35 40l35 42h148zM521 741l-35 -42h-148l-36 40l36 42h148zM279 741l-35 -42h-148l-35 40l35 42h148z M521 303l-35 -42h-148l-36 40l36 42h148zM565 -77l-32 -45l-34 45v320l32 44l34 -44v-320z" />
<glyph unicode="h" d="M565 360l-32 -44l-34 44v323l32 44l34 -44v-323zM565 -77l-32 -45l-34 45v320l32 44l34 -44v-320zM82 360l-32 -44l-33 44v321l32 44l33 -44v-321zM521 303l-35 -42h-148l-36 40l36 42h148zM279 303l-35 -42h-148l-35 40l35 42h148zM82 -77l-32 -45l-33 45v320l32 44 l33 -44v-320z" />
<glyph unicode="i" d="M521 741l-35 -42h-148l-36 40l36 42h148zM324 360l-32 -44l-34 44v321l32 44l34 -44v-321zM324 -77l-32 -45l-34 45v320l32 44l34 -44v-320zM521 -135l-35 -42h-148l-36 40l36 42h148zM279 741l-35 -42h-148l-35 40l35 42h148zM279 -135l-35 -42h-148l-35 40l35 42h148z " />
<glyph unicode="j" d="M521 -135l-35 -42h-148l-36 40l36 42h148zM279 -135l-35 -42h-148l-35 40l35 42h148zM521 741l-35 -42h-148l-36 40l36 42h148zM565 360l-32 -44l-34 44v323l32 44l34 -44v-323zM565 -77l-32 -45l-34 45v320l32 44l34 -44v-320zM82 -77l-32 -45l-33 45v320l32 44l33 -44 v-320z" />
<glyph unicode="k" d="M487 577l-122 -219h-30v86l135 240h17v-107zM487 -80h-17l-135 240v86h30l122 -220v-106zM82 360l-32 -44l-33 44v321l32 44l33 -44v-321zM279 303l-35 -42h-148l-35 40l35 42h148zM82 -77l-32 -45l-33 45v320l32 44l33 -44v-320z" />
<glyph unicode="l" d="M521 -135l-35 -42h-148l-36 40l36 42h148zM279 -135l-35 -42h-148l-35 40l35 42h148zM82 360l-32 -44l-33 44v321l32 44l33 -44v-321zM82 -77l-32 -45l-33 45v320l32 44l33 -44v-320z" />
<glyph unicode="m" d="M246 358h-29l-123 219v107h18l134 -240v-86zM565 360l-32 -44l-34 44v323l32 44l34 -44v-323zM487 577l-122 -219h-30v86l135 240h17v-107zM565 -77l-32 -45l-34 45v320l32 44l34 -44v-320zM82 360l-32 -44l-33 44v321l32 44l33 -44v-321zM82 -77l-32 -45l-33 45v320 l32 44l33 -44v-320z" />
<glyph unicode="n" d="M246 358h-29l-123 219v107h18l134 -240v-86zM487 -80h-17l-135 240v86h30l122 -220v-106zM565 360l-32 -44l-34 44v323l32 44l34 -44v-323zM565 -77l-32 -45l-34 45v320l32 44l34 -44v-320zM82 360l-32 -44l-33 44v321l32 44l33 -44v-321zM82 -77l-32 -45l-33 45v320 l32 44l33 -44v-320z" />
<glyph unicode="o" d="M82 360l-32 -44l-33 44v321l32 44l33 -44v-321zM82 -77l-32 -45l-33 45v320l32 44l33 -44v-320zM521 -135l-35 -42h-148l-36 40l36 42h148zM279 -135l-35 -42h-148l-35 40l35 42h148zM521 741l-35 -42h-148l-36 40l36 42h148zM279 741l-35 -42h-148l-35 40l35 42h148z M565 360l-32 -44l-34 44v323l32 44l34 -44v-323zM565 -77l-32 -45l-34 45v320l32 44l34 -44v-320z" />
<glyph unicode="p" d="M82 360l-32 -44l-33 44v321l32 44l33 -44v-321zM82 -77l-32 -45l-33 45v320l32 44l33 -44v-320zM521 303l-35 -42h-148l-36 40l36 42h148zM279 303l-35 -42h-148l-35 40l35 42h148zM521 741l-35 -42h-148l-36 40l36 42h148zM279 741l-35 -42h-148l-35 40l35 42h148z M565 360l-32 -44l-34 44v323l32 44l34 -44v-323z" />
<glyph unicode="q" d="M565 360l-32 -44l-34 44v323l32 44l34 -44v-323zM565 -77l-32 -45l-34 45v320l32 44l34 -44v-320zM82 360l-32 -44l-33 44v321l32 44l33 -44v-321zM82 -77l-32 -45l-33 45v320l32 44l33 -44v-320zM521 -135l-35 -42h-148l-36 40l36 42h148zM279 -135l-35 -42h-148l-35 40 l35 42h148zM521 741l-35 -42h-148l-36 40l36 42h148zM279 741l-35 -42h-148l-35 40l35 42h148zM487 -80h-17l-135 240v86h30l122 -220v-106z" />
<glyph unicode="r" d="M565 360l-32 -44l-34 44v323l32 44l34 -44v-323zM82 360l-32 -44l-33 44v321l32 44l33 -44v-321zM82 -77l-32 -45l-33 45v320l32 44l33 -44v-320zM521 303l-35 -42h-148l-36 40l36 42h148zM279 303l-35 -42h-148l-35 40l35 42h148zM521 741l-35 -42h-148l-36 40l36 42 h148zM279 741l-35 -42h-148l-35 40l35 42h148zM487 -80h-17l-135 240v86h30l122 -220v-106z" />
<glyph unicode="s" d="M521 741l-35 -42h-148l-36 40l36 42h148zM279 741l-35 -42h-148l-35 40l35 42h148zM521 303l-35 -42h-148l-36 40l36 42h148zM279 303l-35 -42h-148l-35 40l35 42h148zM521 -135l-35 -42h-148l-36 40l36 42h148zM279 -135l-35 -42h-148l-35 40l35 42h148zM565 -77 l-32 -45l-34 45v320l32 44l34 -44v-320zM82 360l-32 -44l-33 44v321l32 44l33 -44v-321z" />
<glyph unicode="t" d="M324 360l-32 -44l-34 44v321l32 44l34 -44v-321zM324 -77l-32 -45l-34 45v320l32 44l34 -44v-320zM521 741l-35 -42h-148l-36 40l36 42h148zM279 741l-35 -42h-148l-35 40l35 42h148z" />
<glyph unicode="u" d="M82 360l-32 -44l-33 44v321l32 44l33 -44v-321zM82 -77l-32 -45l-33 45v320l32 44l33 -44v-320zM521 -135l-35 -42h-148l-36 40l36 42h148zM279 -135l-35 -42h-148l-35 40l35 42h148zM565 360l-32 -44l-34 44v323l32 44l34 -44v-323zM565 -77l-32 -45l-34 45v320l32 44 l34 -44v-320z" />
<glyph unicode="v" d="M565 360l-32 -44l-34 44v323l32 44l34 -44v-323zM487 160l-134 -240h-18v106l123 220h29v-86zM82 360l-32 -44l-33 44v321l32 44l33 -44v-321zM246 -80h-17l-135 240v86h29l123 -220v-106z" />
<glyph unicode="w" d="M565 360l-32 -44l-34 44v323l32 44l34 -44v-323zM565 -77l-32 -45l-34 45v320l32 44l34 -44v-320zM487 -80h-17l-135 240v86h30l122 -220v-106zM82 360l-32 -44l-33 44v321l32 44l33 -44v-321zM246 160l-134 -240h-18v106l123 220h29v-86zM82 -77l-32 -45l-33 45v320 l32 44l33 -44v-320z" />
<glyph unicode="x" d="M246 358h-29l-123 219v107h18l134 -240v-86zM487 -80h-17l-135 240v86h30l122 -220v-106zM487 577l-122 -219h-30v86l135 240h17v-107zM246 160l-134 -240h-18v106l123 220h29v-86z" />
<glyph unicode="y" d="M246 358h-29l-123 219v107h18l134 -240v-86zM487 577l-122 -219h-30v86l135 240h17v-107zM324 -77l-32 -45l-34 45v320l32 44l34 -44v-320z" />
<glyph unicode="z" d="M487 577l-122 -219h-30v86l135 240h17v-107zM246 160l-134 -240h-18v106l123 220h29v-86zM521 741l-35 -42h-148l-36 40l36 42h148zM279 741l-35 -42h-148l-35 40l35 42h148zM521 -135l-35 -42h-148l-36 40l36 42h148zM279 -135l-35 -42h-148l-35 40l35 42h148z" />
<glyph unicode="{" d="M521 741l-35 -42h-148l-36 40l36 42h148zM324 360l-32 -44l-34 44v321l32 44l34 -44v-321zM324 -77l-32 -45l-34 45v320l32 44l34 -44v-320zM521 -135l-35 -42h-148l-36 40l36 42h148zM279 303l-35 -42h-148l-35 40l35 42h148z" />
<glyph unicode="|" d="M324 360l-32 -44l-34 44v321l32 44l34 -44v-321zM324 -77l-32 -45l-34 45v320l32 44l34 -44v-320z" />
<glyph unicode="}" d="M279 741l-35 -42h-148l-35 40l35 42h148zM324 360l-32 -44l-34 44v321l32 44l34 -44v-321zM324 -77l-32 -45l-34 45v320l32 44l34 -44v-320zM279 -135l-35 -42h-148l-35 40l35 42h148zM521 303l-35 -42h-148l-36 40l36 42h148z" />
<glyph unicode="&#xa0;" />
<glyph unicode="&#xad;" d="M521 303l-35 -42h-148l-36 40l36 42h148zM279 303l-35 -42h-148l-35 40l35 42h148z" />
<glyph unicode="&#x2000;" horiz-adv-x="400" />
<glyph unicode="&#x2001;" horiz-adv-x="800" />
<glyph unicode="&#x2002;" horiz-adv-x="400" />
<glyph unicode="&#x2003;" horiz-adv-x="800" />
<glyph unicode="&#x2004;" horiz-adv-x="266" />
<glyph unicode="&#x2005;" horiz-adv-x="200" />
<glyph unicode="&#x2006;" horiz-adv-x="133" />
<glyph unicode="&#x2007;" horiz-adv-x="133" />
<glyph unicode="&#x2008;" horiz-adv-x="100" />
<glyph unicode="&#x2009;" horiz-adv-x="160" />
<glyph unicode="&#x200a;" horiz-adv-x="44" />
<glyph unicode="&#x2011;" d="M521 303l-35 -42h-148l-36 40l36 42h148zM279 303l-35 -42h-148l-35 40l35 42h148z" />
<glyph unicode="&#x2013;" horiz-adv-x="500" d="M100 250v100h300v-100h-300z" />
<glyph unicode="&#x2014;" horiz-adv-x="1000" d="M100 250v100h800v-100h-800z" />
<glyph unicode="&#x2018;" d="M246 358h-29l-123 219v107h18l134 -240v-86z" />
<glyph unicode="&#x2019;" d="M324 560l-32 -44l-34 44v121l32 44l34 -44v-121z" />
<glyph unicode="&#x201c;" d="M324 560l-32 -44l-34 44v121l32 44l34 -44v-121zM82 560l-32 -44l-33 44v121l32 44l33 -44v-121z" />
<glyph unicode="&#x201d;" d="M324 560l-32 -44l-34 44v121l32 44l34 -44v-121zM82 560l-32 -44l-33 44v121l32 44l33 -44v-121z" />
<glyph unicode="&#x2026;" horiz-adv-x="1920" d="M1629 -104q0 -27 -16 -50t-42 -23t-42 23t-16 50q0 28 15.5 49.5t42.5 21.5t42.5 -21.5t15.5 -49.5zM989 -104q0 -27 -16 -50t-42 -23t-42 23t-16 50q0 28 15.5 49.5t42.5 21.5t42.5 -21.5t15.5 -49.5zM349 -104q0 -27 -16 -50t-42 -23t-42 23t-16 50q0 28 15.5 49.5 t42.5 21.5t42.5 -21.5t15.5 -49.5z" />
<glyph unicode="&#x202f;" horiz-adv-x="160" />
<glyph unicode="&#x205f;" horiz-adv-x="200" />
<glyph unicode="&#x2122;" horiz-adv-x="1280" d="M886 358h-29l-123 219v107h18l134 -240v-86zM1205 360l-32 -44l-34 44v323l32 44l34 -44v-323zM1127 577l-122 -219h-30v86l135 240h17v-107zM1205 -77l-32 -45l-34 45v320l32 44l34 -44v-320zM722 360l-32 -44l-33 44v321l32 44l33 -44v-321zM722 -77l-32 -45l-33 45 v320l32 44l33 -44v-320zM324 360l-32 -44l-34 44v321l32 44l34 -44v-321zM324 -77l-32 -45l-34 45v320l32 44l34 -44v-320zM521 741l-35 -42h-148l-36 40l36 42h148zM279 741l-35 -42h-148l-35 40l35 42h148z" />
</font>
</defs>
</svg>
