<?xml version="1.0" standalone="no"?>
<!DOCTYPE svg PUBLIC "-//W3C//DTD SVG 1.1//EN" "http://www.w3.org/Graphics/SVG/1.1/DTD/svg11.dtd" >
<svg xmlns="http://www.w3.org/2000/svg">
<metadata>
This is a custom SVG webfont generated by Font Squirrel.
</metadata>
<defs>
<font id="webfontavqV0u0r" horiz-adv-x="640" >
<font-face units-per-em="1000" ascent="800" descent="-200" />
<missing-glyph horiz-adv-x="500" />
<glyph unicode=" " />
<glyph unicode="!" d="M334 360l-37 -44l-30 44l37 321l37 44l29 -44zM306 -104q-3 -28 -20 -49q-19 -24 -46 -24q-25 0 -40 25q-13 22 -10 48q4 28 22 49.5t44 21.5q27 0 40 -21.5t10 -49.5z" />
<glyph unicode="&#x22;" d="M317 560l-37 -44l-29 44l14 121l37 44l28 -44zM76 560l-38 -44l-28 44l13 121l38 44l29 -44z" />
<glyph unicode="#" d="M40 -77l-38 -45l-28 45l36 320l37 44l29 -44zM571 360l-37 -44l-28 44l36 323l37 44l29 -44zM522 -77l-37 -45l-29 45l36 320l38 44l28 -44zM89 360l-37 -44l-29 44l36 321l37 44l29 -44zM521 303l-40 -42h-148l-31 40l40 42h148zM279 303l-40 -42h-147l-31 40l40 42h148 zM330 360l-37 -44l-29 44l36 321l38 44l28 -44zM281 -77l-37 -45l-29 45l36 320l37 44l29 -44z" />
<glyph unicode="$" d="M521 303l-40 -42h-148l-31 40l40 42h148zM279 303l-40 -42h-147l-31 40l40 42h148zM329 741l-40 -42h-148l-31 40l40 42h148zM230 -135l-40 -42h-148l-30 40l40 42h147zM570 741l-40 -42h-148l-31 40l40 42h148zM330 360l-36 -44l-30 44l37 321l37 44l28 -44zM281 -77 l-37 -45l-29 45l36 320l37 44l30 -44zM471 -135l-40 -42h-147l-31 40l40 42h148zM522 -77l-36 -45l-29 45l36 320l37 44l28 -44zM89 360l-37 -44l-29 44l36 321l37 44l30 -44z" />
<glyph unicode="%" d="M330 360l-36 -44l-30 44l37 321l37 44l28 -44zM521 303l-40 -42h-148l-31 40l40 42h148zM279 303l-40 -42h-147l-31 40l40 42h148zM281 -77l-37 -45l-29 45l36 320l37 44l30 -44zM518 577l-147 -219h-29l9 86l162 240h17zM230 160l-161 -240h-18l12 106l147 220h30z M329 741l-40 -42h-148l-31 40l40 42h148zM522 -77l-36 -45l-29 45l36 320l37 44l28 -44zM89 360l-37 -44l-29 44l36 321l37 44l30 -44zM471 -135l-40 -42h-147l-31 40l40 42h148z" />
<glyph unicode="&#x26;" d="M471 -135l-40 -42h-147l-31 40l40 42h148zM329 741l-40 -42h-148l-31 40l40 42h148zM330 360l-36 -44l-30 44l37 321l37 44l28 -44zM281 -77l-37 -45l-29 45l36 320l37 44l30 -44zM230 -135l-40 -42h-148l-30 40l40 42h147zM89 360l-37 -44l-29 44l36 321l37 44l30 -44z M279 303l-40 -42h-147l-31 40l40 42h148zM40 -77l-38 -45l-28 45l36 320l37 44l29 -44zM471 160l-161 -240h-17l12 106l147 220h29z" />
<glyph unicode="'" d="M317 560l-37 -44l-29 44l14 121l37 44l28 -44z" />
<glyph unicode="(" d="M330 360l-36 -44l-30 44l37 321l37 44l28 -44zM281 -77l-37 -45l-29 45l36 320l37 44l30 -44zM570 741l-40 -42h-148l-31 40l40 42h148zM471 -135l-40 -42h-147l-31 40l40 42h148z" />
<glyph unicode=")" d="M330 360l-36 -44l-30 44l37 321l37 44l28 -44zM281 -77l-37 -45l-29 45l36 320l37 44l30 -44zM329 741l-40 -42h-148l-31 40l40 42h148zM230 -135l-40 -42h-148l-30 40l40 42h147z" />
<glyph unicode="*" d="M252 358h-29l-97 219l12 107h17l107 -240zM444 -80h-18l-106 240l10 86h28l98 -220zM518 577l-147 -219h-29l9 86l162 240h17zM230 160l-161 -240h-18l12 106l147 220h30z" />
<glyph unicode="+" d="M330 360l-36 -44l-30 44l37 321l37 44l28 -44zM281 -77l-37 -45l-29 45l36 320l37 44l30 -44zM521 303l-40 -42h-148l-31 40l40 42h148zM279 303l-40 -42h-147l-31 40l40 42h148z" />
<glyph unicode="," d="M352 -104q-4 -32 -24 -78q-25 -55 -49 -55q-22 0 -35 52q-11 44 -7 81q3 28 20.5 49.5t44.5 21.5t40 -21.5t10 -49.5z" />
<glyph unicode="-" d="M521 303l-40 -42h-148l-31 40l40 42h148zM279 303l-40 -42h-147l-31 40l40 42h148z" />
<glyph unicode="&#x2010;" d="M521 303l-40 -42h-148l-31 40l40 42h148zM279 303l-40 -42h-147l-31 40l40 42h148z" />
<glyph unicode="." d="M349 -104q-3 -27 -22 -50t-45 -23q-25 0 -39 25q-13 22 -10 48q3 28 21 49.5t45 21.5t40 -21.5t10 -49.5z" />
<glyph unicode="/" d="M518 577l-147 -219h-29l9 86l162 240h17zM230 160l-161 -240h-18l12 106l147 220h30z" />
<glyph unicode="0" d="M570 741l-40 -42h-148l-31 40l40 42h148zM329 741l-40 -42h-148l-31 40l40 42h148zM89 360l-37 -44l-29 44l36 321l37 44l30 -44zM471 -135l-40 -42h-147l-31 40l40 42h148zM40 -77l-38 -45l-28 45l36 320l37 44l29 -44zM230 -135l-40 -42h-148l-30 40l40 42h147z M572 360l-38 -44l-28 44l36 323l37 44l29 -44zM522 -77l-36 -45l-29 45l36 320l37 44l28 -44zM518 577l-147 -219h-29l9 86l162 240h17zM230 160l-161 -240h-18l12 106l147 220h30z" />
<glyph unicode="1" d="M329 741l-40 -42h-148l-31 40l40 42h148zM330 360l-36 -44l-30 44l37 321l37 44l28 -44zM281 -77l-37 -45l-29 45l36 320l37 44l30 -44zM230 -135l-40 -42h-148l-30 40l40 42h147zM471 -135l-40 -42h-147l-31 40l40 42h148z" />
<glyph unicode="2" d="M521 303l-40 -42h-148l-31 40l40 42h148zM279 303l-40 -42h-147l-31 40l40 42h148zM570 741l-40 -42h-148l-31 40l40 42h148zM572 360l-38 -44l-28 44l36 323l37 44l29 -44zM329 741l-40 -42h-148l-31 40l40 42h148zM471 -135l-40 -42h-147l-31 40l40 42h148zM40 -77 l-38 -45l-28 45l36 320l37 44l29 -44zM230 -135l-40 -42h-148l-30 40l40 42h147z" />
<glyph unicode="3" d="M570 741l-40 -42h-148l-31 40l40 42h148zM572 360l-38 -44l-28 44l36 323l37 44l29 -44zM329 741l-40 -42h-148l-31 40l40 42h148zM521 303l-40 -42h-148l-31 40l40 42h148zM522 -77l-36 -45l-29 45l36 320l37 44l28 -44zM471 -135l-40 -42h-147l-31 40l40 42h148z M230 -135l-40 -42h-148l-30 40l40 42h147z" />
<glyph unicode="4" d="M521 303l-40 -42h-148l-31 40l40 42h148zM279 303l-40 -42h-147l-31 40l40 42h148zM571 360l-37 -44l-28 44l36 323l37 44l29 -44zM522 -77l-37 -45l-29 45l36 320l38 44l28 -44zM89 360l-37 -44l-29 44l36 321l37 44l29 -44z" />
<glyph unicode="5" d="M521 303l-40 -42h-148l-31 40l40 42h148zM279 303l-40 -42h-147l-31 40l40 42h148zM570 741l-40 -42h-148l-31 40l40 42h148zM329 741l-40 -42h-148l-31 40l40 42h148zM522 -77l-36 -45l-29 45l36 320l37 44l28 -44zM89 360l-37 -44l-29 44l36 321l37 44l30 -44z M471 -135l-40 -42h-147l-31 40l40 42h148zM230 -135l-40 -42h-148l-30 40l40 42h147z" />
<glyph unicode="6" d="M570 741l-40 -42h-148l-31 40l40 42h148zM329 741l-40 -42h-148l-31 40l40 42h148zM522 -77l-36 -45l-29 45l36 320l37 44l28 -44zM89 360l-37 -44l-29 44l36 321l37 44l30 -44zM471 -135l-40 -42h-147l-31 40l40 42h148zM230 -135l-40 -42h-148l-30 40l40 42h147z M521 303l-40 -42h-148l-31 40l40 42h148zM279 303l-40 -42h-147l-31 40l40 42h148zM40 -77l-38 -45l-28 45l36 320l37 44l29 -44z" />
<glyph unicode="7" d="M564 741l-40 -42h-147l-31 40l40 42h148zM513 577l-147 -219h-30l10 86l161 240h18zM323 741l-40 -42h-148l-30 40l40 42h148zM225 160l-162 -240h-17l12 106l147 220h29z" />
<glyph unicode="8" d="M570 741l-40 -42h-148l-31 40l40 42h148zM572 360l-38 -44l-28 44l36 323l37 44l29 -44zM329 741l-40 -42h-148l-31 40l40 42h148zM471 -135l-40 -42h-147l-31 40l40 42h148zM40 -77l-38 -45l-28 45l36 320l37 44l29 -44zM230 -135l-40 -42h-148l-30 40l40 42h147z M521 303l-40 -42h-148l-31 40l40 42h148zM279 303l-40 -42h-147l-31 40l40 42h148zM522 -77l-36 -45l-29 45l36 320l37 44l28 -44zM89 360l-37 -44l-29 44l36 321l37 44l30 -44z" />
<glyph unicode="9" d="M570 741l-40 -42h-148l-31 40l40 42h148zM329 741l-40 -42h-148l-31 40l40 42h148zM522 -77l-36 -45l-29 45l36 320l37 44l28 -44zM89 360l-37 -44l-29 44l36 321l37 44l30 -44zM471 -135l-40 -42h-147l-31 40l40 42h148zM230 -135l-40 -42h-148l-30 40l40 42h147z M521 303l-40 -42h-148l-31 40l40 42h148zM279 303l-40 -42h-147l-31 40l40 42h148zM572 360l-38 -44l-28 44l36 323l37 44l29 -44z" />
<glyph unicode=":" d="M364 435q-3 -28 -20 -48q-19 -23 -46 -23t-41 23q-12 20 -9 48t21 50.5t45 22.5t40 -22.5t10 -50.5zM334 169q-3 -28 -22 -51t-45 -23t-40 25q-12 22 -9 49q4 29 21.5 50t44.5 21q26 0 39 -22.5t11 -48.5z" />
<glyph unicode=";" d="M367 435q-3 -28 -20 -48q-19 -23 -46 -23t-41 23q-12 20 -9 48t21.5 50.5t45.5 22.5q26 0 40 -25q12 -21 9 -48zM337 169q-4 -34 -26 -81q-25 -53 -47 -53t-35 55q-10 45 -7 79q3 29 20 50t45 21q26 0 39.5 -22t10.5 -49z" />
<glyph unicode="&#x3c;" d="M518 577l-147 -219h-29l9 86l162 240h17zM444 -80h-18l-106 240l10 86h28l98 -220z" />
<glyph unicode="=" d="M532 403l-40 -42h-148l-30 40l40 42h147zM290 403l-40 -42h-147l-31 40l40 42h148zM510 203l-40 -42h-148l-31 40l40 42h147zM268 203l-40 -42h-147l-31 40l40 42h148z" />
<glyph unicode="&#x3e;" d="M252 358h-29l-97 219l12 107h17l107 -240zM230 160l-161 -240h-18l12 106l147 220h30z" />
<glyph unicode="?" d="M566 741l-40 -42h-147l-31 40l40 42h148zM569 360l-38 -44l-29 44l37 323l37 44l29 -44zM326 741l-40 -42h-148l-31 40l40 42h147zM518 303l-40 -42h-148l-31 40l40 42h147zM278 -77l-37 -45l-29 45l36 320l38 44l28 -44z" />
<glyph unicode="@" d="M570 741l-40 -42h-148l-31 40l40 42h148zM329 741l-40 -42h-148l-31 40l40 42h148zM521 303l-40 -42h-148l-31 40l40 42h148zM522 -77l-36 -45l-29 45l36 320l37 44l28 -44zM89 360l-37 -44l-29 44l36 321l37 44l30 -44zM279 303l-40 -42h-147l-31 40l40 42h148z M471 -135l-40 -42h-147l-31 40l40 42h148zM230 -135l-40 -42h-148l-30 40l40 42h147zM330 360l-36 -44l-30 44l37 321l37 44l28 -44zM281 -77l-37 -45l-29 45l36 320l37 44l30 -44zM518 577l-147 -219h-29l9 86l162 240h17zM252 358h-29l-97 219l12 107h17l107 -240z M444 -80h-18l-106 240l10 86h28l98 -220zM230 160l-161 -240h-18l12 106l147 220h30zM572 360l-38 -44l-28 44l36 323l37 44l29 -44zM40 -77l-38 -45l-28 45l36 320l37 44l29 -44z" />
<glyph unicode="A" d="M496 358h-30l-97 219l12 107h17l108 -240zM523 303l-40 -42h-148l-30 40l40 42h147zM525 -77l-37 -45l-30 45l37 320l37 44l29 -44zM279 577l-147 -219h-29l10 86l161 240h17zM282 303l-40 -42h-148l-31 40l40 42h148zM42 -77l-37 -45l-29 45l36 320l38 44l28 -44z" />
<glyph unicode="B" d="M570 741l-40 -42h-148l-31 40l40 42h148zM572 360l-38 -44l-28 44l36 323l37 44l29 -44zM329 741l-40 -42h-148l-31 40l40 42h148zM471 -135l-40 -42h-147l-31 40l40 42h148zM40 -77l-38 -45l-28 45l36 320l37 44l29 -44zM230 -135l-40 -42h-148l-30 40l40 42h147z M521 303l-40 -42h-148l-31 40l40 42h148zM279 303l-40 -42h-147l-31 40l40 42h148zM522 -77l-36 -45l-29 45l36 320l37 44l28 -44zM89 360l-37 -44l-29 44l36 321l37 44l30 -44z" />
<glyph unicode="C" d="M570 741l-40 -42h-148l-31 40l40 42h148zM329 741l-40 -42h-148l-31 40l40 42h148zM89 360l-37 -44l-29 44l36 321l37 44l30 -44zM471 -135l-40 -42h-147l-31 40l40 42h148zM40 -77l-38 -45l-28 45l36 320l37 44l29 -44zM230 -135l-40 -42h-148l-30 40l40 42h147z" />
<glyph unicode="D" d="M494 358h-29l-99 219l12 107h18l107 -240zM329 741l-40 -42h-148l-31 40l40 42h148zM471 160l-161 -240h-17l12 106l147 220h29zM89 360l-37 -44l-29 44l36 321l37 44l30 -44zM40 -77l-38 -45l-28 45l36 320l37 44l29 -44zM230 -135l-40 -42h-148l-30 40l40 42h147z" />
<glyph unicode="E" d="M570 741l-40 -42h-148l-31 40l40 42h148zM329 741l-40 -42h-148l-31 40l40 42h148zM89 360l-37 -44l-29 44l36 321l37 44l30 -44zM471 -135l-40 -42h-147l-31 40l40 42h148zM40 -77l-38 -45l-28 45l36 320l37 44l29 -44zM230 -135l-40 -42h-148l-30 40l40 42h147z M521 303l-40 -42h-148l-31 40l40 42h148zM279 303l-40 -42h-147l-31 40l40 42h148z" />
<glyph unicode="F" d="M566 741l-40 -42h-147l-31 40l40 42h148zM326 741l-40 -42h-148l-31 40l40 42h147zM518 303l-40 -42h-148l-31 40l40 42h147zM86 360l-37 -44l-29 44l36 321l38 44l28 -44zM276 303l-40 -42h-147l-31 40l40 42h148zM37 -77l-37 -45l-30 45l37 320l37 44l29 -44z" />
<glyph unicode="G" d="M570 741l-40 -42h-148l-31 40l40 42h148zM329 741l-40 -42h-148l-31 40l40 42h148zM89 360l-37 -44l-29 44l36 321l37 44l30 -44zM471 -135l-40 -42h-147l-31 40l40 42h148zM40 -77l-38 -45l-28 45l36 320l37 44l29 -44zM230 -135l-40 -42h-148l-30 40l40 42h147z M521 303l-40 -42h-148l-31 40l40 42h148zM522 -77l-36 -45l-29 45l36 320l37 44l28 -44z" />
<glyph unicode="H" d="M571 360l-37 -44l-28 44l36 323l37 44l29 -44zM522 -77l-37 -45l-29 45l36 320l38 44l28 -44zM89 360l-37 -44l-29 44l36 321l37 44l29 -44zM521 303l-40 -42h-148l-31 40l40 42h148zM279 303l-40 -42h-147l-31 40l40 42h148zM40 -77l-38 -45l-28 45l36 320l37 44l29 -44 z" />
<glyph unicode="I" d="M570 741l-40 -42h-148l-31 40l40 42h148zM330 360l-36 -44l-30 44l37 321l37 44l28 -44zM281 -77l-37 -45l-29 45l36 320l37 44l30 -44zM471 -135l-40 -42h-147l-31 40l40 42h148zM329 741l-40 -42h-148l-31 40l40 42h148zM230 -135l-40 -42h-148l-30 40l40 42h147z" />
<glyph unicode="J" d="M570 741l-40 -42h-148l-31 40l40 42h148zM572 360l-38 -44l-28 44l36 323l37 44l29 -44zM522 -77l-36 -45l-29 45l36 320l37 44l28 -44zM471 -135l-40 -42h-147l-31 40l40 42h148zM40 -77l-38 -45l-28 45l36 320l37 44l29 -44zM230 -135l-40 -42h-148l-30 40l40 42h147z " />
<glyph unicode="K" d="M518 577l-147 -219h-29l9 86l162 240h17zM444 -80h-18l-106 240l10 86h28l98 -220zM89 360l-37 -44l-29 44l36 321l37 44l30 -44zM279 303l-40 -42h-147l-31 40l40 42h148zM40 -77l-38 -45l-28 45l36 320l37 44l29 -44z" />
<glyph unicode="L" d="M92 360l-37 -44l-29 44l36 321l37 44l29 -44zM474 -135l-40 -42h-147l-31 40l40 42h148zM43 -77l-37 -45l-29 45l36 320l37 44l29 -44zM234 -135l-40 -42h-148l-31 40l40 42h147z" />
<glyph unicode="M" d="M571 360l-37 -44l-28 44l36 323l37 44l29 -44zM518 577l-147 -219h-29l9 86l162 240h17zM522 -77l-37 -45l-29 45l36 320l38 44l28 -44zM252 358h-29l-98 219l12 107h17l108 -240zM89 360l-37 -44l-29 44l36 321l37 44l29 -44zM40 -77l-38 -45l-28 45l36 320l37 44 l29 -44z" />
<glyph unicode="N" d="M571 360l-37 -44l-28 44l36 323l37 44l29 -44zM522 -77l-37 -45l-29 45l36 320l38 44l28 -44zM252 358h-29l-98 219l12 107h17l108 -240zM444 -80h-18l-107 240l10 86h29l98 -220zM89 360l-37 -44l-29 44l36 321l37 44l29 -44zM40 -77l-38 -45l-28 45l36 320l37 44 l29 -44z" />
<glyph unicode="O" d="M570 741l-40 -42h-148l-31 40l40 42h148zM329 741l-40 -42h-148l-31 40l40 42h148zM89 360l-37 -44l-29 44l36 321l37 44l30 -44zM471 -135l-40 -42h-147l-31 40l40 42h148zM40 -77l-38 -45l-28 45l36 320l37 44l29 -44zM230 -135l-40 -42h-148l-30 40l40 42h147z M572 360l-38 -44l-28 44l36 323l37 44l29 -44zM522 -77l-36 -45l-29 45l36 320l37 44l28 -44z" />
<glyph unicode="P" d="M566 741l-40 -42h-147l-31 40l40 42h148zM326 741l-40 -42h-148l-31 40l40 42h147zM518 303l-40 -42h-148l-31 40l40 42h147zM86 360l-37 -44l-29 44l36 321l38 44l28 -44zM276 303l-40 -42h-147l-31 40l40 42h148zM37 -77l-37 -45l-30 45l37 320l37 44l29 -44zM569 360 l-38 -44l-29 44l37 323l37 44l29 -44z" />
<glyph unicode="Q" d="M572 360l-38 -44l-28 44l36 323l37 44l29 -44zM522 -77l-36 -45l-29 45l36 320l37 44l28 -44zM570 741l-40 -42h-148l-31 40l40 42h148zM329 741l-40 -42h-148l-31 40l40 42h148zM89 360l-37 -44l-29 44l36 321l37 44l30 -44zM471 -135l-40 -42h-147l-31 40l40 42h148z M40 -77l-38 -45l-28 45l36 320l37 44l29 -44zM230 -135l-40 -42h-148l-30 40l40 42h147zM444 -80h-18l-106 240l10 86h28l98 -220z" />
<glyph unicode="R" d="M569 360l-38 -44l-29 44l37 323l37 44l29 -44zM566 741l-40 -42h-147l-31 40l40 42h148zM326 741l-40 -42h-148l-31 40l40 42h147zM518 303l-40 -42h-148l-31 40l40 42h147zM86 360l-37 -44l-29 44l36 321l38 44l28 -44zM276 303l-40 -42h-147l-31 40l40 42h148zM37 -77 l-37 -45l-30 45l37 320l37 44l29 -44zM442 -80h-18l-107 240l9 86h29l99 -220z" />
<glyph unicode="S" d="M521 303l-40 -42h-148l-31 40l40 42h148zM279 303l-40 -42h-147l-31 40l40 42h148zM570 741l-40 -42h-148l-31 40l40 42h148zM329 741l-40 -42h-148l-31 40l40 42h148zM522 -77l-36 -45l-29 45l36 320l37 44l28 -44zM89 360l-37 -44l-29 44l36 321l37 44l30 -44z M471 -135l-40 -42h-147l-31 40l40 42h148zM230 -135l-40 -42h-148l-30 40l40 42h147z" />
<glyph unicode="T" d="M566 741l-40 -42h-147l-31 40l40 42h148zM326 741l-40 -42h-148l-31 40l40 42h147zM327 360l-37 -44l-28 44l36 321l36 44l29 -44zM278 -77l-37 -45l-29 45l36 320l38 44l28 -44z" />
<glyph unicode="U" d="M574 360l-36 -44l-29 44l36 323l37 44l29 -44zM526 -77l-38 -45l-29 45l36 320l38 44l29 -44zM92 360l-37 -44l-29 44l36 321l37 44l29 -44zM474 -135l-40 -42h-148l-30 40l40 42h148zM43 -77l-37 -45l-29 45l36 320l37 44l29 -44zM233 -135l-40 -42h-147l-31 40l39 42 h148z" />
<glyph unicode="V" d="M569 360l-37 -44l-29 44l36 323l38 44l29 -44zM469 160l-161 -240h-18l12 106l148 220h28zM86 360l-36 -44l-29 44l36 321l37 44l28 -44zM201 -80h-18l-107 240l10 86h28l99 -220z" />
<glyph unicode="W" d="M571 360l-37 -44l-28 44l36 323l37 44l29 -44zM522 -77l-37 -45l-29 45l36 320l38 44l28 -44zM444 -80h-18l-107 240l10 86h29l98 -220zM89 360l-37 -44l-29 44l36 321l37 44l29 -44zM230 160l-161 -240h-18l12 106l147 220h30zM40 -77l-38 -45l-28 45l36 320l37 44 l29 -44z" />
<glyph unicode="X" d="M252 358h-29l-97 219l12 107h17l107 -240zM444 -80h-18l-106 240l10 86h28l98 -220zM518 577l-147 -219h-29l9 86l162 240h17zM230 160l-161 -240h-18l12 106l147 220h30z" />
<glyph unicode="Y" d="M521 577l-147 -219h-30l10 86l161 240h18zM254 358h-28l-98 219l11 107h18l107 -240zM283 -77l-37 -45l-28 45l36 320l36 44l29 -44z" />
<glyph unicode="Z" d="M518 577l-147 -219h-29l9 86l162 240h17zM230 160l-161 -240h-18l12 106l147 220h30zM570 741l-40 -42h-148l-31 40l40 42h148zM329 741l-40 -42h-148l-31 40l40 42h148zM471 -135l-40 -42h-147l-31 40l40 42h148zM230 -135l-40 -42h-148l-30 40l40 42h147z" />
<glyph unicode="[" d="M330 360l-36 -44l-30 44l37 321l37 44l28 -44zM281 -77l-37 -45l-29 45l36 320l37 44l30 -44zM570 741l-40 -42h-148l-31 40l40 42h148zM471 -135l-40 -42h-147l-31 40l40 42h148z" />
<glyph unicode="\" d="M252 358h-29l-97 219l12 107h17l107 -240zM444 -80h-18l-106 240l10 86h28l98 -220z" />
<glyph unicode="]" d="M330 360l-36 -44l-30 44l37 321l37 44l28 -44zM281 -77l-37 -45l-29 45l36 320l37 44l30 -44zM329 741l-40 -42h-148l-31 40l40 42h148zM230 -135l-40 -42h-148l-30 40l40 42h147z" />
<glyph unicode="^" d="M469 358h-29l-98 219l12 107h17l107 -240zM253 577l-148 -219h-29l10 86l160 240h18z" />
<glyph unicode="_" d="M521 -135l-40 -42h-148l-31 40l40 42h148zM279 -135l-40 -42h-147l-31 40l40 42h148z" />
<glyph unicode="`" d="M228 358h-30l-97 219l12 107h17l108 -240z" />
<glyph unicode="a" d="M496 358h-30l-97 219l12 107h17l108 -240zM523 303l-40 -42h-148l-30 40l40 42h147zM525 -77l-37 -45l-30 45l37 320l37 44l29 -44zM279 577l-147 -219h-29l10 86l161 240h17zM282 303l-40 -42h-148l-31 40l40 42h148zM42 -77l-37 -45l-29 45l36 320l38 44l28 -44z" />
<glyph unicode="b" d="M570 741l-40 -42h-148l-31 40l40 42h148zM572 360l-38 -44l-28 44l36 323l37 44l29 -44zM329 741l-40 -42h-148l-31 40l40 42h148zM471 -135l-40 -42h-147l-31 40l40 42h148zM40 -77l-38 -45l-28 45l36 320l37 44l29 -44zM230 -135l-40 -42h-148l-30 40l40 42h147z M521 303l-40 -42h-148l-31 40l40 42h148zM279 303l-40 -42h-147l-31 40l40 42h148zM522 -77l-36 -45l-29 45l36 320l37 44l28 -44zM89 360l-37 -44l-29 44l36 321l37 44l30 -44z" />
<glyph unicode="c" d="M570 741l-40 -42h-148l-31 40l40 42h148zM329 741l-40 -42h-148l-31 40l40 42h148zM89 360l-37 -44l-29 44l36 321l37 44l30 -44zM471 -135l-40 -42h-147l-31 40l40 42h148zM40 -77l-38 -45l-28 45l36 320l37 44l29 -44zM230 -135l-40 -42h-148l-30 40l40 42h147z" />
<glyph unicode="d" d="M494 358h-29l-99 219l12 107h18l107 -240zM329 741l-40 -42h-148l-31 40l40 42h148zM471 160l-161 -240h-17l12 106l147 220h29zM89 360l-37 -44l-29 44l36 321l37 44l30 -44zM40 -77l-38 -45l-28 45l36 320l37 44l29 -44zM230 -135l-40 -42h-148l-30 40l40 42h147z" />
<glyph unicode="e" d="M570 741l-40 -42h-148l-31 40l40 42h148zM329 741l-40 -42h-148l-31 40l40 42h148zM89 360l-37 -44l-29 44l36 321l37 44l30 -44zM471 -135l-40 -42h-147l-31 40l40 42h148zM40 -77l-38 -45l-28 45l36 320l37 44l29 -44zM230 -135l-40 -42h-148l-30 40l40 42h147z M521 303l-40 -42h-148l-31 40l40 42h148zM279 303l-40 -42h-147l-31 40l40 42h148z" />
<glyph unicode="f" d="M566 741l-40 -42h-147l-31 40l40 42h148zM326 741l-40 -42h-148l-31 40l40 42h147zM518 303l-40 -42h-148l-31 40l40 42h147zM86 360l-37 -44l-29 44l36 321l38 44l28 -44zM276 303l-40 -42h-147l-31 40l40 42h148zM37 -77l-37 -45l-30 45l37 320l37 44l29 -44z" />
<glyph unicode="g" d="M570 741l-40 -42h-148l-31 40l40 42h148zM329 741l-40 -42h-148l-31 40l40 42h148zM89 360l-37 -44l-29 44l36 321l37 44l30 -44zM471 -135l-40 -42h-147l-31 40l40 42h148zM40 -77l-38 -45l-28 45l36 320l37 44l29 -44zM230 -135l-40 -42h-148l-30 40l40 42h147z M521 303l-40 -42h-148l-31 40l40 42h148zM522 -77l-36 -45l-29 45l36 320l37 44l28 -44z" />
<glyph unicode="h" d="M571 360l-37 -44l-28 44l36 323l37 44l29 -44zM522 -77l-37 -45l-29 45l36 320l38 44l28 -44zM89 360l-37 -44l-29 44l36 321l37 44l29 -44zM521 303l-40 -42h-148l-31 40l40 42h148zM279 303l-40 -42h-147l-31 40l40 42h148zM40 -77l-38 -45l-28 45l36 320l37 44l29 -44 z" />
<glyph unicode="i" d="M570 741l-40 -42h-148l-31 40l40 42h148zM330 360l-36 -44l-30 44l37 321l37 44l28 -44zM281 -77l-37 -45l-29 45l36 320l37 44l30 -44zM471 -135l-40 -42h-147l-31 40l40 42h148zM329 741l-40 -42h-148l-31 40l40 42h148zM230 -135l-40 -42h-148l-30 40l40 42h147z" />
<glyph unicode="j" d="M570 741l-40 -42h-148l-31 40l40 42h148zM572 360l-38 -44l-28 44l36 323l37 44l29 -44zM522 -77l-36 -45l-29 45l36 320l37 44l28 -44zM471 -135l-40 -42h-147l-31 40l40 42h148zM40 -77l-38 -45l-28 45l36 320l37 44l29 -44zM230 -135l-40 -42h-148l-30 40l40 42h147z " />
<glyph unicode="k" d="M518 577l-147 -219h-29l9 86l162 240h17zM444 -80h-18l-106 240l10 86h28l98 -220zM89 360l-37 -44l-29 44l36 321l37 44l30 -44zM279 303l-40 -42h-147l-31 40l40 42h148zM40 -77l-38 -45l-28 45l36 320l37 44l29 -44z" />
<glyph unicode="l" d="M92 360l-37 -44l-29 44l36 321l37 44l29 -44zM474 -135l-40 -42h-147l-31 40l40 42h148zM43 -77l-37 -45l-29 45l36 320l37 44l29 -44zM234 -135l-40 -42h-148l-31 40l40 42h147z" />
<glyph unicode="m" d="M571 360l-37 -44l-28 44l36 323l37 44l29 -44zM518 577l-147 -219h-29l9 86l162 240h17zM522 -77l-37 -45l-29 45l36 320l38 44l28 -44zM252 358h-29l-98 219l12 107h17l108 -240zM89 360l-37 -44l-29 44l36 321l37 44l29 -44zM40 -77l-38 -45l-28 45l36 320l37 44 l29 -44z" />
<glyph unicode="n" d="M571 360l-37 -44l-28 44l36 323l37 44l29 -44zM522 -77l-37 -45l-29 45l36 320l38 44l28 -44zM252 358h-29l-98 219l12 107h17l108 -240zM444 -80h-18l-107 240l10 86h29l98 -220zM89 360l-37 -44l-29 44l36 321l37 44l29 -44zM40 -77l-38 -45l-28 45l36 320l37 44 l29 -44z" />
<glyph unicode="o" d="M570 741l-40 -42h-148l-31 40l40 42h148zM329 741l-40 -42h-148l-31 40l40 42h148zM89 360l-37 -44l-29 44l36 321l37 44l30 -44zM471 -135l-40 -42h-147l-31 40l40 42h148zM40 -77l-38 -45l-28 45l36 320l37 44l29 -44zM230 -135l-40 -42h-148l-30 40l40 42h147z M572 360l-38 -44l-28 44l36 323l37 44l29 -44zM522 -77l-36 -45l-29 45l36 320l37 44l28 -44z" />
<glyph unicode="p" d="M566 741l-40 -42h-147l-31 40l40 42h148zM326 741l-40 -42h-148l-31 40l40 42h147zM518 303l-40 -42h-148l-31 40l40 42h147zM86 360l-37 -44l-29 44l36 321l38 44l28 -44zM276 303l-40 -42h-147l-31 40l40 42h148zM37 -77l-37 -45l-30 45l37 320l37 44l29 -44zM569 360 l-38 -44l-29 44l37 323l37 44l29 -44z" />
<glyph unicode="q" d="M572 360l-38 -44l-28 44l36 323l37 44l29 -44zM522 -77l-36 -45l-29 45l36 320l37 44l28 -44zM570 741l-40 -42h-148l-31 40l40 42h148zM329 741l-40 -42h-148l-31 40l40 42h148zM89 360l-37 -44l-29 44l36 321l37 44l30 -44zM471 -135l-40 -42h-147l-31 40l40 42h148z M40 -77l-38 -45l-28 45l36 320l37 44l29 -44zM230 -135l-40 -42h-148l-30 40l40 42h147zM444 -80h-18l-106 240l10 86h28l98 -220z" />
<glyph unicode="r" d="M569 360l-38 -44l-29 44l37 323l37 44l29 -44zM566 741l-40 -42h-147l-31 40l40 42h148zM326 741l-40 -42h-148l-31 40l40 42h147zM518 303l-40 -42h-148l-31 40l40 42h147zM86 360l-37 -44l-29 44l36 321l38 44l28 -44zM276 303l-40 -42h-147l-31 40l40 42h148zM37 -77 l-37 -45l-30 45l37 320l37 44l29 -44zM442 -80h-18l-107 240l9 86h29l99 -220z" />
<glyph unicode="s" d="M521 303l-40 -42h-148l-31 40l40 42h148zM279 303l-40 -42h-147l-31 40l40 42h148zM570 741l-40 -42h-148l-31 40l40 42h148zM329 741l-40 -42h-148l-31 40l40 42h148zM522 -77l-36 -45l-29 45l36 320l37 44l28 -44zM89 360l-37 -44l-29 44l36 321l37 44l30 -44z M471 -135l-40 -42h-147l-31 40l40 42h148zM230 -135l-40 -42h-148l-30 40l40 42h147z" />
<glyph unicode="t" d="M566 741l-40 -42h-147l-31 40l40 42h148zM326 741l-40 -42h-148l-31 40l40 42h147zM327 360l-37 -44l-28 44l36 321l36 44l29 -44zM278 -77l-37 -45l-29 45l36 320l38 44l28 -44z" />
<glyph unicode="u" d="M574 360l-36 -44l-29 44l36 323l37 44l29 -44zM526 -77l-38 -45l-29 45l36 320l38 44l29 -44zM92 360l-37 -44l-29 44l36 321l37 44l29 -44zM474 -135l-40 -42h-148l-30 40l40 42h148zM43 -77l-37 -45l-29 45l36 320l37 44l29 -44zM233 -135l-40 -42h-147l-31 40l39 42 h148z" />
<glyph unicode="v" d="M569 360l-37 -44l-29 44l36 323l38 44l29 -44zM469 160l-161 -240h-18l12 106l148 220h28zM86 360l-36 -44l-29 44l36 321l37 44l28 -44zM201 -80h-18l-107 240l10 86h28l99 -220z" />
<glyph unicode="w" d="M571 360l-37 -44l-28 44l36 323l37 44l29 -44zM522 -77l-37 -45l-29 45l36 320l38 44l28 -44zM444 -80h-18l-107 240l10 86h29l98 -220zM89 360l-37 -44l-29 44l36 321l37 44l29 -44zM230 160l-161 -240h-18l12 106l147 220h30zM40 -77l-38 -45l-28 45l36 320l37 44 l29 -44z" />
<glyph unicode="x" d="M252 358h-29l-97 219l12 107h17l107 -240zM444 -80h-18l-106 240l10 86h28l98 -220zM518 577l-147 -219h-29l9 86l162 240h17zM230 160l-161 -240h-18l12 106l147 220h30z" />
<glyph unicode="y" d="M521 577l-147 -219h-30l10 86l161 240h18zM254 358h-28l-98 219l11 107h18l107 -240zM283 -77l-37 -45l-28 45l36 320l36 44l29 -44z" />
<glyph unicode="z" d="M518 577l-147 -219h-29l9 86l162 240h17zM230 160l-161 -240h-18l12 106l147 220h30zM570 741l-40 -42h-148l-31 40l40 42h148zM329 741l-40 -42h-148l-31 40l40 42h148zM471 -135l-40 -42h-147l-31 40l40 42h148zM230 -135l-40 -42h-148l-30 40l40 42h147z" />
<glyph unicode="{" d="M570 741l-40 -42h-148l-31 40l40 42h148zM330 360l-36 -44l-30 44l37 321l37 44l28 -44zM281 -77l-37 -45l-29 45l36 320l37 44l30 -44zM471 -135l-40 -42h-147l-31 40l40 42h148zM279 303l-40 -42h-147l-31 40l40 42h148z" />
<glyph unicode="|" d="M330 360l-36 -44l-30 44l37 321l37 44l28 -44zM281 -77l-37 -45l-29 45l36 320l37 44l30 -44z" />
<glyph unicode="}" d="M329 741l-40 -42h-148l-31 40l40 42h148zM330 360l-36 -44l-30 44l37 321l37 44l28 -44zM281 -77l-37 -45l-29 45l36 320l37 44l30 -44zM230 -135l-40 -42h-148l-30 40l40 42h147zM521 303l-40 -42h-148l-31 40l40 42h148z" />
<glyph unicode="&#xa0;" />
<glyph unicode="&#xad;" d="M521 303l-40 -42h-148l-31 40l40 42h148zM279 303l-40 -42h-147l-31 40l40 42h148z" />
<glyph unicode="&#x2000;" horiz-adv-x="400" />
<glyph unicode="&#x2001;" horiz-adv-x="800" />
<glyph unicode="&#x2002;" horiz-adv-x="400" />
<glyph unicode="&#x2003;" horiz-adv-x="800" />
<glyph unicode="&#x2004;" horiz-adv-x="266" />
<glyph unicode="&#x2005;" horiz-adv-x="200" />
<glyph unicode="&#x2006;" horiz-adv-x="133" />
<glyph unicode="&#x2007;" horiz-adv-x="133" />
<glyph unicode="&#x2008;" horiz-adv-x="100" />
<glyph unicode="&#x2009;" horiz-adv-x="160" />
<glyph unicode="&#x200a;" horiz-adv-x="44" />
<glyph unicode="&#x2011;" d="M521 303l-40 -42h-148l-31 40l40 42h148zM279 303l-40 -42h-147l-31 40l40 42h148z" />
<glyph unicode="&#x2013;" horiz-adv-x="500" d="M100 250v100h300v-100h-300z" />
<glyph unicode="&#x2014;" horiz-adv-x="1000" d="M100 250v100h800v-100h-800z" />
<glyph unicode="&#x2018;" d="M228 358h-30l-97 219l12 107h17l108 -240z" />
<glyph unicode="&#x2019;" d="M317 560l-37 -44l-29 44l14 121l37 44l28 -44z" />
<glyph unicode="&#x201c;" d="M317 560l-37 -44l-29 44l14 121l37 44l28 -44zM76 560l-38 -44l-28 44l13 121l38 44l29 -44z" />
<glyph unicode="&#x201d;" d="M317 560l-37 -44l-29 44l14 121l37 44l28 -44zM76 560l-38 -44l-28 44l13 121l38 44l29 -44z" />
<glyph unicode="&#x2026;" horiz-adv-x="1920" d="M1629 -104q-3 -27 -22 -50t-45 -23q-25 0 -39 25q-13 22 -10 48q3 28 21 49.5t45 21.5t40 -21.5t10 -49.5zM989 -104q-3 -27 -22 -50t-45 -23q-25 0 -39 25q-13 22 -10 48q3 28 21 49.5t45 21.5t40 -21.5t10 -49.5zM349 -104q-3 -27 -22 -50t-45 -23q-25 0 -39 25 q-13 22 -10 48q3 28 21 49.5t45 21.5t40 -21.5t10 -49.5z" />
<glyph unicode="&#x202f;" horiz-adv-x="160" />
<glyph unicode="&#x205f;" horiz-adv-x="200" />
<glyph unicode="&#x2122;" horiz-adv-x="1280" d="M1211 360l-37 -44l-28 44l36 323l37 44l29 -44zM1158 577l-147 -219h-29l9 86l162 240h17zM1162 -77l-37 -45l-29 45l36 320l38 44l28 -44zM892 358h-29l-98 219l12 107h17l108 -240zM729 360l-37 -44l-29 44l36 321l37 44l29 -44zM680 -77l-38 -45l-28 45l36 320l37 44 l29 -44zM566 741l-40 -42h-147l-31 40l40 42h148zM326 741l-40 -42h-148l-31 40l40 42h147zM327 360l-37 -44l-28 44l36 321l36 44l29 -44zM278 -77l-37 -45l-29 45l36 320l38 44l28 -44z" />
</font>
</defs>
</svg>
