<?xml version="1.0" encoding="UTF-8" standalone="no"?>
<!-- Created with Inkscape (http://www.inkscape.org/) -->

<svg
   xmlns:dc="http://purl.org/dc/elements/1.1/"
   xmlns:cc="http://creativecommons.org/ns#"
   xmlns:rdf="http://www.w3.org/1999/02/22-rdf-syntax-ns#"
   xmlns:svg="http://www.w3.org/2000/svg"
   xmlns="http://www.w3.org/2000/svg"
   xmlns:sodipodi="http://sodipodi.sourceforge.net/DTD/sodipodi-0.dtd"
   xmlns:inkscape="http://www.inkscape.org/namespaces/inkscape"
   version="1.1"
   width="95.805695"
   height="61.800041"
   id="svg3888"
   inkscape:version="0.47 r22583"
   sodipodi:docname="hs.svg">
  <metadata
     id="metadata10">
    <rdf:RDF>
      <cc:Work
         rdf:about="">
        <dc:format>image/svg+xml</dc:format>
        <dc:type
           rdf:resource="http://purl.org/dc/dcmitype/StillImage" />
      </cc:Work>
    </rdf:RDF>
  </metadata>
  <sodipodi:namedview
     pagecolor="#ffffff"
     bordercolor="#666666"
     borderopacity="1"
     objecttolerance="10"
     gridtolerance="10"
     guidetolerance="10"
     inkscape:pageopacity="0"
     inkscape:pageshadow="2"
     inkscape:window-width="650"
     inkscape:window-height="497"
     id="namedview8"
     showgrid="false"
     inkscape:zoom="3.8187677"
     inkscape:cx="47.902847"
     inkscape:cy="30.900021"
     inkscape:window-x="535"
     inkscape:window-y="308"
     inkscape:window-maximized="0"
     inkscape:current-layer="svg3888" />
  <defs
     id="defs3890">
    <inkscape:perspective
       sodipodi:type="inkscape:persp3d"
       inkscape:vp_x="0 : 30.900021 : 1"
       inkscape:vp_y="0 : 1000 : 0"
       inkscape:vp_z="95.805695 : 30.900021 : 1"
       inkscape:persp3d-origin="47.902847 : 20.600014 : 1"
       id="perspective12" />
  </defs>
  <path
     style="fill:none;stroke:#a7a9ab;stroke-width:3.62548351;stroke-miterlimit:4;stroke-opacity:1"
     d="m 16.025195,1.8127424 63.755308,0 c 7.873699,0 14.212453,6.4552819 14.212453,14.4737266 l 0,29.227104 c 0,8.018444 -6.338754,14.473726 -14.212453,14.473726 l -63.755308,0 c -7.8736994,0 -14.2124534,-6.455282 -14.2124534,-14.473726 l 0,-29.227104 c 0,-8.0184447 6.338754,-14.4737266 14.2124534,-14.4737266 z"
     id="rect2816-1-4" />
  <g
     style="font-size:40px;font-style:normal;font-weight:normal;line-height:125%;fill:#a7a9ab;fill-opacity:1;stroke:none;font-family:Bitstream Vera Sans"
     id="text3590-7-8">
    <path
       d="m 48.116422,53.451721 c -3.9e-5,0.187501 -0.04691,0.351563 -0.140625,0.492188 -0.09379,0.140625 -0.257851,0.251953 -0.492188,0.333984 -0.234413,0.08203 -0.544959,0.152344 -0.93164,0.210938 -0.386756,0.05859 -0.861365,0.08789 -1.423829,0.08789 -0.60941,0 -1.101597,-0.0293 -1.476562,-0.08789 -0.375034,-0.05859 -0.679721,-0.128907 -0.914063,-0.210938 -0.234408,-0.08203 -0.39847,-0.193359 -0.492187,-0.333984 -0.09378,-0.140625 -0.140658,-0.304687 -0.140625,-0.492188 l 0,-20.179687 -20.707031,0 0,20.179687 c -1.2e-5,0.187501 -0.04689,0.351563 -0.140625,0.492188 -0.09376,0.140625 -0.257824,0.251953 -0.492188,0.333984 -0.234386,0.08203 -0.544933,0.152344 -0.93164,0.210938 -0.386729,0.05859 -0.873057,0.08789 -1.458985,0.08789 -0.562508,0 -1.042977,-0.0293 -1.441406,-0.08789 -0.398445,-0.05859 -0.714851,-0.128907 -0.949219,-0.210938 -0.234381,-0.08203 -0.398444,-0.193359 -0.492187,-0.333984 -0.09376,-0.140625 -0.140631,-0.304687 -0.140625,-0.492188 l 0,-43.6640623 c -6e-6,-0.1874552 0.04687,-0.3515176 0.140625,-0.4921875 0.09374,-0.1405798 0.257806,-0.2519078 0.492187,-0.3339844 0.234368,-0.081986 0.550774,-0.1522982 0.949219,-0.2109375 0.398429,-0.058548 0.878898,-0.087845 1.441406,-0.087891 0.585928,4.57e-5 1.072256,0.029343 1.458985,0.087891 0.386707,0.058639 0.697254,0.1289518 0.93164,0.2109375 0.234364,0.082077 0.398426,0.1934046 0.492188,0.3339844 0.09374,0.1406699 0.140613,0.3047323 0.140625,0.4921875 l 0,18.2109373 20.707031,0 0,-18.2109373 c -3.3e-5,-0.1874552 0.04684,-0.3515176 0.140625,-0.4921875 0.09372,-0.1405798 0.257779,-0.2519078 0.492187,-0.3339844 0.234342,-0.081986 0.539029,-0.1522982 0.914063,-0.2109375 0.374965,-0.058548 0.867152,-0.087845 1.476562,-0.087891 0.562464,4.57e-5 1.037073,0.029343 1.423829,0.087891 0.386681,0.058639 0.697227,0.1289518 0.93164,0.2109375 0.234337,0.082077 0.398399,0.1934046 0.492188,0.3339844 0.09371,0.1406699 0.140586,0.3047323 0.140625,0.4921875 z"
       style="font-size:72px;font-variant:normal;font-stretch:normal;text-align:start;line-height:125%;writing-mode:lr-tb;text-anchor:start;fill:#a7a9ab;font-family:Calibri;-inkscape-font-specification:Calibri"
       id="path2822" />
    <path
       d="m 84.643765,41.604065 c -3e-5,2.132823 -0.392608,4.031259 -1.177734,5.695312 -0.785185,1.664068 -1.875027,3.076176 -3.269531,4.236329 -1.394556,1.160157 -3.035179,2.033203 -4.921875,2.61914 -1.886738,0.585937 -3.919939,0.878906 -6.09961,0.878906 -1.523451,0 -2.935559,-0.128906 -4.236328,-0.386718 -1.30079,-0.257813 -2.460945,-0.574219 -3.480468,-0.949219 -1.019538,-0.374999 -1.875006,-0.761717 -2.566407,-1.160156 -0.69141,-0.398436 -1.171878,-0.738279 -1.441406,-1.019532 -0.269534,-0.281246 -0.468753,-0.638668 -0.597656,-1.072265 -0.128909,-0.43359 -0.193362,-1.013667 -0.19336,-1.740235 -2e-6,-0.515618 0.02343,-0.943352 0.07031,-1.283203 0.04687,-0.339836 0.117185,-0.615227 0.210937,-0.826172 0.09375,-0.210929 0.210935,-0.357413 0.351563,-0.439453 0.140622,-0.08202 0.304684,-0.123038 0.492187,-0.123047 0.328122,9e-6 0.791012,0.199227 1.388672,0.597657 0.597651,0.398445 1.365228,0.832038 2.302735,1.300781 0.937491,0.468756 2.06835,0.908209 3.392578,1.318359 1.324207,0.410161 2.853502,0.615239 4.58789,0.615235 1.312484,4e-6 2.513655,-0.175777 3.603516,-0.527344 1.089824,-0.351557 2.027323,-0.849604 2.8125,-1.494141 0.785134,-0.644524 1.388649,-1.435539 1.810547,-2.373047 0.421851,-0.93749 0.632788,-2.003895 0.632812,-3.199218 -2.4e-5,-1.289049 -0.292992,-2.390611 -0.878906,-3.304688 -0.58596,-0.914046 -1.359397,-1.71678 -2.320312,-2.408203 -0.960958,-0.691388 -2.05666,-1.3242 -3.28711,-1.898437 -1.230485,-0.574199 -2.490249,-1.160136 -3.779297,-1.757813 -1.289075,-0.597634 -2.54298,-1.259743 -3.761718,-1.986328 -1.218759,-0.726538 -2.308602,-1.582006 -3.269532,-2.566406 -0.960943,-0.984348 -1.740239,-2.138644 -2.33789,-3.462891 -0.59766,-1.324188 -0.896488,-2.912077 -0.896485,-4.763672 -3e-6,-1.898401 0.3457,-3.591759 1.03711,-5.080078 0.691401,-1.48824 1.652337,-2.736286 2.882812,-3.744141 1.23046,-1.007768 2.695303,-1.7753453 4.394532,-2.3027339 1.699205,-0.5272979 3.533187,-0.7909695 5.501953,-0.7910157 1.007794,4.62e-5 2.021465,0.087937 3.041015,0.2636719 1.01951,0.175827 1.980447,0.4102018 2.882813,0.703125 0.902319,0.2930137 1.705053,0.6211383 2.408203,0.9843747 0.703098,0.363325 1.165989,0.656294 1.388672,0.878907 0.222629,0.222699 0.369113,0.39848 0.439453,0.527343 0.07028,0.128949 0.128878,0.293012 0.175781,0.492188 0.04685,0.199261 0.082,0.439495 0.105469,0.720703 0.02341,0.281291 0.03513,0.644572 0.03516,1.089844 -2.8e-5,0.421915 -0.01761,0.796914 -0.05273,1.125 -0.03518,0.328164 -0.08792,0.603554 -0.158203,0.826172 -0.07034,0.222694 -0.16995,0.386756 -0.298828,0.492187 -0.128934,0.105507 -0.275418,0.158241 -0.439454,0.158203 -0.257839,3.8e-5 -0.662135,-0.164024 -1.21289,-0.492187 -0.550807,-0.328087 -1.224634,-0.697227 -2.021485,-1.107422 -0.796897,-0.410117 -1.740256,-0.785116 -2.830078,-1.125 -1.089863,-0.339803 -2.314471,-0.509725 -3.673828,-0.509766 -1.265641,4.1e-5 -2.367202,0.169963 -3.304687,0.509766 -0.937513,0.339884 -1.71095,0.791055 -2.320313,1.353515 -0.609386,0.562539 -1.066417,1.230507 -1.371094,2.003907 -0.304697,0.773474 -0.457041,1.593785 -0.457031,2.460937 -1e-5,1.265659 0.292959,2.355501 0.878906,3.269531 0.585927,0.914094 1.365223,1.722687 2.337891,2.425782 0.972642,0.703153 2.080063,1.347684 3.322266,1.933593 1.24217,0.585965 2.507793,1.177761 3.796875,1.775391 1.289041,0.597681 2.554665,1.25393 3.796875,1.96875 1.242162,0.714867 2.349583,1.558616 3.322265,2.53125 0.972628,0.972676 1.757784,2.121113 2.355469,3.445313 0.597626,1.324234 0.896454,2.888686 0.896484,4.693359 z"
       style="font-size:72px;font-variant:normal;font-stretch:normal;text-align:start;line-height:125%;writing-mode:lr-tb;text-anchor:start;fill:#a7a9ab;font-family:Calibri;-inkscape-font-specification:Calibri"
       id="path2824" />
  </g>
</svg>
