<?xml version="1.0" encoding="UTF-8" standalone="no"?>
<!-- Created with Inkscape (http://www.inkscape.org/) -->

<svg
   xmlns:dc="http://purl.org/dc/elements/1.1/"
   xmlns:cc="http://creativecommons.org/ns#"
   xmlns:rdf="http://www.w3.org/1999/02/22-rdf-syntax-ns#"
   xmlns:svg="http://www.w3.org/2000/svg"
   xmlns="http://www.w3.org/2000/svg"
   xmlns:sodipodi="http://sodipodi.sourceforge.net/DTD/sodipodi-0.dtd"
   xmlns:inkscape="http://www.inkscape.org/namespaces/inkscape"
   version="1.1"
   width="95.805695"
   height="61.800041"
   id="svg3685"
   inkscape:version="0.47 r22583"
   sodipodi:docname="ic.svg">
  <metadata
     id="metadata10">
    <rdf:RDF>
      <cc:Work
         rdf:about="">
        <dc:format>image/svg+xml</dc:format>
        <dc:type
           rdf:resource="http://purl.org/dc/dcmitype/StillImage" />
      </cc:Work>
    </rdf:RDF>
  </metadata>
  <sodipodi:namedview
     pagecolor="#ffffff"
     bordercolor="#666666"
     borderopacity="1"
     objecttolerance="10"
     gridtolerance="10"
     guidetolerance="10"
     inkscape:pageopacity="0"
     inkscape:pageshadow="2"
     inkscape:window-width="655"
     inkscape:window-height="515"
     id="namedview8"
     showgrid="false"
     inkscape:zoom="3.8187677"
     inkscape:cx="47.902847"
     inkscape:cy="30.900021"
     inkscape:window-x="2175"
     inkscape:window-y="381"
     inkscape:window-maximized="0"
     inkscape:current-layer="svg3685" />
  <defs
     id="defs3687">
    <inkscape:perspective
       sodipodi:type="inkscape:persp3d"
       inkscape:vp_x="0 : 30.900021 : 1"
       inkscape:vp_y="0 : 1000 : 0"
       inkscape:vp_z="95.805695 : 30.900021 : 1"
       inkscape:persp3d-origin="47.902847 : 20.600014 : 1"
       id="perspective12" />
  </defs>
  <rect
     style="fill:none;stroke:#a7a9ab;stroke-width:3.62548351;stroke-miterlimit:4;stroke-opacity:1;stroke-dasharray:none"
     id="rect2816"
     y="1.8127367"
     x="1.8127388"
     ry="14.473726"
     rx="14.212453"
     height="58.174557"
     width="92.180214" />
  <g
     style="font-size:40px;font-style:normal;font-weight:normal;line-height:125%;fill:#a7a9ab;fill-opacity:1;stroke:none;font-family:Bitstream Vera Sans"
     id="text3590">
    <path
       d="m 30.901087,52.395744 c -1.2e-5,0.187501 -0.04689,0.351563 -0.140625,0.492188 -0.09376,0.140625 -0.257824,0.251953 -0.492188,0.333984 -0.234386,0.08203 -0.544932,0.152344 -0.93164,0.210938 -0.386729,0.05859 -0.873057,0.08789 -1.458985,0.08789 -0.562508,0 -1.042976,-0.0293 -1.441406,-0.08789 -0.398445,-0.05859 -0.714851,-0.128907 -0.949219,-0.210938 -0.234381,-0.08203 -0.398443,-0.193359 -0.492187,-0.333984 -0.09376,-0.140625 -0.140631,-0.304687 -0.140625,-0.492188 l 0,-43.6640622 c -6e-6,-0.1874552 0.05273,-0.3515175 0.158203,-0.4921875 0.105462,-0.1405798 0.281243,-0.2519078 0.527344,-0.3339844 0.246086,-0.081986 0.562492,-0.1522981 0.949218,-0.2109375 0.386711,-0.058548 0.849601,-0.087845 1.388672,-0.087891 0.585928,4.57e-5 1.072256,0.029343 1.458985,0.087891 0.386708,0.058639 0.697254,0.1289518 0.93164,0.2109375 0.234364,0.082077 0.398426,0.1934046 0.492188,0.3339844 0.09374,0.14067 0.140613,0.3047323 0.140625,0.4921875 z"
       style="font-size:72px;font-variant:normal;font-stretch:normal;text-align:start;line-height:125%;writing-mode:lr-tb;text-anchor:start;fill:#a7a9ab;font-family:Calibri;-inkscape-font-specification:Calibri"
       id="path2822" />
    <path
       d="m 73.369837,46.876213 c -3.7e-5,0.375006 -0.01176,0.703131 -0.03516,0.984375 -0.02347,0.281255 -0.06449,0.527349 -0.123047,0.738281 -0.05863,0.210942 -0.134802,0.398442 -0.228516,0.5625 -0.09379,0.164067 -0.257848,0.363285 -0.492187,0.597657 -0.234411,0.234378 -0.726598,0.591799 -1.476563,1.072265 -0.750033,0.480471 -1.681673,0.94922 -2.794922,1.40625 -1.113311,0.457032 -2.390654,0.84375 -3.832031,1.160156 -1.441432,0.316406 -3.017603,0.474609 -4.728516,0.47461 -2.953144,-10e-7 -5.619157,-0.492188 -7.998047,-1.476563 -2.378918,-0.984373 -4.40626,-2.437496 -6.082031,-4.359375 -1.675788,-1.921867 -2.964849,-4.294912 -3.867187,-7.11914 -0.902348,-2.824204 -1.353519,-6.076154 -1.353516,-9.75586 -3e-6,-3.773411 0.486324,-7.136689 1.458984,-10.089843 0.972651,-2.95309 2.337884,-5.455041 4.095704,-7.50586 1.757801,-2.050739 3.861315,-3.6151908 6.310546,-4.6933592 2.449201,-1.0780795 5.162089,-1.6171414 8.138672,-1.6171875 1.312476,4.61e-5 2.589818,0.1230928 3.832032,0.3691406 1.242159,0.2461392 2.390595,0.5566858 3.445312,0.9316407 1.054656,0.3750444 1.992155,0.8086377 2.8125,1.3007812 0.820278,0.4922302 1.388637,0.8965272 1.705078,1.2128902 0.316371,0.316449 0.521449,0.556683 0.615235,0.720704 0.09371,0.164103 0.169885,0.357463 0.228515,0.580078 0.05856,0.222697 0.105433,0.486368 0.140625,0.791015 0.03512,0.304728 0.0527,0.668009 0.05273,1.089844 -3.7e-5,0.468789 -0.02347,0.867226 -0.07031,1.195313 -0.04691,0.328162 -0.117224,0.603552 -0.210937,0.826171 -0.09379,0.222694 -0.205114,0.386756 -0.333985,0.492188 -0.128942,0.105505 -0.287145,0.158239 -0.474609,0.158203 -0.32816,3.6e-5 -0.785191,-0.228479 -1.371094,-0.685547 -0.585971,-0.456994 -1.341829,-0.960899 -2.267578,-1.511719 -0.925812,-0.550742 -2.050811,-1.054647 -3.375,-1.511718 -1.324246,-0.456991 -2.912135,-0.685506 -4.763672,-0.685547 -2.015646,4.1e-5 -3.849629,0.404337 -5.501953,1.21289 -1.65236,0.808633 -3.064468,1.998085 -4.236328,3.56836 -1.171888,1.570347 -2.08009,3.48636 -2.72461,5.748047 -0.644541,2.261746 -0.966806,4.845728 -0.966796,7.751953 -1e-5,2.882832 0.310536,5.431658 0.93164,7.646484 0.621082,2.214857 1.511707,4.066417 2.671875,5.554688 1.160142,1.488289 2.583968,2.613288 4.271485,3.375 1.68748,0.761724 3.597634,1.142583 5.730468,1.142578 1.804662,5e-6 3.380833,-0.222651 4.728516,-0.667969 1.347627,-0.445307 2.496063,-0.943353 3.445312,-1.494141 0.949187,-0.550773 1.728483,-1.04882 2.337891,-1.49414 0.60934,-0.445304 1.089809,-0.66796 1.441406,-0.667969 0.164027,9e-6 0.304652,0.03516 0.421875,0.105469 0.117152,0.07032 0.210902,0.205087 0.28125,0.404297 0.07028,0.199227 0.123011,0.474617 0.158203,0.826172 0.03512,0.351569 0.0527,0.796882 0.05273,1.335937 z"
       style="font-size:72px;font-variant:normal;font-stretch:normal;text-align:start;line-height:125%;writing-mode:lr-tb;text-anchor:start;fill:#a7a9ab;font-family:Calibri;-inkscape-font-specification:Calibri"
       id="path2824" />
  </g>
</svg>
