<?xml version="1.0" encoding="UTF-8" standalone="no"?>
<!-- Created with Inkscape (http://www.inkscape.org/) -->

<svg
   xmlns:dc="http://purl.org/dc/elements/1.1/"
   xmlns:cc="http://creativecommons.org/ns#"
   xmlns:rdf="http://www.w3.org/1999/02/22-rdf-syntax-ns#"
   xmlns:svg="http://www.w3.org/2000/svg"
   xmlns="http://www.w3.org/2000/svg"
   xmlns:sodipodi="http://sodipodi.sourceforge.net/DTD/sodipodi-0.dtd"
   xmlns:inkscape="http://www.inkscape.org/namespaces/inkscape"
   version="1.1"
   width="95.805695"
   height="61.800041"
   id="svg3774"
   inkscape:version="0.47 r22583"
   sodipodi:docname="int.svg">
  <metadata
     id="metadata10">
    <rdf:RDF>
      <cc:Work
         rdf:about="">
        <dc:format>image/svg+xml</dc:format>
        <dc:type
           rdf:resource="http://purl.org/dc/dcmitype/StillImage" />
      </cc:Work>
    </rdf:RDF>
  </metadata>
  <sodipodi:namedview
     pagecolor="#ffffff"
     bordercolor="#666666"
     borderopacity="1"
     objecttolerance="10"
     gridtolerance="10"
     guidetolerance="10"
     inkscape:pageopacity="0"
     inkscape:pageshadow="2"
     inkscape:window-width="644"
     inkscape:window-height="500"
     id="namedview8"
     showgrid="false"
     inkscape:zoom="3.8187677"
     inkscape:cx="49.893434"
     inkscape:cy="30.430499"
     inkscape:window-x="343"
     inkscape:window-y="358"
     inkscape:window-maximized="0"
     inkscape:current-layer="svg3774" />
  <defs
     id="defs3776">
    <inkscape:perspective
       sodipodi:type="inkscape:persp3d"
       inkscape:vp_x="0 : 30.900021 : 1"
       inkscape:vp_y="0 : 1000 : 0"
       inkscape:vp_z="95.805695 : 30.900021 : 1"
       inkscape:persp3d-origin="47.902847 : 20.600014 : 1"
       id="perspective12" />
  </defs>
  <rect
     style="fill:none;stroke:#a7a9ab;stroke-width:3.62548351;stroke-miterlimit:4;stroke-opacity:1;stroke-dasharray:none"
     id="rect2816-1-1"
     y="1.8127424"
     x="1.8127416"
     ry="14.473726"
     rx="14.212453"
     height="58.174557"
     width="92.180214" />
  <g
     transform="scale(1.0044534,0.99556634)"
     style="font-size:34.63402176px;font-style:normal;font-weight:normal;line-height:125%;fill:#a7a9ab;fill-opacity:1;stroke:none;font-family:Bitstream Vera Sans"
     id="text3590-7-7">
    <path
       d="m 13.685255,49.60309 c -1.1e-5,0.162347 -0.0406,0.304401 -0.12176,0.426161 -0.08118,0.12176 -0.223237,0.218153 -0.426161,0.28918 -0.202944,0.07103 -0.47183,0.131907 -0.806662,0.18264 -0.334849,0.05073 -0.755936,0.0761 -1.263262,0.0761 -0.487048,-10e-7 -0.903062,-0.02537 -1.2480425,-0.0761 C 9.4743739,50.450338 9.2004137,50.389458 8.9974859,50.318431 8.7945466,50.247404 8.6524932,50.151011 8.5713251,50.029251 8.4901464,49.907491 8.4495597,49.765437 8.4495649,49.60309 l 0,-37.806553 c -5.2e-6,-0.162308 0.045655,-0.304362 0.1369803,-0.426161 0.091315,-0.121721 0.2435148,-0.218114 0.4566008,-0.28918 0.2130744,-0.07099 0.4870347,-0.131868 0.8218816,-0.182641 0.3348334,-0.05069 0.7356274,-0.07606 1.2023824,-0.0761 0.507326,4e-5 0.928413,0.02541 1.263262,0.0761 0.334832,0.05077 0.603718,0.111653 0.806662,0.182641 0.202924,0.07107 0.344977,0.167459 0.426161,0.28918 0.08116,0.121799 0.121749,0.263853 0.12176,0.426161 z"
       style="font-size:62.34123993px;font-variant:normal;font-stretch:normal;text-align:start;line-height:125%;writing-mode:lr-tb;text-anchor:start;fill:#a7a9ab;font-family:Calibri;-inkscape-font-specification:Calibri"
       id="path2822" />
    <path
       d="m 53.927013,48.233287 c -3.5e-5,0.405869 -0.06599,0.750856 -0.197861,1.034962 -0.131941,0.284108 -0.304435,0.517482 -0.517481,0.700121 -0.213114,0.182641 -0.451561,0.314548 -0.715341,0.395721 -0.263847,0.08117 -0.527661,0.12176 -0.791442,0.12176 l -1.674203,0 c -0.527658,0 -0.989332,-0.05581 -1.385023,-0.16742 -0.39575,-0.111613 -0.771177,-0.314547 -1.126282,-0.608801 -0.355162,-0.294253 -0.710296,-0.695047 -1.065402,-1.202382 -0.355161,-0.507332 -0.745808,-1.15672 -1.171942,-1.948164 L 32.862492,24.155201 c -0.649401,-1.156695 -1.303862,-2.369223 -1.963384,-3.637587 -0.659546,-1.268305 -1.27342,-2.501126 -1.841623,-3.698467 l -0.06088,0 c 0.04058,1.461155 0.07102,2.952716 0.09132,4.474688 0.02028,1.522031 0.03043,3.033886 0.03044,4.535569 l 0,23.773686 c -10e-6,0.142054 -0.0406,0.279034 -0.12176,0.410941 -0.08118,0.131907 -0.218164,0.233373 -0.410941,0.3044 -0.192797,0.07103 -0.446464,0.131907 -0.761002,0.18264 -0.314556,0.05073 -0.715349,0.0761 -1.202382,0.0761 -0.487048,-10e-7 -0.887842,-0.02537 -1.202382,-0.0761 -0.314554,-0.05073 -0.563147,-0.111613 -0.745782,-0.18264 -0.182646,-0.07103 -0.314552,-0.172493 -0.395721,-0.3044 -0.08118,-0.131907 -0.121765,-0.268887 -0.12176,-0.410941 l 0,-36.34543 c -5e-6,-0.811697 0.223222,-1.390058 0.669682,-1.735084 0.446447,-0.344948 0.933488,-0.517441 1.461122,-0.517481 l 2.496085,0 c 0.588497,4e-5 1.080611,0.05077 1.476343,0.152201 0.395709,0.101506 0.750843,0.268926 1.065402,0.502261 0.314535,0.233412 0.618935,0.558106 0.913202,0.974082 0.29424,0.416051 0.61386,0.938605 0.958862,1.567663 l 9.558178,17.289953 c 0.588483,1.055273 1.156697,2.085161 1.704643,3.089666 0.547895,1.004537 1.075522,1.993837 1.582883,2.967906 0.507307,0.974093 1.009567,1.932954 1.506783,2.876585 0.497159,0.943651 0.989273,1.892365 1.476343,2.846146 l 0.03044,0 c -0.04062,-1.603168 -0.06598,-3.272296 -0.0761,-5.00739 -0.01018,-1.73507 -0.01525,-3.404198 -0.01522,-5.00739 l 0,-21.368921 c -3e-5,-0.142015 0.04056,-0.273922 0.12176,-0.395721 0.08114,-0.121721 0.218124,-0.228261 0.410941,-0.31962 0.192756,-0.09128 0.446423,-0.157234 0.761001,-0.197861 0.314516,-0.04055 0.725456,-0.06084 1.232823,-0.06088 0.446421,4e-5 0.831995,0.02033 1.156722,0.06088 0.32466,0.04063 0.578327,0.10658 0.761002,0.197861 0.182605,0.09136 0.314512,0.197899 0.39572,0.31962 0.08114,0.121799 0.121726,0.253706 0.121761,0.395721 z"
       style="font-size:62.34123993px;font-variant:normal;font-stretch:normal;text-align:start;line-height:125%;writing-mode:lr-tb;text-anchor:start;fill:#a7a9ab;font-family:Calibri;-inkscape-font-specification:Calibri"
       id="path2824" />
    <path
       d="m 89.146161,13.25766 c -3e-5,0.385611 -0.02032,0.720451 -0.06088,1.004522 -0.04062,0.284143 -0.10657,0.512443 -0.197861,0.684901 -0.09135,0.172529 -0.202963,0.299362 -0.33484,0.380501 -0.131936,0.08121 -0.279063,0.121795 -0.441381,0.12176 l -11.080182,0 0,34.153746 c -1.7e-5,0.162347 -0.0406,0.304401 -0.12176,0.426161 -0.08119,0.12176 -0.223244,0.218153 -0.426161,0.28918 -0.20295,0.07103 -0.471837,0.131907 -0.806661,0.18264 -0.334857,0.05073 -0.755944,0.0761 -1.263263,0.0761 -0.487055,-10e-7 -0.903069,-0.02537 -1.248042,-0.0761 -0.345001,-0.05073 -0.618961,-0.111613 -0.821882,-0.18264 -0.202946,-0.07103 -0.345,-0.16742 -0.42616,-0.28918 -0.08119,-0.12176 -0.121773,-0.263814 -0.121761,-0.426161 l 0,-34.153746 -11.080181,0 c -0.162348,3.5e-5 -0.309475,-0.04055 -0.441381,-0.12176 -0.131908,-0.08114 -0.238448,-0.207972 -0.31962,-0.380501 -0.08117,-0.172458 -0.147128,-0.400758 -0.197861,-0.684901 -0.05073,-0.284071 -0.0761,-0.618911 -0.0761,-1.004522 0,-0.385537 0.02537,-0.72545 0.0761,-1.019742 0.05073,-0.294216 0.116686,-0.532662 0.197861,-0.715342 0.08117,-0.182601 0.187712,-0.314508 0.31962,-0.39572 0.131906,-0.08113 0.279033,-0.121721 0.441381,-0.121761 l 27.396053,0 c 0.162318,4e-5 0.309445,0.04063 0.441381,0.121761 0.131877,0.08121 0.243491,0.213119 0.33484,0.39572 0.09129,0.18268 0.157244,0.421126 0.197861,0.715342 0.04056,0.294292 0.06085,0.634205 0.06088,1.019742 z"
       style="font-size:62.34123993px;font-variant:normal;font-stretch:normal;text-align:start;line-height:125%;writing-mode:lr-tb;text-anchor:start;fill:#a7a9ab;font-family:Calibri;-inkscape-font-specification:Calibri"
       id="path2826" />
  </g>
</svg>
