<?xml version="1.0" encoding="UTF-8" standalone="no"?>
<!-- Created with Inkscape (http://www.inkscape.org/) -->

<svg
   xmlns:dc="http://purl.org/dc/elements/1.1/"
   xmlns:cc="http://creativecommons.org/ns#"
   xmlns:rdf="http://www.w3.org/1999/02/22-rdf-syntax-ns#"
   xmlns:svg="http://www.w3.org/2000/svg"
   xmlns="http://www.w3.org/2000/svg"
   version="1.1"
   width="610.40228"
   height="255.61818"
   id="svg3121">
  <defs
     id="defs3123" />
  <metadata
     id="metadata3126">
    <rdf:RDF>
      <cc:Work
         rdf:about="">
        <dc:format>image/svg+xml</dc:format>
        <dc:type
           rdf:resource="http://purl.org/dc/dcmitype/StillImage" />
        <dc:title></dc:title>
      </cc:Work>
    </rdf:RDF>
  </metadata>
  <g
     transform="translate(-54.798853,-353.12452)"
     id="layer1">
    <g
       transform="matrix(1.25,0,0,-1.25,-13.755397,1169.4852)"
       id="g3082">
      <path
         d="m 355.128,618.929 c 0,0 -10.816,7.745 -14.842,12.258 -8.708,9.751 -17.458,10.506 -1.439,16.424 11.449,4.231 27.069,2.453 39.549,-1.542 6.48,-2.071 11.454,-16.511 9.904,-22.213 -1.558,-5.702 1.288,-7.001 1.288,-7.001 0,0 -1.549,0.262 -5.696,-2.584 -4.146,-2.857 -4.665,-5.189 -13.477,-6.222 -8.806,-1.043 -25.912,-1.296 -25.912,-1.296 l -19.017,19.796 29.642,-7.62 z m 7.084,6.147 c 0,-2.281 1.62,-4.131 3.621,-4.131 1.989,0 3.612,1.85 3.612,4.131 0,2.285 -1.623,4.138 -3.612,4.138 -2.001,0 -3.621,-1.853 -3.621,-4.138"
         id="path14"
         style="fill:#eded06;fill-opacity:1;fill-rule:nonzero;stroke:none" />
      <path
         d="m 334.069,628.735 c 0,0 -17.41,3.827 -19.5,3.131 -2.092,-0.693 -5.223,-0.343 -8.702,2.442 -3.487,2.783 -10.449,7.655 -7.664,11.14 2.788,3.48 5.568,9.052 10.1,7.312 4.52,-1.74 10.099,-2.439 9.396,-4.874 -0.691,-2.438 -1.39,-4.525 -2.428,-4.874 -1.05,-0.35 -2.794,-2.091 -5.232,-0.35 -2.438,1.739 -2.776,4.176 -2.776,4.176 0,0 2.434,-1.39 3.478,-1.39 1.042,0 2.438,0.349 2.082,1.39 -0.346,1.048 -3.477,2.442 -3.477,2.442 0,0 -3.479,0.692 -4.869,-0.352 -1.398,-1.042 -2.097,-5.567 -2.097,-5.567 0,0 3.487,-6.27 5.221,-6.965 1.745,-0.699 4.531,-1.044 5.924,-1.044 1.395,0 6.271,0.345 9.05,-0.35 2.786,-0.694 11.141,-4.877 11.494,-6.267"
         id="path16"
         style="fill:#eded06;fill-opacity:1;fill-rule:nonzero;stroke:none" />
      <path
         d="m 447.568,549.175 c 0,0 0.844,-7.451 -3.057,-18.289 -2.159,-6.007 -0.597,-14.529 1.928,-18.174 2.526,-3.641 19.54,-14.484 36.461,-19.073 16.39,-4.442 47.404,-5.049 59.182,9.256 0,0 5.893,13.177 -9.811,29.732 -15.709,16.548 -36.45,18.182 -48.508,13.417 -12.067,-4.769 -14.887,-9.769 -11.516,-16.501 3.364,-6.732 5.886,-13.186 17.669,-10.946 11.777,2.247 13.461,4.214 10.379,9.817 -3.088,5.619 -7.297,5.335 -7.297,5.335 0,0 3.085,-5.044 -1.121,-8.131 -4.2,-3.091 -8.135,-1.688 -11.499,1.678 -3.366,3.366 -2.75,8.532 -0.282,10.38 4.265,3.19 25.523,5.323 37.027,-3.366 11.494,-8.692 14.587,-15.991 8.414,-20.479 -6.172,-4.488 -26.65,-14.867 -46.564,-0.556 -19.912,14.303 -27.764,23 -31.405,35.9"
         id="path18"
         style="fill:#eded06;fill-opacity:1;fill-rule:nonzero;stroke:none" />
      <path
         d="m 435.131,509.924 c 0,0 -35.446,4.978 -23.927,16.5 11.53,11.526 14.321,10.042 16.728,7.995 2.425,-2.044 9.307,-10.042 10.228,-12.267 0,0 -2.779,4.46 1.684,14.684 4.454,10.225 2.41,17.66 3.35,25.473 0.918,7.801 8.545,14.125 12.449,14.125 l 5.505,-13.993 19.215,-2.739 -3.157,5.767 6.885,3.529 -8.929,1.86 5.201,9.111 -11.705,-6.694 c 0,0 -6.512,12.83 -10.415,18.402 l -3.898,6.137 c 0,0 -12.643,-22.308 -17.471,-27.888 -4.844,-5.576 -15.371,-8.165 -20.833,-13.383 -4.273,-4.09 -10.408,-10.972 -13.755,-19.336 -3.346,-8.368 -6.92,-24.789 -6.92,-24.789 l 16.887,-7.084 -7.23,-9.136 9.43,3.665 -1.141,-14.457 9.065,11.408 0.357,-13.707 12.397,26.817"
         id="path20"
         style="fill:#eded06;fill-opacity:1;fill-rule:nonzero;stroke:none" />
      <path
         d="m 401.905,552.096 c 0,0 6.885,9.565 14.434,12.63 8.243,3.347 15.98,5.673 17.782,8.247 0,0 -25.712,19.213 -27.67,24.037 0,0 -17.56,-5.421 -18.013,-32.51 l 13.467,-12.404"
         id="path22"
         style="fill:#eded06;fill-opacity:1;fill-rule:nonzero;stroke:none" />
      <path
         d="m 423.843,611.602 c -11.081,-7.477 -12.889,-5.413 -25.511,-13.92 -12.639,-8.506 -11.602,-19.844 -21.912,-35.566 -10.314,-15.722 -20.886,-17.524 -20.886,-17.524 0,0 -4.892,1.031 -9.522,3.091 -4.645,2.063 -21.651,25.518 -21.651,25.518 l 13.398,-6.187 -3.341,18.041 15.198,-19.586 7.99,16.236 0.259,-20.616 c 3.61,0.252 6.188,2.831 7.73,7.212 1.544,4.383 4.891,12.887 4.891,12.887 l -14.952,15.718 c 20.886,2.067 28.099,7.477 31.963,11.602 3.871,4.127 3.973,4.484 6.003,4.74 1.299,0.159 3.538,-0.361 3.538,-0.361 8.762,-0.514 26.031,9.024 26.031,9.024 0,0 -6.7,2.575 -14.178,6.698 -7.47,4.13 -9.273,10.309 -9.273,10.309 l 7.472,-3.349 0.512,14.951 6.188,-11.602 5.673,12.373 -0.258,-13.654 14.43,-11.598 4.64,-6.447 -14.432,-7.99"
         id="path24"
         style="fill:#eded06;fill-opacity:1;fill-rule:nonzero;stroke:none" />
      <path
         d="m 86.2043,514.422 -12.525,0 0,-20.874 c 0,-5.146 0,-10.583 6.6019,-10.583 2.0391,0 4.4665,0.291 6.2137,1.359 l 0,-7.962 c -2.0387,-1.165 -6.1164,-1.553 -7.864,-1.553 -13.4957,0 -13.6899,8.253 -13.6899,15.632 l 0,23.981 -10.0976,0 0,7.574 10.0976,0 0,12.913 8.7383,0 0,-12.913 12.525,0 0,-7.574"
         id="path26"
         style="fill:#eded06;fill-opacity:1;fill-rule:nonzero;stroke:none" />
      <path
         d="m 115.816,523.161 c 13.69,0 24.467,-10.778 24.467,-24.176 0,-13.399 -10.777,-24.176 -24.467,-24.176 -13.689,0 -24.4668,10.777 -24.4668,24.176 0,13.398 10.7778,24.176 24.4668,24.176 z m 0,-40.196 c 9.321,0 15.146,6.699 15.146,16.02 0,9.321 -5.825,16.02 -15.146,16.02 -9.32,0 -15.146,-6.699 -15.146,-16.02 0,-9.321 5.826,-16.02 15.146,-16.02"
         id="path28"
         style="fill:#eded06;fill-opacity:1;fill-rule:nonzero;stroke:none" />
      <path
         d="m 147.37,521.996 8.739,0 0,-6.602 0.194,0 c 3.398,4.951 9.806,7.767 16.02,7.767 14.272,0 23.399,-10.583 23.399,-24.176 0,-13.787 -9.224,-24.176 -23.399,-24.176 -6.602,0 -12.913,3.01 -16.02,7.767 l -0.194,0 0,-33.982 -8.739,0 0,73.402 z m 8.739,-23.011 c 0,-9.321 5.825,-16.02 15.146,-16.02 9.321,0 15.147,6.699 15.147,16.02 0,9.321 -5.826,16.02 -15.147,16.02 -9.321,0 -15.146,-6.699 -15.146,-16.02"
         id="path30"
         style="fill:#eded06;fill-opacity:1;fill-rule:nonzero;stroke:none" />
      <path
         d="m 209.799,544.909 c 3.496,0 6.408,-2.913 6.408,-6.408 0,-3.495 -2.912,-6.408 -6.408,-6.408 -3.495,0 -6.408,2.913 -6.408,6.408 0,3.495 2.913,6.408 6.408,6.408 z m -4.369,-22.913 8.738,0 0,-46.022 -8.738,0 0,46.022"
         id="path32"
         style="fill:#eded06;fill-opacity:1;fill-rule:nonzero;stroke:none" />
      <path
         d="m 259.023,509.762 c -3.203,3.398 -6.602,5.146 -11.456,5.146 -9.515,0 -14.37,-7.67 -14.37,-16.311 0,-8.642 5.826,-15.632 14.855,-15.632 4.855,0 8.253,1.747 11.166,5.146 l 6.214,-6.215 c -4.563,-5.048 -10.777,-7.087 -17.477,-7.087 -14.175,0 -24.078,9.806 -24.078,23.982 0,14.175 9.709,24.273 24.078,24.273 6.7,0 13.107,-2.33 17.671,-7.282 l -6.603,-6.02"
         id="path34"
         style="fill:#eded06;fill-opacity:1;fill-rule:nonzero;stroke:none" />
      <path
         d="m 311.744,475.974 -8.738,0 0,7.088 -0.195,0 c -2.233,-4.855 -8.058,-8.253 -15.146,-8.253 -8.933,0 -16.7,5.34 -16.7,17.574 l 0,29.613 8.739,0 0,-27.186 c 0,-8.641 4.951,-11.845 10.485,-11.845 7.282,0 12.817,4.66 12.817,15.34 l 0,23.691 8.738,0 0,-46.022"
         id="path36"
         style="fill:#eded06;fill-opacity:1;fill-rule:nonzero;stroke:none" />
      <path
         d="m 347.473,510.442 c -2.038,2.524 -5.048,4.563 -9.417,4.563 -4.079,0 -7.671,-1.845 -7.671,-5.146 0,-5.534 7.865,-6.311 11.748,-7.185 7.573,-1.844 13.399,-4.757 13.399,-13.398 0,-10.389 -9.515,-14.467 -18.641,-14.467 -7.573,0 -13.205,1.942 -17.769,8.156 l 6.603,5.437 c 2.815,-2.816 6.117,-5.437 11.166,-5.437 4.465,0 9.32,1.845 9.32,5.825 0,5.243 -7.282,6.214 -11.068,7.088 -7.477,1.845 -14.079,4.272 -14.079,13.108 0,9.611 8.836,14.175 17.477,14.175 6.116,0 12.428,-2.136 15.729,-7.573 l -6.797,-5.146"
         id="path38"
         style="fill:#eded06;fill-opacity:1;fill-rule:nonzero;stroke:none" />
    </g>
  </g>
</svg>
