<?xml version="1.0" encoding="UTF-8" standalone="no"?>
<!-- Created with Inkscape (http://www.inkscape.org/) -->

<svg
   xmlns:dc="http://purl.org/dc/elements/1.1/"
   xmlns:cc="http://creativecommons.org/ns#"
   xmlns:rdf="http://www.w3.org/1999/02/22-rdf-syntax-ns#"
   xmlns:svg="http://www.w3.org/2000/svg"
   xmlns="http://www.w3.org/2000/svg"
   xmlns:sodipodi="http://sodipodi.sourceforge.net/DTD/sodipodi-0.dtd"
   xmlns:inkscape="http://www.inkscape.org/namespaces/inkscape"
   width="95.805695"
   height="61.800041"
   id="svg3812"
   version="1.1"
   inkscape:version="0.47 r22583"
   sodipodi:docname="sn.svg">
  <defs
     id="defs3814">
    <inkscape:perspective
       sodipodi:type="inkscape:persp3d"
       inkscape:vp_x="0 : 526.18109 : 1"
       inkscape:vp_y="0 : 1000 : 0"
       inkscape:vp_z="744.09448 : 526.18109 : 1"
       inkscape:persp3d-origin="372.04724 : 350.78739 : 1"
       id="perspective3820" />
    <inkscape:perspective
       id="perspective3805"
       inkscape:persp3d-origin="0.5 : 0.33333333 : 1"
       inkscape:vp_z="1 : 0.5 : 1"
       inkscape:vp_y="0 : 1000 : 0"
       inkscape:vp_x="0 : 0.5 : 1"
       sodipodi:type="inkscape:persp3d" />
  </defs>
  <sodipodi:namedview
     id="base"
     pagecolor="#ffffff"
     bordercolor="#666666"
     borderopacity="1.0"
     inkscape:pageopacity="0.0"
     inkscape:pageshadow="2"
     inkscape:zoom="10.673897"
     inkscape:cx="47.90286"
     inkscape:cy="30.900018"
     inkscape:document-units="px"
     inkscape:current-layer="layer1"
     showgrid="false"
     inkscape:window-width="1920"
     inkscape:window-height="1138"
     inkscape:window-x="1672"
     inkscape:window-y="-8"
     inkscape:window-maximized="1" />
  <metadata
     id="metadata3817">
    <rdf:RDF>
      <cc:Work
         rdf:about="">
        <dc:format>image/svg+xml</dc:format>
        <dc:type
           rdf:resource="http://purl.org/dc/dcmitype/StillImage" />
        <dc:title />
      </cc:Work>
    </rdf:RDF>
  </metadata>
  <g
     inkscape:label="Layer 1"
     inkscape:groupmode="layer"
     id="layer1"
     transform="translate(-327.09714,-501.46216)">
    <rect
       style="fill:none;stroke:#a7a9ab;stroke-width:3.62548351;stroke-miterlimit:4;stroke-opacity:1;stroke-dasharray:none"
       id="rect2816-1-0"
       width="92.180214"
       height="58.174557"
       x="328.90988"
       y="503.2749"
       rx="14.212453"
       ry="14.473726"
       inkscape:export-filename="C:\Users\Elke\Desktop\icons1.png"
       inkscape:export-xdpi="90"
       inkscape:export-ydpi="90" />
    <path
       id="path2817"
       style="font-size:72px;font-style:normal;font-variant:normal;font-weight:normal;font-stretch:normal;text-align:start;line-height:125%;writing-mode:lr-tb;text-anchor:start;fill:#a7a9ab;fill-opacity:1;stroke:none;font-family:Calibri;-inkscape-font-specification:Calibri"
       d="m 367.40955,542.53821 c -3e-5,2.13282 -0.39261,4.03126 -1.17774,5.69531 -0.78518,1.66407 -1.87503,3.07618 -3.26953,4.23633 -1.39456,1.16016 -3.03518,2.0332 -4.92187,2.61914 -1.88674,0.58594 -3.91994,0.8789 -6.09961,0.87891 -1.52346,-10e-6 -2.93556,-0.12891 -4.23633,-0.38672 -1.30079,-0.25782 -2.46095,-0.57422 -3.48047,-0.94922 -1.01954,-0.375 -1.87501,-0.76172 -2.56641,-1.16016 -0.69141,-0.39843 -1.17188,-0.73828 -1.4414,-1.01953 -0.26954,-0.28125 -0.46876,-0.63867 -0.59766,-1.07227 -0.12891,-0.43358 -0.19336,-1.01366 -0.19336,-1.74023 0,-0.51562 0.0234,-0.94335 0.0703,-1.2832 0.0469,-0.33984 0.11719,-0.61523 0.21094,-0.82617 0.0937,-0.21093 0.21094,-0.35742 0.35156,-0.43946 0.14063,-0.082 0.30469,-0.12304 0.49219,-0.12304 0.32812,0 0.79101,0.19922 1.38867,0.59765 0.59765,0.39845 1.36523,0.83204 2.30274,1.30078 0.93749,0.46876 2.06835,0.90821 3.39258,1.31836 1.3242,0.41016 2.8535,0.61524 4.58789,0.61524 1.31248,0 2.51365,-0.17578 3.60351,-0.52735 1.08983,-0.35155 2.02732,-0.8496 2.8125,-1.49414 0.78514,-0.64452 1.38865,-1.43554 1.81055,-2.37304 0.42185,-0.93749 0.63279,-2.0039 0.63281,-3.19922 -2e-5,-1.28905 -0.29299,-2.39061 -0.87891,-3.30469 -0.58596,-0.91405 -1.35939,-1.71678 -2.32031,-2.4082 -0.96096,-0.69139 -2.05666,-1.3242 -3.28711,-1.89844 -1.23048,-0.5742 -2.49025,-1.16014 -3.77929,-1.75781 -1.28908,-0.59764 -2.54298,-1.25975 -3.76172,-1.98633 -1.21876,-0.72654 -2.3086,-1.58201 -3.26953,-2.56641 -0.96095,-0.98435 -1.74024,-2.13864 -2.33789,-3.46289 -0.59766,-1.32419 -0.89649,-2.91208 -0.89649,-4.76367 0,-1.8984 0.3457,-3.59176 1.03711,-5.08008 0.6914,-1.48824 1.65234,-2.73628 2.88281,-3.74414 1.23046,-1.00777 2.69531,-1.77535 4.39453,-2.30273 1.69921,-0.5273 3.53319,-0.79097 5.50196,-0.79102 1.00779,5e-5 2.02146,0.0879 3.04101,0.26367 1.01951,0.17583 1.98045,0.4102 2.88282,0.70313 0.90231,0.29301 1.70505,0.62114 2.4082,0.98437 0.7031,0.36333 1.16599,0.6563 1.38867,0.87891 0.22263,0.2227 0.36911,0.39848 0.43945,0.52734 0.0703,0.12895 0.12888,0.29301 0.17578,0.49219 0.0469,0.19926 0.082,0.43949 0.10547,0.7207 0.0234,0.28129 0.0351,0.64458 0.0352,1.08985 -3e-5,0.42191 -0.0176,0.79691 -0.0527,1.125 -0.0352,0.32816 -0.0879,0.60355 -0.15821,0.82617 -0.0703,0.22269 -0.16995,0.38676 -0.29883,0.49219 -0.12893,0.1055 -0.27541,0.15824 -0.43945,0.1582 -0.25784,4e-5 -0.66213,-0.16403 -1.21289,-0.49219 -0.55081,-0.32808 -1.22463,-0.69722 -2.02148,-1.10742 -0.7969,-0.41012 -1.74026,-0.78512 -2.83008,-1.125 -1.08987,-0.3398 -2.31447,-0.50972 -3.67383,-0.50977 -1.26564,5e-5 -2.3672,0.16997 -3.30469,0.50977 -0.93751,0.33988 -1.71095,0.79106 -2.32031,1.35352 -0.60939,0.56253 -1.06642,1.2305 -1.37109,2.0039 -0.3047,0.77348 -0.45705,1.59379 -0.45704,2.46094 -10e-6,1.26566 0.29296,2.3555 0.87891,3.26953 0.58593,0.91409 1.36522,1.72269 2.33789,2.42578 0.97264,0.70316 2.08006,1.34769 3.32227,1.9336 1.24217,0.58596 2.50779,1.17776 3.79687,1.77539 1.28904,0.59768 2.55467,1.25393 3.79688,1.96875 1.24216,0.71486 2.34958,1.55861 3.32226,2.53125 0.97263,0.97267 1.75779,2.12111 2.35547,3.44531 0.59763,1.32423 0.89646,2.88869 0.89649,4.69336 z" />
    <path
       id="path2819"
       style="font-size:72px;font-style:normal;font-variant:normal;font-weight:normal;font-stretch:normal;text-align:start;line-height:125%;writing-mode:lr-tb;text-anchor:start;fill:#a7a9ab;fill-opacity:1;stroke:none;font-family:Calibri;-inkscape-font-specification:Calibri"
       d="m 410.40564,552.80383 c -4e-5,0.46876 -0.0762,0.86719 -0.22852,1.19532 -0.15238,0.32812 -0.3516,0.59765 -0.59765,0.80859 -0.24614,0.21094 -0.52153,0.36328 -0.82617,0.45703 -0.30473,0.0937 -0.60942,0.14063 -0.91407,0.14063 l -1.93359,0 c -0.60941,0 -1.14261,-0.0645 -1.59961,-0.19336 -0.45706,-0.12891 -0.89066,-0.36328 -1.30078,-0.70313 -0.41019,-0.33984 -0.82035,-0.80273 -1.23047,-1.38867 -0.41019,-0.58594 -0.86136,-1.33593 -1.35352,-2.25 l -14.34375,-25.875 c -0.75001,-1.33591 -1.50587,-2.7363 -2.26757,-4.20117 -0.76174,-1.46481 -1.47072,-2.88864 -2.12696,-4.27149 l -0.0703,0 c 0.0469,1.68754 0.082,3.41019 0.10547,5.16797 0.0234,1.75785 0.0351,3.50394 0.0352,5.23828 l 0,27.45703 c -2e-5,0.16407 -0.0469,0.32227 -0.14063,0.47461 -0.0938,0.15235 -0.25196,0.26954 -0.47461,0.35157 -0.22267,0.082 -0.51563,0.15234 -0.8789,0.21093 -0.3633,0.0586 -0.82619,0.0879 -1.38868,0.0879 -0.5625,0 -1.0254,-0.0293 -1.38867,-0.0879 -0.36329,-0.0586 -0.6504,-0.1289 -0.86133,-0.21093 -0.21094,-0.082 -0.36328,-0.19922 -0.45703,-0.35157 -0.0937,-0.15234 -0.14063,-0.31054 -0.14062,-0.47461 l 0,-41.97656 c -10e-6,-0.93745 0.2578,-1.60542 0.77343,-2.0039 0.51562,-0.3984 1.07812,-0.59762 1.6875,-0.59766 l 2.88282,0 c 0.67967,4e-5 1.24803,0.0586 1.70508,0.17578 0.45701,0.11723 0.86717,0.31059 1.23046,0.58008 0.36327,0.26957 0.71483,0.64457 1.05469,1.125 0.33983,0.48051 0.70897,1.08403 1.10742,1.81055 l 11.03907,19.96875 c 0.67966,1.21877 1.3359,2.40822 1.96875,3.56835 0.63278,1.16018 1.24215,2.30276 1.82812,3.42774 0.58591,1.12501 1.16598,2.23243 1.74024,3.32226 0.57418,1.08986 1.14254,2.18556 1.70507,3.28711 l 0.0352,0 c -0.0469,-1.85155 -0.0762,-3.77928 -0.0879,-5.7832 -0.0118,-2.00389 -0.0176,-3.93162 -0.0176,-5.7832 l 0,-24.67969 c -3e-5,-0.16402 0.0468,-0.31636 0.14063,-0.45703 0.0937,-0.14058 0.25191,-0.26363 0.47461,-0.36914 0.22262,-0.10542 0.51558,-0.1816 0.8789,-0.22852 0.36325,-0.0468 0.83786,-0.0703 1.42383,-0.0703 0.51559,5e-5 0.9609,0.0235 1.33594,0.0703 0.37496,0.0469 0.66793,0.1231 0.8789,0.22852 0.2109,0.10551 0.36324,0.22856 0.45703,0.36914 0.0937,0.14067 0.14059,0.29301 0.14063,0.45703 z" />
  </g>
</svg>
