<?xml version="1.0" encoding="UTF-8" standalone="no"?>
<!-- Created with Inkscape (http://www.inkscape.org/) -->

<svg
   xmlns:dc="http://purl.org/dc/elements/1.1/"
   xmlns:cc="http://creativecommons.org/ns#"
   xmlns:rdf="http://www.w3.org/1999/02/22-rdf-syntax-ns#"
   xmlns:svg="http://www.w3.org/2000/svg"
   xmlns="http://www.w3.org/2000/svg"
   xmlns:sodipodi="http://sodipodi.sourceforge.net/DTD/sodipodi-0.dtd"
   xmlns:inkscape="http://www.inkscape.org/namespaces/inkscape"
   version="1.1"
   width="95.805695"
   height="61.800041"
   id="svg3850"
   inkscape:version="0.47 r22583"
   sodipodi:docname="sp.svg">
  <metadata
     id="metadata10">
    <rdf:RDF>
      <cc:Work
         rdf:about="">
        <dc:format>image/svg+xml</dc:format>
        <dc:type
           rdf:resource="http://purl.org/dc/dcmitype/StillImage" />
        <dc:title />
      </cc:Work>
    </rdf:RDF>
  </metadata>
  <sodipodi:namedview
     pagecolor="#ffffff"
     bordercolor="#666666"
     borderopacity="1"
     objecttolerance="10"
     gridtolerance="10"
     guidetolerance="10"
     inkscape:pageopacity="0"
     inkscape:pageshadow="2"
     inkscape:window-width="1920"
     inkscape:window-height="1138"
     id="namedview8"
     showgrid="false"
     inkscape:zoom="3.8187677"
     inkscape:cx="7.4447695"
     inkscape:cy="30.900021"
     inkscape:window-x="1672"
     inkscape:window-y="-8"
     inkscape:window-maximized="1"
     inkscape:current-layer="svg3850" />
  <defs
     id="defs3852">
    <inkscape:perspective
       sodipodi:type="inkscape:persp3d"
       inkscape:vp_x="0 : 30.900021 : 1"
       inkscape:vp_y="0 : 1000 : 0"
       inkscape:vp_z="95.805695 : 30.900021 : 1"
       inkscape:persp3d-origin="47.902847 : 20.600014 : 1"
       id="perspective12" />
    <pattern
       patternUnits="userSpaceOnUse"
       width="64.54688"
       height="46.82813"
       patternTransform="translate(16.0238,7.67767)"
       id="pattern2844">
      <g
         transform="translate(-343.12094,-509.13983)"
         id="text3590-7-9-8"
         style="font-size:40px;font-style:normal;font-weight:normal;line-height:125%;fill:#a7a9ab;fill-opacity:1;stroke:none;font-family:Bitstream Vera Sans">
        <path
           id="path2831"
           style="font-size:72px;font-variant:normal;font-stretch:normal;text-align:start;line-height:125%;writing-mode:lr-tb;text-anchor:start;fill:#a7a9ab;font-family:Calibri;-inkscape-font-specification:Calibri"
           d="m 371.10532,542.53827 c -3e-5,2.13282 -0.39261,4.03126 -1.17774,5.69531 -0.78518,1.66407 -1.87503,3.07618 -3.26953,4.23633 -1.39456,1.16016 -3.03518,2.0332 -4.92187,2.61914 -1.88674,0.58594 -3.91994,0.87891 -6.09961,0.87891 -1.52345,0 -2.93556,-0.12891 -4.23633,-0.38672 -1.30079,-0.25781 -2.46095,-0.57422 -3.48047,-0.94922 -1.01954,-0.375 -1.87501,-0.76172 -2.56641,-1.16016 -0.69141,-0.39843 -1.17188,-0.73828 -1.4414,-1.01953 -0.26954,-0.28125 -0.46876,-0.63867 -0.59766,-1.07226 -0.12891,-0.43359 -0.19336,-1.01367 -0.19336,-1.74024 0,-0.51562 0.0234,-0.94335 0.0703,-1.2832 0.0469,-0.33984 0.11719,-0.61523 0.21094,-0.82617 0.0937,-0.21093 0.21094,-0.35742 0.35156,-0.43946 0.14063,-0.082 0.30469,-0.12304 0.49219,-0.12304 0.32812,0 0.79101,0.19922 1.38867,0.59765 0.59765,0.39845 1.36523,0.83204 2.30274,1.30078 0.93749,0.46876 2.06835,0.90821 3.39258,1.31836 1.3242,0.41016 2.8535,0.61524 4.58789,0.61524 1.31248,0 2.51365,-0.17578 3.60351,-0.52735 1.08983,-0.35155 2.02732,-0.8496 2.8125,-1.49414 0.78514,-0.64452 1.38865,-1.43554 1.81055,-2.37304 0.42185,-0.93749 0.63279,-2.0039 0.63281,-3.19922 -2e-5,-1.28905 -0.29299,-2.39061 -0.87891,-3.30469 -0.58596,-0.91405 -1.35939,-1.71678 -2.32031,-2.4082 -0.96096,-0.69139 -2.05666,-1.3242 -3.28711,-1.89844 -1.23048,-0.5742 -2.49025,-1.16014 -3.77929,-1.75781 -1.28908,-0.59764 -2.54298,-1.25975 -3.76172,-1.98633 -1.21876,-0.72654 -2.3086,-1.58201 -3.26953,-2.56641 -0.96095,-0.98435 -1.74024,-2.13864 -2.33789,-3.46289 -0.59766,-1.32419 -0.89649,-2.91207 -0.89649,-4.76367 0,-1.8984 0.3457,-3.59176 1.03711,-5.08008 0.6914,-1.48824 1.65234,-2.73628 2.88281,-3.74414 1.23046,-1.00777 2.69531,-1.77534 4.39453,-2.30273 1.69921,-0.5273 3.53319,-0.79097 5.50196,-0.79102 1.00779,5e-5 2.02146,0.0879 3.04101,0.26367 1.01951,0.17583 1.98045,0.41021 2.88282,0.70313 0.90232,0.29301 1.70505,0.62114 2.4082,0.98437 0.7031,0.36333 1.16599,0.6563 1.38867,0.87891 0.22263,0.2227 0.36911,0.39848 0.43945,0.52734 0.0703,0.12895 0.12888,0.29301 0.17578,0.49219 0.0469,0.19926 0.082,0.4395 0.10547,0.7207 0.0234,0.2813 0.0351,0.64458 0.0352,1.08985 -3e-5,0.42191 -0.0176,0.79691 -0.0527,1.125 -0.0352,0.32816 -0.0879,0.60355 -0.15821,0.82617 -0.0703,0.22269 -0.16995,0.38676 -0.29883,0.49219 -0.12893,0.1055 -0.27541,0.15824 -0.43945,0.1582 -0.25784,4e-5 -0.66213,-0.16402 -1.21289,-0.49219 -0.55081,-0.32808 -1.22463,-0.69722 -2.02148,-1.10742 -0.7969,-0.41012 -1.74026,-0.78512 -2.83008,-1.125 -1.08987,-0.3398 -2.31447,-0.50972 -3.67383,-0.50976 -1.26564,4e-5 -2.3672,0.16996 -3.30469,0.50976 -0.93751,0.33988 -1.71095,0.79106 -2.32031,1.35352 -0.60939,0.56254 -1.06642,1.2305 -1.37109,2.0039 -0.3047,0.77348 -0.45704,1.59379 -0.45704,2.46094 0,1.26566 0.29296,2.3555 0.87891,3.26953 0.58593,0.91409 1.36522,1.72269 2.33789,2.42578 0.97264,0.70316 2.08006,1.34769 3.32227,1.9336 1.24217,0.58596 2.50779,1.17776 3.79687,1.77539 1.28904,0.59768 2.55467,1.25393 3.79688,1.96875 1.24216,0.71486 2.34958,1.55861 3.32226,2.53125 0.97263,0.97267 1.75779,2.12111 2.35547,3.44531 0.59763,1.32423 0.89646,2.88869 0.89649,4.69336 z" />
        <path
           id="path2833"
           style="font-size:72px;font-variant:normal;font-stretch:normal;text-align:start;line-height:125%;writing-mode:lr-tb;text-anchor:start;fill:#a7a9ab;font-family:Calibri;-inkscape-font-specification:Calibri"
           d="m 407.66782,523.13202 c -4e-5,2.27347 -0.37504,4.32425 -1.125,6.15234 -0.75004,1.82815 -1.8223,3.38674 -3.2168,4.67578 -1.39456,1.28909 -3.1055,2.28518 -5.13281,2.98829 -2.02737,0.70314 -4.44729,1.0547 -7.25977,1.05468 l -5.16797,0 0,16.38282 c -10e-6,0.1875 -0.0527,0.35156 -0.1582,0.49218 -0.10548,0.14063 -0.26954,0.25196 -0.49219,0.33399 -0.22267,0.082 -0.52735,0.15234 -0.91406,0.21093 -0.38673,0.0586 -0.87306,0.0879 -1.45899,0.0879 -0.58594,0 -1.07227,-0.0293 -1.45898,-0.0879 -0.38673,-0.0586 -0.69727,-0.1289 -0.93164,-0.21093 -0.23438,-0.082 -0.39844,-0.19336 -0.49219,-0.33399 -0.0937,-0.14062 -0.14063,-0.30468 -0.14062,-0.49218 l 0,-41.97657 c -10e-6,-0.93745 0.24608,-1.60542 0.73828,-2.0039 0.49218,-0.3984 1.04296,-0.59761 1.65234,-0.59766 l 9.73828,0 c 0.98436,5e-5 1.92772,0.0411 2.83008,0.12305 0.90232,0.0821 1.96873,0.25785 3.19922,0.52734 1.23044,0.26958 2.48435,0.77348 3.76172,1.51172 1.27731,0.73832 2.3613,1.64653 3.25195,2.72461 0.8906,1.07816 1.57614,2.32621 2.05664,3.74414 0.48044,1.418 0.72067,2.98246 0.72071,4.69336 z m -6.36329,0.49219 c -2e-5,-1.85153 -0.34573,-3.39841 -1.0371,-4.64063 -0.69144,-1.24215 -1.5469,-2.16793 -2.56641,-2.77734 -1.01955,-0.60934 -2.07424,-0.99606 -3.16406,-1.16016 -1.08987,-0.16402 -2.15041,-0.24605 -3.18164,-0.24609 l -5.58985,0 0,18.24609 5.44922,0 c 1.82811,2e-5 3.34568,-0.23435 4.55274,-0.70312 1.207,-0.46873 2.22067,-1.11912 3.04101,-1.95118 0.82029,-0.832 1.44138,-1.82809 1.86328,-2.98828 0.42185,-1.16012 0.63279,-2.41989 0.63281,-3.77929 z" />
      </g>
    </pattern>
  </defs>
  <rect
     style="fill:none;stroke:#a7a9ab;stroke-width:3.62548351;stroke-miterlimit:4;stroke-opacity:1;stroke-dasharray:none"
     id="rect2816-1-0-8"
     y="1.8127424"
     x="1.8127416"
     ry="14.473726"
     rx="14.212453"
     height="58.174557"
     width="92.180214" />
  <path
     style="fill:url(#pattern2844);stroke:none"
     d="m 16.0238,7.67767 64.546883,0 0,46.828129 -64.546883,0 0,-46.828129 z"
     id="rect2849" />
</svg>
