<?xml version="1.0" encoding="UTF-8" standalone="no"?>
<!-- Created with Inkscape (http://www.inkscape.org/) -->

<svg
   xmlns:dc="http://purl.org/dc/elements/1.1/"
   xmlns:cc="http://creativecommons.org/ns#"
   xmlns:rdf="http://www.w3.org/1999/02/22-rdf-syntax-ns#"
   xmlns:svg="http://www.w3.org/2000/svg"
   xmlns="http://www.w3.org/2000/svg"
   xmlns:sodipodi="http://sodipodi.sourceforge.net/DTD/sodipodi-0.dtd"
   xmlns:inkscape="http://www.inkscape.org/namespaces/inkscape"
   version="1.1"
   width="95.805695"
   height="61.800041"
   id="svg3736"
   inkscape:version="0.47 r22583"
   sodipodi:docname="st.svg">
  <metadata
     id="metadata10">
    <rdf:RDF>
      <cc:Work
         rdf:about="">
        <dc:format>image/svg+xml</dc:format>
        <dc:type
           rdf:resource="http://purl.org/dc/dcmitype/StillImage" />
      </cc:Work>
    </rdf:RDF>
  </metadata>
  <sodipodi:namedview
     pagecolor="#ffffff"
     bordercolor="#666666"
     borderopacity="1"
     objecttolerance="10"
     gridtolerance="10"
     guidetolerance="10"
     inkscape:pageopacity="0"
     inkscape:pageshadow="2"
     inkscape:window-width="780"
     inkscape:window-height="639"
     id="namedview8"
     showgrid="false"
     inkscape:zoom="3.8187677"
     inkscape:cx="47.902847"
     inkscape:cy="10.809845"
     inkscape:window-x="801"
     inkscape:window-y="470"
     inkscape:window-maximized="0"
     inkscape:current-layer="svg3736" />
  <defs
     id="defs3738">
    <inkscape:perspective
       sodipodi:type="inkscape:persp3d"
       inkscape:vp_x="0 : 30.900021 : 1"
       inkscape:vp_y="0 : 1000 : 0"
       inkscape:vp_z="95.805695 : 30.900021 : 1"
       inkscape:persp3d-origin="47.902847 : 20.600014 : 1"
       id="perspective12" />
  </defs>
  <path
     style="fill:none;stroke:#a7a9ab;stroke-width:3.62548351;stroke-miterlimit:4;stroke-opacity:1"
     d="m 16.025195,1.8127424 63.755308,0 c 7.873699,0 14.212453,6.4552819 14.212453,14.4737266 l 0,29.227104 c 0,8.018444 -6.338754,14.473726 -14.212453,14.473726 l -63.755308,0 c -7.8736994,0 -14.2124534,-6.455282 -14.2124534,-14.473726 l 0,-29.227104 c 0,-8.0184447 6.338754,-14.4737266 14.2124534,-14.4737266 z"
     id="rect2816-1" />
  <g
     style="font-size:40px;font-style:normal;font-weight:normal;line-height:125%;fill:#a7a9ab;fill-opacity:1;stroke:none;font-family:Bitstream Vera Sans"
     id="text3590-7">
    <path
       d="m 42.424253,41.604065 c -3.1e-5,2.132823 -0.392609,4.031259 -1.177735,5.695312 -0.785185,1.664068 -1.875027,3.076176 -3.269531,4.236329 -1.394556,1.160157 -3.035179,2.033203 -4.921875,2.61914 -1.886738,0.585937 -3.919939,0.878906 -6.099609,0.878906 -1.523451,0 -2.935559,-0.128906 -4.236329,-0.386718 -1.30079,-0.257813 -2.460945,-0.574219 -3.480468,-0.949219 -1.019538,-0.374999 -1.875006,-0.761717 -2.566407,-1.160156 -0.69141,-0.398436 -1.171878,-0.738279 -1.441406,-1.019532 -0.269534,-0.281246 -0.468753,-0.638668 -0.597656,-1.072265 -0.128909,-0.43359 -0.193362,-1.013667 -0.193359,-1.740235 -3e-6,-0.515618 0.02343,-0.943352 0.07031,-1.283203 0.04687,-0.339836 0.117185,-0.615227 0.210938,-0.826172 0.09375,-0.210929 0.210934,-0.357413 0.351562,-0.439453 0.140622,-0.08202 0.304684,-0.123038 0.492188,-0.123047 0.328121,9e-6 0.791011,0.199227 1.388671,0.597657 0.597651,0.398445 1.365228,0.832038 2.302735,1.300781 0.937492,0.468756 2.06835,0.908209 3.392578,1.318359 1.324207,0.410161 2.853502,0.615239 4.587891,0.615235 1.312483,4e-6 2.513654,-0.175777 3.603515,-0.527344 1.089824,-0.351557 2.027323,-0.849604 2.8125,-1.494141 0.785134,-0.644524 1.388649,-1.435539 1.810547,-2.373047 0.421851,-0.93749 0.632788,-2.003895 0.632813,-3.199218 -2.5e-5,-1.289049 -0.292993,-2.390611 -0.878907,-3.304688 -0.58596,-0.914046 -1.359397,-1.71678 -2.320312,-2.408203 -0.960958,-0.691388 -2.05666,-1.3242 -3.28711,-1.898437 -1.230485,-0.574199 -2.490249,-1.160136 -3.779296,-1.757813 -1.289076,-0.597634 -2.542981,-1.259743 -3.761719,-1.986328 -1.218759,-0.726538 -2.308602,-1.582006 -3.269531,-2.566406 -0.960944,-0.984348 -1.74024,-2.138644 -2.337891,-3.462891 -0.59766,-1.324188 -0.896488,-2.912077 -0.896484,-4.763672 -4e-6,-1.898401 0.345699,-3.591759 1.037109,-5.080078 0.691401,-1.48824 1.652337,-2.736286 2.882812,-3.744141 1.23046,-1.007768 2.695303,-1.7753453 4.394532,-2.3027339 1.699205,-0.5272979 3.533187,-0.7909695 5.501953,-0.7910157 1.007794,4.62e-5 2.021465,0.087937 3.041015,0.2636719 1.01951,0.175827 1.980447,0.4102018 2.882813,0.703125 0.902319,0.2930137 1.705053,0.6211383 2.408203,0.9843747 0.703099,0.363325 1.165989,0.656294 1.388672,0.878907 0.222629,0.222699 0.369113,0.39848 0.439453,0.527343 0.07028,0.128949 0.128879,0.293012 0.175781,0.492188 0.04685,0.199261 0.082,0.439495 0.105469,0.720703 0.02341,0.281291 0.03513,0.644572 0.03516,1.089844 -2.8e-5,0.421915 -0.01761,0.796914 -0.05273,1.125 -0.03518,0.328164 -0.08792,0.603554 -0.158203,0.826172 -0.07034,0.222694 -0.16995,0.386756 -0.298828,0.492187 -0.128934,0.105507 -0.275418,0.158241 -0.439453,0.158203 -0.25784,3.8e-5 -0.662136,-0.164024 -1.212891,-0.492187 -0.550807,-0.328087 -1.224634,-0.697227 -2.021484,-1.107422 -0.796898,-0.410117 -1.740257,-0.785116 -2.830079,-1.125 -1.089863,-0.339803 -2.314471,-0.509725 -3.673828,-0.509766 -1.265641,4.1e-5 -2.367202,0.169963 -3.304687,0.509766 -0.937513,0.339884 -1.71095,0.791055 -2.320313,1.353515 -0.609386,0.562539 -1.066417,1.230507 -1.371093,2.003907 -0.304698,0.773474 -0.457042,1.593785 -0.457032,2.460937 -10e-6,1.265659 0.292959,2.355501 0.878907,3.269531 0.585926,0.914094 1.365222,1.722687 2.33789,2.425782 0.972642,0.703153 2.080063,1.347684 3.322266,1.933593 1.24217,0.585965 2.507793,1.177761 3.796875,1.775391 1.289041,0.597681 2.554665,1.25393 3.796875,1.96875 1.242162,0.714867 2.349583,1.558616 3.322265,2.53125 0.972628,0.972676 1.757784,2.121113 2.355469,3.445313 0.597626,1.324234 0.896454,2.888686 0.896485,4.693359 z"
       style="font-size:72px;font-variant:normal;font-stretch:normal;text-align:start;line-height:125%;writing-mode:lr-tb;text-anchor:start;fill:#a7a9ab;font-family:Calibri;-inkscape-font-specification:Calibri"
       id="path2823" />
    <path
       d="m 79.549253,11.475159 c -3.5e-5,0.445355 -0.02347,0.832073 -0.07031,1.160156 -0.04691,0.328166 -0.123081,0.591838 -0.228516,0.791016 -0.105503,0.199259 -0.234409,0.345743 -0.386718,0.439453 -0.152378,0.09379 -0.3223,0.140665 -0.509766,0.140625 l -12.796875,0 0,39.445312 c -2.1e-5,0.187501 -0.0469,0.351563 -0.140625,0.492188 -0.09377,0.140625 -0.257833,0.251953 -0.492187,0.333984 -0.234395,0.08203 -0.544942,0.152344 -0.931641,0.210938 -0.386737,0.05859 -0.873065,0.08789 -1.458984,0.08789 -0.562517,0 -1.042986,-0.0293 -1.441407,-0.08789 -0.398453,-0.05859 -0.714859,-0.128907 -0.949218,-0.210938 -0.23439,-0.08203 -0.398453,-0.193359 -0.492188,-0.333984 -0.09377,-0.140625 -0.14064,-0.304687 -0.140625,-0.492188 l 0,-39.445312 -12.796875,0 c -0.187502,4e-5 -0.357423,-0.04683 -0.509766,-0.140625 -0.152344,-0.09371 -0.275391,-0.240194 -0.36914,-0.439453 -0.09375,-0.199178 -0.169923,-0.46285 -0.228516,-0.791016 -0.05859,-0.328083 -0.08789,-0.714801 -0.08789,-1.160156 -10e-7,-0.445269 0.0293,-0.837847 0.08789,-1.177735 0.05859,-0.339799 0.134765,-0.6151894 0.228516,-0.8261716 0.09375,-0.2108924 0.216796,-0.363236 0.36914,-0.4570312 0.152343,-0.093705 0.322264,-0.1405795 0.509766,-0.140625 l 31.640625,0 c 0.187466,4.55e-5 0.357388,0.04692 0.509766,0.140625 0.152309,0.093795 0.281215,0.2461388 0.386718,0.4570312 0.105435,0.2109822 0.181607,0.4863726 0.228516,0.8261716 0.04684,0.339888 0.07028,0.732466 0.07031,1.177735 z"
       style="font-size:72px;font-variant:normal;font-stretch:normal;text-align:start;line-height:125%;writing-mode:lr-tb;text-anchor:start;fill:#a7a9ab;font-family:Calibri;-inkscape-font-specification:Calibri"
       id="path2825" />
  </g>
</svg>
