<?xml version="1.0" standalone="no"?>
<!DOCTYPE svg PUBLIC "-//W3C//DTD SVG 1.1//EN" "http://www.w3.org/Graphics/SVG/1.1/DTD/svg11.dtd" >
<svg xmlns="http://www.w3.org/2000/svg">
<metadata>
This is a custom SVG webfont generated by Font Squirrel.
Designer    : Yanone
Foundry     : Yanone
Foundry URL : http://yanone.de/typedesign/
</metadata>
<defs>
<font id="webfont2Z8ZAw9C" horiz-adv-x="884" >
<font-face units-per-em="2048" ascent="1638" descent="-410" />
<missing-glyph horiz-adv-x="352" />
<glyph unicode=" "  horiz-adv-x="352" />
<glyph unicode="&#x09;" horiz-adv-x="352" />
<glyph unicode="&#xa0;" horiz-adv-x="352" />
<glyph unicode="!" horiz-adv-x="387" d="M104 82q0 39 24 65.5t65 26.5q45 0 67.5 -25.5t22.5 -66.5t-25 -66.5t-65 -25.5q-89 0 -89 92zM139 391l-14 1024q0 20 28.5 26.5t116.5 6.5l-18 -1006q-2 -33 -24.5 -42t-88.5 -9z" />
<glyph unicode="&#x22;" horiz-adv-x="497" d="M156 1198q-63 -2 -64 -2q-4 23 -12 148.5t-8 199.5q0 57 6 60q27 12 110 2q2 -80 -10 -240t-22 -168zM391 1198l-63 -2q-4 23 -12.5 148.5t-8.5 199.5q0 57 6 60q27 12 111 2q2 -80 -10.5 -240t-22.5 -168z" />
<glyph unicode="#" d="M780 408h-137l-8 -162q-2 -18 -21.5 -22.5t-83.5 -4.5l11 189h-232l-8 -162q-2 -18 -20.5 -22.5t-81.5 -4.5l10 189h-131q0 83 13 91q5 3 13 3h109l14 254h-149q0 83 13 91q5 3 13 3h127l9 147q2 18 20.5 22.5t81.5 4.5l-10 -174h231l8 147q2 18 20.5 22.5t84.5 4.5 l-10 -174h143q0 -63 -4 -78.5t-25 -15.5h-118l-15 -254h162q0 -63 -4.5 -78.5t-24.5 -15.5zM328 756l-15 -254h232l14 254h-231z" />
<glyph unicode="$" d="M381 -250v236q-80 2 -139.5 18t-83 34.5t-23.5 33.5q0 12 11.5 42.5t25.5 45.5q76 -63 227 -64q233 0 234 221q0 66 -31 121.5t-106 128.5l-230 215q-127 123 -127 236q0 102 72 165.5t201 76.5v198q0 31 22.5 41t79.5 10v-247q70 -4 124 -18.5t74.5 -28t20.5 -19.5 q0 -51 -33 -82q-70 47 -213 47q-227 0 -227 -145q0 -78 107 -180l251 -234q133 -127 134 -287q0 -287 -271 -323v-193q0 -29 -21.5 -39t-78.5 -10z" />
<glyph unicode="%" horiz-adv-x="1458" d="M125 1073q0 377 289 377q141 0 206.5 -82t65.5 -293q0 -379 -283 -379q-72 0 -118.5 14.5t-85.5 53.5t-56.5 114.5t-17.5 194.5zM233 1065q0 -162 40 -220.5t128 -58.5q178 0 179 289q0 164 -40 223.5t-126 59.5q-181 0 -181 -293zM772 360q0 377 289 377 q141 0 206.5 -82t65.5 -293q0 -379 -282 -378q-72 0 -119 14t-86 53t-56.5 114.5t-17.5 194.5zM879 350q0 -162 41 -220t129 -58q178 0 178 288q0 164 -40 223.5t-126 59.5q-182 0 -182 -293zM326 -16q-70 14 -70 45l862 1421q66 -18 66 -51q0 -12 -858 -1415z" />
<glyph unicode="&#x26;" horiz-adv-x="1050" d="M483 1446q125 0 210 -28.5t85 -61.5q0 -49 -26 -80q-102 70 -258 70q-109 0 -171.5 -41t-62.5 -156q0 -121 148.5 -359.5t339.5 -463.5q35 111 34 249q0 154 -48 268.5t-124 174.5q80 12 215 12q127 0 181 -4q4 -12 4 -45q0 -27 -16.5 -38t-67.5 -11l-148 2 q113 -131 113 -375q0 -188 -60 -328q109 -121 173 -159q-4 -29 -27 -59.5t-45 -30.5q-33 0 -162 143q-113 -145 -321 -145q-375 0 -375 372q0 121 67.5 221.5t167.5 157.5q-168 281 -168 432q0 145 93 214t249 69zM692 211q-176 201 -330 436q-172 -98 -172 -301 q0 -109 57.5 -184.5t194.5 -75.5q160 0 250 125z" />
<glyph unicode="'" horiz-adv-x="262" d="M156 1198q-63 -2 -64 -2q-4 23 -12 148.5t-8 199.5q0 57 6 60q27 12 110 2q2 -80 -10 -240t-22 -168z" />
<glyph unicode="(" horiz-adv-x="602" d="M256 664q0 -346 97.5 -607.5t201.5 -380.5q-18 -82 -63 -82q-12 0 -49 42t-89.5 132.5t-99.5 210t-80 301t-33 379.5q0 188 35 359.5t83 281t100.5 192.5t88 120t46.5 37q43 0 61 -74q-297 -354 -299 -911z" />
<glyph unicode=")" horiz-adv-x="602" d="M346 664q-2 315 -92 546.5t-207 364.5q18 74 62 74q10 0 44.5 -36t87 -118t101.5 -191.5t83 -281.5t34 -363q0 -193 -33 -371.5t-80 -299.5t-98 -213t-88 -136.5t-49 -44.5q-45 0 -64 82q45 57 90 136t95.5 201t82 293.5t31.5 357.5z" />
<glyph unicode="*" horiz-adv-x="966" d="M543 1384l-31 -337q-4 -35 -55 -25l-33 350q-2 27 40 29.5t79 -17.5zM567 1006l320 151q31 -23 38 -66.5t-22 -52.5l-340 -98q-35 46 4 66zM125 1149l287 -158q2 -27 -8.5 -39t-28.5 -4l-332 103q-2 47 27.5 78.5t54.5 19.5zM686 512l-178 332q-8 16 -1 26.5t36 20.5 l229 -295q18 -25 -12.5 -51.5t-73.5 -32.5zM154 602l243 272q27 27 58 -12l-199 -319q-25 -25 -55.5 -2.5t-46.5 61.5z" />
<glyph unicode="+" d="M774 526h-278v-280q0 -18 -18.5 -22.5t-84.5 -4.5v307h-307v50q0 14 3 29.5t8 19.5t16 4h280v278q0 20 19.5 24.5t83.5 4.5v-307h307q0 -63 -4.5 -83t-24.5 -20z" />
<glyph unicode="," horiz-adv-x="368" d="M113 88q0 37 22.5 60.5t57.5 23.5q84 0 83 -96q0 -90 -53 -193.5t-84 -103.5q-37 0 -47 37q57 98 62 190q-41 25 -41 82z" />
<glyph unicode="-" horiz-adv-x="593" d="M477 526h-389v50q0 14 3 29.5t8 19.5t16 4h391q0 -63 -4.5 -83t-24.5 -20z" />
<glyph unicode="." horiz-adv-x="368" d="M100 82q0 39 23.5 65.5t62.5 26.5q90 0 90 -92q0 -39 -24.5 -65.5t-65.5 -26.5q-86 0 -86 92z" />
<glyph unicode="/" horiz-adv-x="628" d="M608 1567l-461 -1577q-8 -23 -27.5 -27t-99.5 -4l463 1573q8 25 26.5 30t98.5 5z" />
<glyph unicode="0" d="M74 606q0 311 90 467t289 156q195 0 276.5 -143.5t81.5 -452.5q0 -330 -86 -489.5t-287 -159.5q-197 0 -280.5 149t-83.5 473zM195 592q0 -270 57 -388t186 -118q137 0 196.5 134t59.5 419q0 254 -52 370.5t-183 116.5q-141 0 -202.5 -134t-61.5 -400z" />
<glyph unicode="1" d="M160 1063q-16 23 -17 82q0 12 167 49t200 37q16 0 33 -8l-25 -1117h180l113 7q0 -113 -18 -113h-717q-2 18 -2 84q0 23 323 22l29 1006q-39 -2 -266 -49z" />
<glyph unicode="2" d="M133 1040q-14 37 -14 86q0 18 43 42t129 42.5t184 18.5q170 0 232.5 -64.5t62.5 -203.5q0 -111 -59.5 -225.5t-134.5 -199.5l-184 -209q-107 -124 -169 -221h379l209 9q0 -115 -20 -115h-709q-8 16 -8 43q0 12 1 21.5t6 20.5t9 17l16 25q11 18 17 29q57 94 157 210 l176 198q74 81 131.5 186.5t57.5 201.5q0 82 -41 125t-145 43q-205 0 -326 -80z" />
<glyph unicode="3" d="M496 621q129 -12 210.5 -85t81.5 -223q0 -236 -126.5 -377t-333.5 -141q-109 0 -168.5 29t-59.5 61q0 41 15 88q82 -70 217 -69q152 0 244 115.5t92 293.5q0 57 -19.5 100.5t-49.5 68t-76 40t-90 20.5t-101 7l-2 76q287 160 286 342q0 154 -182 153q-197 0 -317 -82 q-12 29 -13 84q0 23 40 47.5t124 42t189 17.5q285 0 284 -238q1 -198 -245 -370z" />
<glyph unicode="4" d="M647 1223l-6 -801l176 4l4 -43q0 -68 -37 -68h-143v-274q0 -31 -13.5 -36t-99.5 -5v315h-419q-31 31 -31 88q0 102 155.5 394.5t298.5 421.5q20 18 54 18q24 0 61 -14zM180 422h348l19 661q-106 -117 -217 -307t-150 -354z" />
<glyph unicode="5" d="M156 1229h626q0 -68 -10 -85.5t-53 -17.5l-465 4l-39 -354q57 14 143 15q74 2 139.5 -11.5t137.5 -51.5t115 -123t43 -208q0 -602 -474 -602q-76 0 -133 15.5t-81.5 34t-24.5 32.5q0 51 14 94q76 -70 221 -69q188 0 273.5 132t85.5 349q0 311 -361 311q-37 0 -76.5 -5 t-63 -10t-48.5 -11t-27 -6z" />
<glyph unicode="6" d="M549 1329q-154 0 -252 -154.5t-111 -463.5q102 186 320 186q141 0 225 -98.5t84 -298.5q0 -518 -389 -518q-88 0 -151.5 30.5t-101.5 80.5t-59.5 134t-28.5 171t-7 210q0 223 37 387t102.5 258.5t148.5 138.5t183 44q223 0 223 -62q0 -43 -10 -80q-88 35 -213 35z M475 791q-180 0 -289 -203q-4 -248 49.5 -375t194.5 -127q131 0 203 105.5t72 281.5q-1 318 -230 318z" />
<glyph unicode="7" d="M106 1229h738q-436 -717 -557 -1403q-115 0 -115 29q72 373 215 719t289 554q-82 -4 -535 -4q-35 1 -35 105z" />
<glyph unicode="8" d="M449 1446q356 0 356 -330q0 -207 -246 -354q72 -45 127 -92q133 -123 133 -299q0 -178 -91 -282.5t-265 -104.5q-193 0 -287 105.5t-94 281.5q0 131 73.5 238.5t184.5 162.5q-92 53 -131 90q-113 84 -113 238q0 168 100.5 257t252.5 89zM590 616q-47 41 -141 97 q-111 -41 -186 -132.5t-75 -203.5q0 -129 70 -208t199 -79q119 0 186.5 77t67.5 204q0 141 -121 245zM459 1339q-109 0 -180.5 -58t-71.5 -175q0 -123 112 -201q29 -23 140 -86q240 117 239 293q0 127 -70.5 177t-168.5 50z" />
<glyph unicode="9" d="M285 -104q383 0 415 616q-102 -186 -311 -186q-139 0 -227 103t-88 300q0 520 389 520q209 0 276.5 -138t71.5 -486q-2 -426 -129 -631t-387 -205q-172 0 -172 49q0 47 8 76q68 -18 154 -18zM420 432q170 0 285 203v4q0 123 -8.5 205t-32 155.5t-73.5 109.5t-126 36 q-281 0 -281 -397q0 -158 62.5 -237t173.5 -79z" />
<glyph unicode=":" horiz-adv-x="368" d="M100 82q0 39 23.5 65.5t62.5 26.5q90 0 90 -92q0 -39 -24.5 -65.5t-65.5 -26.5q-86 0 -86 92zM100 791q0 39 23.5 65.5t62.5 26.5q90 0 90 -92q0 -39 -24.5 -66t-65.5 -27q-86 1 -86 93z" />
<glyph unicode=";" horiz-adv-x="368" d="M102 791q0 39 24 65.5t62 26.5q90 0 91 -92q0 -39 -25 -66t-66 -27q-86 1 -86 93zM106 88q0 37 23 60.5t59 23.5q84 0 84 -96q0 -90 -54 -193.5t-85 -103.5q-39 0 -47 37q57 94 61 190q-41 25 -41 82z" />
<glyph unicode="&#x3c;" horiz-adv-x="819" d="M696 754l-458 -226l487 -213q-2 -39 -18.5 -64.5t-34.5 -25.5q-8 0 -47 15l-514 225q-20 29 -21 67q0 43 39 64l549 268q39 -37 39 -76q-1 -26 -21 -34z" />
<glyph unicode="=" d="M774 705h-688v49q0 14 3 29.5t8 19.5t16 4h690q0 -66 -4.5 -84t-24.5 -18zM774 348h-688v50q0 14 3 29t8 19.5t16 4.5h690q0 -66 -4.5 -84.5t-24.5 -18.5z" />
<glyph unicode="&#x3e;" horiz-adv-x="819" d="M125 324l459 225l-486 213q0 37 16.5 63.5t35.5 26.5q10 0 49 -14l514 -226q18 -31 18 -67q0 -45 -39 -64l-549 -270q-39 39 -39 76q1 29 21 37z" />
<glyph unicode="?" horiz-adv-x="604" d="M178 82q0 39 23.5 65.5t62.5 26.5q90 0 90 -92q0 -39 -24.5 -65.5t-65.5 -26.5q-86 0 -86 92zM293 1454q125 0 206 -68.5t81 -222.5q0 -82 -29 -159.5t-63.5 -126t-82 -109.5t-65.5 -96q-39 -61 -39 -140q0 -27 5 -56.5t8 -39.5t-1 -20q-18 -23 -102 -13q-23 51 -23 125 q0 94 48 179q25 45 89 130t99 155.5t35 152.5q0 197 -197 196q-119 0 -196 -61q-14 35 -15 90q0 29 76 56.5t166 27.5z" />
<glyph unicode="@" horiz-adv-x="1544" d="M1327 705q0 322 -113.5 458.5t-388.5 136.5q-297 0 -450.5 -177t-153.5 -595q0 -207 27.5 -355t73 -235.5t121 -136.5t153.5 -64.5t188 -15.5q258 0 480 107q31 -51 30 -86q0 -23 -58 -51.5t-179 -53t-262 -24.5q-92 0 -158 6t-142.5 28.5t-129 61.5t-104.5 107.5 t-83 166t-50 237.5t-19 321q0 449 190 655.5t528 206.5q313 0 463 -160t150 -518q0 -193 -27 -334t-62.5 -213t-86 -113.5t-84 -51t-68.5 -9.5q-78 0 -129 51q-78 -53 -227 -53q-127 -2 -194.5 60.5t-63.5 248.5q4 182 86 255t221 73q82 0 125 -16q2 76 4 129 q2 92 -39 125.5t-125 33.5q-133 0 -219 -49q-12 25 -12 64q0 23 18 35q76 49 250 49q121 0 178 -55.5t53 -186.5l-12 -440q-8 -170 -10 -199q40 -25 86 -25q23 0 48.5 12.5t58 52.5t58 102.5t43 175.5t17.5 258zM915 180l13 367q-45 10 -101 10q-104 0 -162.5 -55.5 t-60.5 -194.5q-4 -129 38 -173t126 -44q55 0 100 24.5t47 65.5z" />
<glyph unicode="A" horiz-adv-x="892" d="M762 0l-103 395h-426l-94 -372q-4 -25 -55 -25q-41 0 -70 4l387 1421q4 18 39 19q31 0 49 -6l388 -1409q4 -16 -6.5 -22.5t-41.5 -6.5q-38 0 -67 2zM358 879l-98 -379h371l-99 379q-78 303 -86 401q-14 -127 -88 -401z" />
<glyph unicode="B" horiz-adv-x="802" d="M113 0v1399q0 35 51 35h205q342 0 342 -312q0 -162 -61.5 -240.5t-139.5 -90.5q39 -2 76 -15.5t78 -43.5t66.5 -92t25.5 -151q0 -117 -27 -206.5t-66.5 -142t-95 -85t-104.5 -44t-101 -11.5h-249zM225 1333v-504h154q211 0 211 273q0 231 -219 231h-146zM225 731v-629 h137q115 0 190 88.5t75 288.5q0 86 -18.5 138.5t-59.5 76t-81 30.5t-106 7h-137z" />
<glyph unicode="C" horiz-adv-x="722" d="M477 1456q92 0 141.5 -32.5t49.5 -69.5t-21 -70q-72 63 -153 64q-49 0 -87 -13.5t-79 -56.5t-69 -117t-45 -205t-17 -309q0 -168 19.5 -281.5t56 -169t75.5 -76t92 -20.5q66 0 125.5 28t87.5 62q20 -37 21 -71q0 -51 -75 -96.5t-179 -45.5q-59 0 -100 10.5t-90.5 49.5 t-79 108.5t-50 197.5t-20.5 306q0 207 24.5 359.5t61.5 236.5t93 133t105.5 63.5t112.5 14.5z" />
<glyph unicode="D" horiz-adv-x="847" d="M166 1434h205q203 0 300 -147.5t97 -493.5q0 -233 -29.5 -394t-87 -245t-126 -119t-163.5 -35h-247v1399q0 35 51 35zM645 801q0 287 -65.5 407.5t-210.5 120.5h-142v-1220h138q47 0 83.5 13t75.5 56t63.5 117t41 202t16.5 304z" />
<glyph unicode="E" horiz-adv-x="690" d="M227 104h404q0 -74 -3 -89t-22 -15h-489v1405q0 29 26 29h490q0 -97 -11 -103q-3 -2 -10 -2h-385v-493h361q0 -70 -3 -87.5t-22 -17.5h-336v-627z" />
<glyph unicode="F" horiz-adv-x="669" d="M203 0h-86v1405q0 29 26 29h490q0 -94 -10 -99q-3 -2 -11 -2h-385v-495h361q0 -72 -3 -89.5t-22 -17.5h-336v-704q3 -27 -24 -27z" />
<glyph unicode="G" horiz-adv-x="817" d="M506 1454q92 0 153.5 -28.5t61.5 -65.5q0 -33 -16 -70q-72 55 -179 56q-113 0 -182.5 -52.5t-110 -198t-40.5 -395.5q0 -197 19 -323.5t58 -186t82 -80t108.5 -20.5t110.5 25.5t58 52.5v551h-201v69q0 27 31 27h276v-721q-109 -115 -278 -114q-78 0 -133.5 16t-105.5 62 t-79.5 126t-47 207t-17.5 303q0 229 29.5 383t90 234t134.5 111.5t178 31.5z" />
<glyph unicode="H" d="M659 0v727h-434v-700q0 -20 -14 -23.5t-98 -3.5v1405q0 20 14 24.5t98 4.5v-600h434v571q0 20 14.5 24.5t98.5 4.5v-1407q0 -20 -14.5 -23.5t-98.5 -3.5z" />
<glyph unicode="I" horiz-adv-x="337" d="M111 0v1376q0 43 15 50.5t99 7.5v-1407q0 -20 -14 -23.5t-100 -3.5z" />
<glyph unicode="J" horiz-adv-x="618" d="M393 377v1001q0 41 14.5 48.5t98.5 7.5v-1090q0 -61 -5 -108.5t-20.5 -97.5t-43 -82.5t-76 -54t-113.5 -21.5q-98 0 -151.5 32.5t-53.5 75.5q0 37 20 70q70 -74 173 -74q53 0 85.5 20.5t48 66.5t19.5 89t4 117z" />
<glyph unicode="K" horiz-adv-x="804" d="M111 0v1405q0 20 14 24.5t98 4.5v-625l412 618q27 6 72 7q68 0 43 -39l-412 -586q274 -176 416 -776q4 -20 -5.5 -27.5t-37.5 -7.5q-49 0 -74 2q-82 279 -153.5 430.5t-159.5 239.5q-35 35 -101 65v-708q0 -20 -14 -23.5t-98 -3.5z" />
<glyph unicode="L" horiz-adv-x="673" d="M227 1434v-1328h406v-79q0 -27 -29 -27h-491v1393q0 31 14 36t100 5z" />
<glyph unicode="M" horiz-adv-x="1019" d="M113 0v1405q0 29 26 29h76l223 -719l72 -246l70 240l215 696q10 29 28 29h86v-1407q0 -20 -14 -23.5t-100 -3.5l4 592l18 577l-153 -512l-119 -348q-6 -18 -23 -18h-53l-115 366q-4 10 -30 97l-65 214l-58 193q18 -430 20 -555l2 -579q0 -20 -15 -23.5t-95 -3.5z" />
<glyph unicode="N" horiz-adv-x="933" d="M717 0l-252 575q-57 135 -250 642q8 -303 8 -689v-501q0 -20 -13 -23.5t-97 -3.5v1405q0 29 26 29h80l246 -566q39 -109 254 -647q-10 154 -10 699v485q0 20 14 24.5t98 4.5v-1407q0 -27 -26 -27h-78z" />
<glyph unicode="O" horiz-adv-x="913" d="M78 727q0 391 95 559t298 168q201 0 283 -159.5t82 -565.5q0 -410 -91.5 -579.5t-295.5 -169.5q-203 0 -287 161.5t-84 585.5zM203 692q0 -326 56 -461t194 -135q141 0 201.5 144.5t60.5 490.5q0 338 -55.5 473t-192.5 135t-200.5 -148.5t-63.5 -498.5z" />
<glyph unicode="P" horiz-adv-x="757" d="M113 0v1405q0 29 26 29h213q358 0 359 -390q0 -223 -98.5 -330.5t-268.5 -107.5h-121v-579q0 -20 -13 -23.5t-97 -3.5zM588 1053q0 279 -226 278h-139v-618h129q236 0 236 340z" />
<glyph unicode="Q" horiz-adv-x="913" d="M78 727q0 391 95 559t298 168q201 0 283 -159.5t82 -565.5q0 -356 -69 -529t-218 -208q16 -94 45 -132t80 -38q76 0 133 35q18 -25 18 -62q0 -33 -54 -51t-118 -18q-92 0 -146 59t-85 195q-125 6 -198.5 75.5t-109.5 230t-36 441.5zM203 692q0 -326 56 -461t194 -135 q141 0 201.5 144.5t60.5 490.5q0 338 -55.5 473t-192.5 135t-200.5 -148.5t-63.5 -498.5z" />
<glyph unicode="R" horiz-adv-x="776" d="M113 0v1405q0 29 26 29h213q358 0 359 -390q0 -324 -211 -411q174 -227 207 -602q2 -18 -8.5 -24.5t-47.5 -8.5q-37 0 -63 2q-43 410 -199 608q-14 -2 -45 -2h-121v-579q0 -20 -13 -23.5t-97 -3.5zM588 1049q0 283 -226 282h-139v-618h129q236 0 236 336z" />
<glyph unicode="S" horiz-adv-x="755" d="M416 1454q127 0 192.5 -26.5t65.5 -63.5t-31 -68q-74 55 -219 56q-106 0 -170 -47.5t-64 -124.5q0 -94 113 -222l244 -251q84 -90 115.5 -169t31.5 -184q0 -172 -86 -273t-270 -101q-129 0 -199.5 34.5t-70.5 73.5q0 47 32 80q78 -74 230 -74q246 0 245 250 q0 86 -31.5 155.5t-111.5 155.5l-221 232q-139 156 -139 291q0 123 91 199.5t253 76.5z" />
<glyph unicode="T" horiz-adv-x="751" d="M711 1327h-283v-1300q0 -20 -14.5 -23.5t-98.5 -3.5v1327h-301v78q0 29 27 29h696v-80q1 -27 -26 -27z" />
<glyph unicode="U" horiz-adv-x="937" d="M227 1434v-998q0 -66 4.5 -111.5t19.5 -94t43 -78t75 -48t114 -18.5q143 0 230 43v1278q0 20 15 23.5t99 3.5v-1383q-43 -29 -140 -50t-204 -21q-98 0 -167.5 25.5t-108.5 64.5t-60.5 103.5t-27.5 123.5t-6 143v965q0 20 14 24.5t100 4.5z" />
<glyph unicode="V" horiz-adv-x="862" d="M14 1395q-6 20 -2 29.5t25 9.5h90l227 -897q33 -143 86 -435q47 285 80 435l207 856q6 41 33 41h92l-350 -1446q-74 -6 -88 -6q-43 0 -74 120z" />
<glyph unicode="W" horiz-adv-x="1316" d="M12 1395q-6 39 25 39h90l188 -899q33 -180 62 -398h8q12 162 55 398l158 784q6 39 33 39h80l180 -823q16 -76 26.5 -140.5t20.5 -142.5t14 -113h9q29 256 55 396l168 858q6 41 33 41h92l-289 -1446q-49 -6 -88 -6q-37 0 -62 104l-153 664q-16 70 -62 389l-57 -387 l-160 -764q-53 -4 -94 -4q-35 0 -61 122z" />
<glyph unicode="X" horiz-adv-x="872" d="M813 1434l-297 -691l332 -720q10 -23 -17 -23h-116l-140 307l-143 338q-72 -178 -145 -336l-140 -295q-8 -14 -28 -14h-99l345 743l-289 670q-6 15 11 18q17 2 118 3l104 -248q74 -172 137 -346q51 133 142 346l98 227q6 16 20.5 18.5t106.5 2.5z" />
<glyph unicode="Y" horiz-adv-x="739" d="M317 0v582l-305 833q-5 14 12 16q16 2 115 3l99 -293q39 -106 86 -262t53 -193q16 109 139 457l90 270q4 14 20.5 17.5t102.5 3.5l-299 -848v-559q0 -20 -13.5 -23.5t-99.5 -3.5z" />
<glyph unicode="Z" horiz-adv-x="804" d="M102 1327v78q0 29 29 29h610q12 -16 13 -39q0 -27 -13 -58l-569 -1235h461q76 0 108 13v-88q0 -27 -26 -27h-649q-18 14 -19 45q0 29 10 55l564 1231h-435q-64 0 -84 -4z" />
<glyph unicode="[" horiz-adv-x="849" d="M393 1681h436q0 -70 -7 -86t-40 -16h-364v-1878h409q0 -74 -9 -90.5t-40 -16.5h-473v2046q0 27 14.5 34t73.5 7z" />
<glyph unicode="\" horiz-adv-x="620" d="M131 1567l467 -1598q6 -23 -11.5 -26.5t-97.5 -3.5l-466 1593q-6 25 11 30t97 5z" />
<glyph unicode="]" horiz-adv-x="849" d="M455 -410h-435q0 70 7.5 86.5t40.5 16.5h364v1884h-409q0 74 9 90t40 16h473v-2052q0 -27 -15.5 -34t-74.5 -7z" />
<glyph unicode="^" horiz-adv-x="880" d="M436 647l-221 -190q-31 -23 -45 -23q-23 0 -37 17.5t-16 42.5l329 299l291 -267q20 -18 21 -37q0 -23 -16.5 -39t-41.5 -18z" />
<glyph unicode="_" horiz-adv-x="784" d="M723 -193h-690q0 66 4 84.5t24 18.5h689v-50q0 -14 -3.5 -29t-8.5 -19.5t-15 -4.5z" />
<glyph unicode="`" horiz-adv-x="331" d="M289 1194q-6 0 -140.5 101.5t-148.5 115.5q4 27 19.5 57.5t33.5 30.5q6 0 134 -108.5t145 -130.5q-23 -66 -43 -66z" />
<glyph unicode="a" horiz-adv-x="751" d="M74 950q0 29 16 41q33 20 125 36.5t197 16.5q127 0 186 -56t59 -191v-123q0 -354 -10 -621q-121 -74 -278 -73q-51 0 -88 4t-79 21.5t-67.5 50t-43 90t-17.5 139.5q0 104 24.5 173.5t71.5 102.5t95 45t114 12q109 0 168 -24v180q0 94 -41 128t-121 34q-180 0 -295 -51 q-16 32 -16 65zM547 510q-55 20 -133 20q-106 0 -165 -47t-59 -194q0 -70 14.5 -115t45.5 -64.5t59.5 -25.5t75.5 -6q102 0 152 45q10 143 10 387z" />
<glyph unicode="b" horiz-adv-x="821" d="M119 41v1409q0 39 19.5 47t92.5 8v-544q104 84 254 83q131 -2 200 -92t69 -301q0 -172 -27 -299t-65.5 -196.5t-95 -111.5t-104.5 -53t-108 -11q-157 0 -235 61zM231 860v-741q41 -37 138 -37q262 0 262 539q0 178 -46 248.5t-149 70.5q-125 0 -205 -80z" />
<glyph unicode="c" horiz-adv-x="677" d="M623 962.5q0 -32.5 -15 -67.5q-68 47 -159 47q-39 0 -70 -8t-67 -36t-59.5 -75t-39.5 -134t-16 -206q0 -236 55 -318.5t168 -82.5q119 0 188 61q14 -35 15 -65q0 -37 -68 -67.5t-166 -30.5q-76 0 -127 18t-95 70.5t-64.5 157t-20.5 263.5q0 141 23.5 246t58.5 163t86 92 t97 44t104 10q72 0 122 -24.5t50 -57z" />
<glyph unicode="d" horiz-adv-x="823" d="M594 123l-2 780q-51 41 -135 41q-111 0 -181.5 -107.5t-70.5 -342.5q0 -174 30.5 -267.5t73.5 -118t117 -26.5q105 0 168 41zM592 999v451q0 39 20.5 47t94.5 8v-1464q-119 -61 -291 -61q-78 0 -130.5 16t-102.5 64.5t-74.5 153.5t-24.5 269q0 281 95 421t245 140 q105 0 168 -45z" />
<glyph unicode="e" horiz-adv-x="768" d="M444 1044q258 0 258 -323q0 -150 -20 -246q-182 -37 -489 -37q0 -143 31.5 -222t79.5 -102.5t128 -23.5q147 0 246 70q14 -37 14 -80q0 -37 -84 -68.5t-194 -31.5q-80 0 -135.5 17t-104.5 65.5t-72.5 146.5t-23.5 248q0 152 22.5 262t56 171.5t86 97.5t97.5 46t104 10z M434 942q-45 0 -80 -14.5t-71.5 -53t-60 -125.5t-27.5 -217q274 0 389 29q8 66 8 137q-2 129 -36 186.5t-122 57.5z" />
<glyph unicode="f" horiz-adv-x="507" d="M186 926h-155q0 70 4 84t26 14h125v129q0 92 21.5 159.5t53.5 104.5t79 60.5t88 29.5t92 6q176 0 176 -63q0 -23 -12 -64q-68 25 -152 25q-49 0 -84.5 -8t-72.5 -31.5t-56.5 -78t-19.5 -136.5v-133h213q0 -70 -4 -84t-25 -14h-184v-899q0 -27 -29 -27h-84v926z" />
<glyph unicode="g" horiz-adv-x="825" d="M438 1044q43 0 92 -12h254q12 -31 13 -53q0 -45 -47 -45q-53 0 -111 12q113 -74 113 -254q0 -170 -81 -273.5t-251 -103.5q-72 0 -117 15q-86 -70 -86 -117t297 -84q133 -18 203.5 -66.5t70.5 -158.5q0 -129 -102 -218t-295 -89q-324 0 -323 217q0 72 48 139t120 119 q-66 18 -102 45.5t-34 62.5q0 78 129 180q-129 80 -129 314q0 184 93 277t245 93zM434 956q-96 0 -156.5 -70.5t-60.5 -209.5q0 -131 43 -199.5t168 -68.5q104 0 157.5 85t53.5 222q0 241 -205 241zM444 39q-78 8 -114 14q-59 -41 -103.5 -101.5t-44.5 -115.5 q0 -66 45 -100.5t174 -34.5t201 57.5t72 130.5q0 78 -53.5 108t-176.5 42z" />
<glyph unicode="h" horiz-adv-x="811" d="M111 0v1450q0 39 19.5 47t92.5 8v-549q111 88 260 88q137 0 186.5 -67.5t49.5 -206.5v-743q0 -20 -15.5 -23.5t-99.5 -3.5v745q0 94 -34.5 143.5t-129.5 49.5q-129 0 -217 -82v-829q0 -20 -14 -23.5t-98 -3.5z" />
<glyph unicode="i" horiz-adv-x="350" d="M233 1024v-997q0 -20 -15 -23.5t-101 -3.5v969q0 39 21 47t95 8zM113 1370q0 94 67 94q63 0 64 -92q-4 -96 -70 -96q-63 0 -61 94z" />
<glyph unicode="j" horiz-adv-x="372" d="M244 1024v-1100q0 -156 -53.5 -239.5t-198.5 -83.5q-104 0 -163.5 27.5t-59.5 66.5t18 63q88 -53 197 -53q92 0 119.5 54.5t27.5 187.5v1022q0 39 19.5 47t93.5 8zM127 1370q0 94 68 94q63 0 63 -92q-4 -96 -70 -96q-63 0 -61 94z" />
<glyph unicode="k" horiz-adv-x="802" d="M117 0v1450q0 39 19.5 47t92.5 8v-585q59 59 140.5 91.5t148.5 32.5q180 0 180 -180q0 -63 -24.5 -121.5t-64.5 -98.5t-68.5 -62.5t-57.5 -38.5q82 -14 156 -92t94 -220q6 -43 6 -94t-6 -108q-3 -22 -20 -26q-16 -3 -107 -3q8 63 8 127q0 98 -18 162 q-33 115 -105.5 156.5t-140.5 25.5l-121 -45v-399q0 -20 -13 -23.5t-99 -3.5zM575 836q0 104 -104 104q-131 0 -242 -131v-295q346 119 346 322z" />
<glyph unicode="l" horiz-adv-x="348" d="M229 1505v-1478q0 -20 -14 -23.5t-98 -3.5v1450q0 39 19 47t93 8z" />
<glyph unicode="m" horiz-adv-x="1212" d="M557 0v801q-4 78 -30.5 110.5t-108.5 32.5q-92 0 -189 -45v-872q0 -20 -15 -23.5t-97 -3.5v977q154 68 303 67q141 0 196 -73q115 74 261 73q141 0 185 -68.5t44 -227.5v-721q0 -20 -14.5 -23.5t-98.5 -3.5v754q0 106 -26.5 147t-108.5 41q-104 0 -188 -55v-860 q0 -18 -11 -23h-2q-12 -4 -100 -4z" />
<glyph unicode="n" horiz-adv-x="821" d="M113 0v973q166 72 331 71q160 0 220.5 -65.5t60.5 -214.5v-737q0 -20 -14.5 -23.5t-100.5 -3.5v733q0 117 -33.5 164t-136.5 47q-127 0 -215 -47v-870q0 -20 -14 -23.5t-98 -3.5z" />
<glyph unicode="o" horiz-adv-x="784" d="M63 510q0 535 343 534q166 0 241.5 -114.5t75.5 -417.5q0 -532 -340 -532q-82 0 -135 18t-98.5 72.5t-66 162t-20.5 277.5zM184 502q0 -172 26 -267.5t66.5 -126t110.5 -30.5q215 0 215 438q0 252 -48 340t-153 88q-106 0 -161.5 -99t-55.5 -343z" />
<glyph unicode="p" horiz-adv-x="819" d="M117 -356v1319q133 82 295 81q168 0 253 -96t85 -336q0 -160 -22.5 -278.5t-57.5 -184t-82 -105.5t-88 -52t-86 -12q-127 0 -185 73v-448q-37 -8 -59 -8q-53 0 -53 47zM229 893v-717q55 -94 154 -94q244 6 244 508q0 205 -52.5 279.5t-168.5 74.5q-99 0 -177 -51z" />
<glyph unicode="q" horiz-adv-x="835" d="M719 981v-1337q0 -33 -12.5 -41.5t-57.5 -8.5q-8 0 -23.5 1.5t-21.5 1.5v491q-74 -109 -229 -108q-293 0 -293 473q0 303 110.5 447t303.5 144q133 0 223 -63zM604 211v696q-45 37 -133 37q-266 0 -266 -493q0 -369 209 -369q57 -2 110 30.5t80 98.5z" />
<glyph unicode="r" horiz-adv-x="563" d="M113 0v954q133 90 274 90q147 0 148 -71q0 -35 -17 -68q-53 31 -115 31q-100 0 -176 -57v-852q0 -20 -15 -23.5t-99 -3.5z" />
<glyph unicode="s" horiz-adv-x="753" d="M418 1044q88 0 151.5 -19t86 -41.5t22.5 -41.5q0 -31 -27 -63q-100 66 -223 65q-96 0 -155.5 -35t-59.5 -98q0 -76 100 -143l222 -158q139 -115 139 -254q0 -133 -89 -204.5t-247 -71.5q-117 0 -187.5 25.5t-70.5 62t24 69.5q88 -53 224 -53q221 0 221 158 q0 113 -115 198l-215 156q-80 55 -107.5 104.5t-27.5 110.5q0 109 89 171t245 62z" />
<glyph unicode="t" horiz-adv-x="610" d="M207 297v627h-152q0 68 4 84t23 16h125v324q0 33 18.5 39t93.5 6v-369h248q0 -68 -4 -84t-20 -16h-224v-629q0 -74 4.5 -113t26 -70.5t64.5 -31.5q61 0 133 33q8 -33 8 -60q0 -37 -48 -55t-118 -18q-61 0 -99 21.5t-55.5 69.5t-22.5 96t-5 130z" />
<glyph unicode="u" horiz-adv-x="851" d="M731 1024v-973q-137 -72 -311 -71.5t-237.5 83t-63.5 283.5v649q0 23 14 26t100 3v-692q0 -145 40 -198.5t157 -53.5q111 0 188 47v868q0 20 15.5 24.5t97.5 4.5z" />
<glyph unicode="v" horiz-adv-x="729" d="M291 86l-238 901q-8 27 8.5 32t106.5 5l88 -356q29 -109 57.5 -244t43.5 -216l16 -81h2q49 297 108 543l80 325q4 20 19.5 24.5t97.5 4.5l-262 -1036q-33 -4 -76 -4q-24 0 -51 102z" />
<glyph unicode="w" horiz-adv-x="1132" d="M49 995q-4 20 12.5 24.5t106.5 4.5l82 -373q53 -255 96 -510h6q12 74 88 445l72 375q2 29 39 28h74l88 -407q23 -94 46 -204t35 -173l11 -64h8q16 164 86 510l70 344q4 20 19.5 24.5t94.5 4.5q-227 -1036 -233 -1036q-33 -4 -70 -4q-14 0 -31.5 30.5t-29.5 81.5l-33 142 q-74 301 -119 571q-57 -350 -110 -573l-56 -248q-59 -4 -87.5 -4t-49.5 100z" />
<glyph unicode="x" horiz-adv-x="894" d="M819 1024l-297 -479l320 -516q14 -21 -3 -25q-16 -4 -120 -4l-107 164q-72 115 -172 295q-43 -80 -170 -297l-92 -139q-8 -16 -27.5 -19.5t-105.5 -3.5l332 537l-285 467q-7 15 10 17q18 3 109 3l104 -164q96 -162 140 -244l143 248l92 140q8 16 23.5 18t105.5 2z" />
<glyph unicode="y" horiz-adv-x="757" d="M334 -33l-266 1022q-6 27 8 31t100 4l154 -602q10 -43 59 -318q18 141 55 320l138 565q4 27 19 31t101 4l-270 -1087q-45 -182 -110.5 -257t-169.5 -75q-150 0 -150 61q0 37 21 66q57 -29 124 -29q130 0 187 264z" />
<glyph unicode="z" horiz-adv-x="745" d="M106 1024h566q12 -12 12 -37q0 -31 -14 -59l-477 -822h237q176 0 248 17q2 -12 2 -53q0 -70 -43 -70h-557q-20 18 -21 57q0 25 13 45l481 824h-248q-150 0 -231 -11q-4 27 -4 56q-1 53 36 53z" />
<glyph unicode="{" horiz-adv-x="583" d="M526 1524q23 -33 23 -70t-29 -41q-96 -4 -146 -44t-50 -134q0 -43 12 -175t12 -220q0 -174 -121 -224q61 -23 91 -64.5t30 -127.5q0 -90 -12 -225.5t-12 -188.5q0 -129 47 -167t164 -48q6 -29 6 -43q0 -59 -43 -59q-154 0 -221.5 63.5t-67.5 210.5q0 70 14.5 205 t14.5 219q0 80 -31 116t-92 48q-8 25 -9 51q0 45 31 62q37 23 53.5 37t32 54t15.5 105q0 82 -14.5 219.5t-14.5 200.5q0 240 317 240z" />
<glyph unicode="|" horiz-adv-x="724" d="M418 1669v-2048q0 -23 -16.5 -27t-96.5 -4v2044q0 25 16.5 30t96.5 5z" />
<glyph unicode="}" horiz-adv-x="583" d="M57 -307q-20 27 -20 67q0 37 26 41q98 4 148.5 44t50.5 135q0 45 -12 177t-12 220q0 98 30.5 147t89.5 76q-59 20 -89.5 63.5t-30.5 129.5q0 90 12 224t12 189q0 127 -47 165t-166 50q-4 33 -4 43q0 59 41 60q154 0 221.5 -63.5t67.5 -211.5q0 -70 -14.5 -206t-14.5 -220 q0 -80 31 -115.5t92 -48.5q10 -23 10 -49q0 -43 -30 -63q-39 -23 -55.5 -37t-32 -54t-15.5 -106q0 -80 14.5 -218t14.5 -202q-1 -237 -318 -237z" />
<glyph unicode="~" horiz-adv-x="819" d="M25 535q31 47 96 87t151 40q70 0 148 -50.5t139 -50.5q92 0 160 82q25 20 48.5 3t29.5 -56q-88 -133 -248 -133q-80 0 -159 50t-128 50q-39 0 -72.5 -14.5t-67.5 -41t-38 -28.5q-18 -8 -36.5 10.5t-22.5 51.5z" />
<glyph unicode="&#xa1;" horiz-adv-x="387" d="M287 948q0 -39 -23.5 -65.5t-62.5 -26.5q-90 0 -90 92q0 41 24.5 66.5t65.5 25.5q86 0 86 -92zM252 649l16 -1022q0 -20 -28.5 -26.5t-116.5 -6.5l18 1002q2 33 25 43t86 10z" />
<glyph unicode="&#xa2;" d="M580 1307v-267q55 -4 101 -24.5t46 -38.5q0 -53 -14 -84q-72 45 -148 45q-53 0 -94 -16.5t-83 -61.5t-64.5 -146.5t-22.5 -252.5q0 -129 14.5 -207t48 -114t69.5 -46t102 -10q94 0 178 63q14 -29 14 -73q0 -29 -59.5 -60.5t-132.5 -33.5v-218q0 -29 -21.5 -39t-79.5 -10 v271q-84 8 -133 42.5t-82 141t-33 293.5q0 522 291 575v217q0 31 24 42.5t79 11.5z" />
<glyph unicode="&#xa3;" horiz-adv-x="784" d="M565 569h-272q0 -250 14 -456l375 -9q10 -35 10 -53q0 -51 -112 -51h-381q-18 313 -19 569h-149v49q0 15 3 30.5t8 19.5t15 4h123q0 303 84 425t240 122q84 0 144.5 -28t60.5 -69q0 -33 -21 -71q-74 55 -168 55q-72 0 -118 -31t-77.5 -128t-31.5 -267v-8h301 q0 -63 -4.5 -83t-24.5 -20z" />
<glyph unicode="&#xa5;" d="M383 0v369h-279q0 55 9.5 74.5t38.5 19.5h231v119l-43 116h-236q0 55 9.5 75t38.5 20h153l-227 622q-5 14 12 16q16 2 115 3l98 -293q43 -119 89 -265.5t48 -168.5q4 49 138 436l94 270q4 14 20.5 17.5t102.5 3.5l-228 -641h201q0 -55 -9 -75t-38 -20h-189l-36 -108v-127 h274q0 -55 -9 -74.5t-38 -19.5h-227v-342q0 -20 -14.5 -23.5t-98.5 -3.5z" />
<glyph unicode="&#xa6;" horiz-adv-x="462" d="M287 1513v-798q0 -25 -11.5 -33t-46.5 -8q-31 0 -55 8v793q0 47 59 47q29 -1 54 -9zM287 449v-814q0 -25 -11.5 -31.5t-46.5 -6.5q-37 0 -55 6v809q0 25 13.5 35t45.5 10q29 0 54 -8z" />
<glyph unicode="&#xa7;" horiz-adv-x="751" d="M418 1442q88 0 149.5 -29t73.5 -59q4 -8 4 -23q0 -39 -24 -69q-80 61 -197 61q-84 0 -133 -33t-49 -88t69 -131q23 -25 121 -111t135 -129q88 -96 88 -204q0 -55 -31.5 -112.5t-95.5 -94.5l21 -23q47 -53 66.5 -92t19.5 -92q0 -100 -82 -160.5t-217 -60.5 q-90 0 -151.5 27.5t-73.5 60.5q-4 6 -5 22q0 39 25 70q78 -61 197 -61q86 0 134 32.5t48 87.5q0 59 -70 131q-20 23 -118.5 110t-137.5 130q-88 100 -88 203q0 135 127 209l-20 22q-47 53 -66.5 92t-19.5 93q0 100 82 160.5t219 60.5zM272 643q23 -29 174 -151q45 18 75 62 t30 79q0 74 -72 158q-27 31 -174 149q-47 -16 -74.5 -59t-27.5 -82q-1 -74 69 -156z" />
<glyph unicode="&#xa8;" horiz-adv-x="450" d="M0 1329q0 35 21.5 59.5t58.5 24.5q39 0 60.5 -23.5t21.5 -60.5t-22.5 -60.5t-59.5 -23.5q-80 0 -80 84zM289 1329q0 35 21.5 59.5t58.5 24.5q39 0 60.5 -23.5t21.5 -60.5t-22.5 -60.5t-59.5 -23.5q-80 0 -80 84z" />
<glyph unicode="&#xa9;" horiz-adv-x="950" d="M596 1346q0 -29 -14 -54q-37 20 -68 21q-57 0 -92 -46t-35 -188q0 -111 24.5 -142.5t82.5 -31.5q39 0 88 27q14 -29 14 -49q0 -14 -36 -29.5t-75 -15.5q-94 0 -134 45t-40 198q0 180 54.5 239.5t138.5 59.5q29 0 60.5 -12t31.5 -22zM78 1106q0 451 409 450 q199 0 293 -101t94 -347q0 -219 -104 -336t-295 -117q-203 0 -300 98.5t-97 352.5zM168 1100q0 -197 73.5 -277t225.5 -80q145 0 231 92.5t86 276.5q0 195 -73.5 278t-221.5 83q-321 0 -321 -373z" />
<glyph unicode="&#xaa;" horiz-adv-x="686" d="M123 1389q74 66 248 65q213 0 213 -197v-608q-115 -57 -252 -57q-111 0 -171.5 48t-60.5 198q0 141 63.5 194t178.5 53q80 0 143 -22v160q0 129 -147 129q-109 0 -207 -49q-16 14 -19 43t11 43zM485 709v268q-51 20 -114 20q-90 0 -133 -29.5t-43 -136.5 q0 -90 40.5 -121.5t116.5 -31.5q86 0 133 31z" />
<glyph unicode="&#xab;" horiz-adv-x="854" d="M57 522q0 23 77 149l153 239l75 114q18 0 36 -14.5t25 -28.5l7 -14q0 -25 -65.5 -135.5t-132.5 -209.5l-66 -100q272 -406 272 -452q-27 -70 -65 -70q-316 465 -316 522zM391 512q0 23 75 140.5t150 223.5l76 105q18 0 35.5 -13.5t25.5 -27.5l7 -14q0 -25 -64.5 -128.5 t-130.5 -194.5l-65 -91q266 -354 266 -399q-25 -68 -64 -68q-311 414 -311 467z" />
<glyph unicode="&#xac;" horiz-adv-x="819" d="M731 227q-23 -8 -55 -8q-53 0 -53 39v242h-545q-10 25 -10 53q0 23 11 39t30 16h622v-381z" />
<glyph unicode="&#xad;" horiz-adv-x="593" d="M477 526h-389v50q0 14 3 29.5t8 19.5t16 4h391q0 -63 -4.5 -83t-24.5 -20z" />
<glyph unicode="&#xae;" horiz-adv-x="950" d="M78 1106q0 451 409 450q199 0 293 -101t94 -347q0 -219 -104 -336t-295 -117q-203 0 -300 98.5t-97 352.5zM168 1100q0 -197 73.5 -277t225.5 -80q145 0 231 92.5t86 276.5q0 195 -73.5 278t-221.5 83q-321 0 -321 -373zM352 844v530q0 10 13 10h100q170 0 170 -147 q0 -113 -84 -152q80 -80 96 -225q0 -16 -22 -18q-2 0 -20.5 1t-24.5 1q-23 166 -97 225h-67v-209q0 -12 -9.5 -14t-41.5 -2h-13zM567 1237q0 90 -102 90h-49v-199h47q104 0 104 109z" />
<glyph unicode="&#xaf;" horiz-adv-x="524" d="M479 1260h-473q-6 20 -6 53q4 55 47 55h467q10 -23 10 -51q-4 -57 -45 -57z" />
<glyph unicode="&#xb0;" horiz-adv-x="759" d="M199 1335q0 186 192 187q92 0 134 -41t42 -144q0 -92 -49 -139t-141 -47q-90 0 -134 39t-44 145zM283 1331q0 -100 96 -100q106 0 106 106q0 104 -94 105q-108 0 -108 -111z" />
<glyph unicode="&#xb1;" horiz-adv-x="886" d="M776 573h-278v-280q0 -18 -19.5 -22.5t-83.5 -4.5v307h-307v49q0 15 3 30.5t8 19.5t16 4h280v278q0 20 19.5 24.5t83.5 4.5v-307h307q0 -66 -4.5 -84.5t-24.5 -18.5zM774 27h-688v49q0 14 3 29.5t8 19.5t16 4h690q0 -63 -4.5 -82.5t-24.5 -19.5z" />
<glyph unicode="&#xb2;" horiz-adv-x="821" d="M156 1249q-25 35 -25 70q0 43 96.5 89t204.5 46q139 0 193.5 -58.5t54.5 -162.5q0 -74 -45 -150.5t-99 -128.5l-139 -132q-86 -79 -127 -124h439q8 -37 8 -49q0 -57 -39 -57h-563q-8 16 -9 41q0 45 19 65q57 63 181 171t183.5 182.5t59.5 152.5q0 61 -34 98t-124 37 q-114 0 -235 -90z" />
<glyph unicode="&#xb3;" horiz-adv-x="847" d="M289 1044q0 41 37 41q53 0 135 -8q106 70 106 162q0 43 -37.5 78t-126.5 35q-139 0 -239 -80q-23 23 -24 54.5t16 41.5q90 86 284 86q129 0 188.5 -52t59.5 -132q0 -125 -115 -215q70 -25 110 -77t40 -122q0 -139 -96.5 -212t-258 -73t-227.5 58q-16 14 -16 43 q0 37 31 63q76 -59 215 -59q109 0 173 45t64 125q0 55 -39 93t-100 46q-47 8 -168 8q-12 16 -12 51z" />
<glyph unicode="&#xb4;" horiz-adv-x="331" d="M45 1184q-10 0 -21.5 16.5t-17.5 32.5l-6 16q51 53 118.5 112.5t111.5 94.5t49 35q18 0 33.5 -32t19.5 -58q-12 -16 -110.5 -91t-176.5 -126z" />
<glyph unicode="&#xb5;" horiz-adv-x="858" d="M735 1026v-979q-156 -68 -311 -67q-137 0 -195 73v-407q0 -45 -61 -45q-25 0 -49 8v1376q0 49 55 49q33 0 55 -8v-760q0 -180 195 -180q109 0 201 41v856q0 27 11 39t43.5 12t55.5 -8z" />
<glyph unicode="&#x3bc;" horiz-adv-x="858" d="M735 1026v-979q-156 -68 -311 -67q-137 0 -195 73v-407q0 -45 -61 -45q-25 0 -49 8v1376q0 49 55 49q33 0 55 -8v-760q0 -180 195 -180q109 0 201 41v856q0 27 11 39t43.5 12t55.5 -8z" />
<glyph unicode="&#xb6;" horiz-adv-x="1118" d="M731 1399v-1364q0 -41 -57 -41q-33 0 -53 8v422q-68 -35 -187 -35q-152 0 -249 108.5t-97 366.5q0 291 106.5 439.5t299.5 148.5q137 0 237 -53zM618 520v805q-41 29 -139 29q-133 0 -204.5 -124t-71.5 -356q0 -387 258 -391q89 -4 157 37zM997 1403v-1368q0 -23 -11 -31 t-46 -8q-37 0 -55 6v1364q0 47 59 47q22 0 53 -10z" />
<glyph unicode="&#xb7;" horiz-adv-x="425" d="M121 551q0 39 23.5 65.5t62.5 26.5q90 0 90 -92q0 -39 -24.5 -65.5t-65.5 -26.5q-86 0 -86 92z" />
<glyph unicode="&#xb8;" horiz-adv-x="256" d="M72 6h73l-26 -129q2 4 37 4q41 0 70.5 -29.5t29.5 -89.5q0 -78 -43 -117.5t-104 -39.5q-59 0 -109 20q8 53 20 68q10 4 19.5 0t31 -11.5t40.5 -7.5q70 0 69 74q0 72 -67 72l-80 -13z" />
<glyph unicode="&#xb9;" horiz-adv-x="835" d="M395 1329l-250 -51q-14 20 -14 53q0 41 39 53q233 70 301 70q25 0 39 -6v-750h195q6 -27 6 -51q0 -55 -37 -55h-543q-6 27 -6 47q0 59 39 59h231v631z" />
<glyph unicode="&#xba;" horiz-adv-x="712" d="M86 1020q0 221 75 327.5t208 106.5q135 0 196.5 -93t61.5 -339q0 -428 -279 -428q-133 0 -197.5 90t-64.5 336zM184 1012q0 -184 40 -253t124 -69q182 0 182 334q0 186 -38.5 257t-120.5 71q-187 0 -187 -340z" />
<glyph unicode="&#xbb;" horiz-adv-x="849" d="M793 522q0 -25 -79 -155.5t-158 -248.5l-79 -118q-8 2 -18 6t-28.5 21.5t-18.5 40t68 136.5l136 216l68 102q-264 389 -264 445q0 18 17.5 32.5t33.5 19.5l16 5q306 -451 306 -502zM463 512q0 -25 -78 -142.5t-157 -222.5l-78 -104q-6 2 -16.5 6t-28 21.5t-17.5 40.5 q0 49 266 401q2 0 -62 91l-132 195q-66 103 -66 128q0 40 64 57q305 -418 305 -471z" />
<glyph unicode="&#xbc;" horiz-adv-x="1796" d="M395 1329l-250 -51q-14 20 -14 53q0 41 39 53q233 70 301 70q25 0 39 -6v-750h195q6 -27 6 -51q0 -55 -37 -55h-543q-6 27 -6 47q0 59 39 59h231v631zM1518 856v-596h143q10 -25 10 -55q0 -53 -35 -53h-118v-123q0 -39 -62 -39q-20 0 -45 6v156h-383q-16 18 -16 53 q0 23 14 63q41 127 147.5 294t204.5 261q37 39 92 39q11 0 48 -6zM1122 254h291l4 467q-78 -70 -168 -208t-127 -259zM1415 1413l-819 -1411q-8 -18 -33 -18q-49 0 -78 45l818 1401q8 27 36 26q41 0 76 -43z" />
<glyph unicode="&#xbd;" horiz-adv-x="1865" d="M395 1329l-250 -51q-14 20 -14 53q0 41 39 53q233 70 301 70q25 0 39 -6v-750h195q6 -27 6 -51q0 -55 -37 -55h-543q-6 27 -6 47q0 59 39 59h231v631zM1415 1413l-819 -1411q-8 -18 -33 -18q-49 0 -78 45l818 1401q8 27 36 26q41 0 76 -43zM1182 657q-25 35 -25 70 q0 43 96.5 89t204.5 46q139 0 193.5 -58.5t54.5 -162.5q0 -74 -45 -150.5t-99 -128.5l-139 -132q-86 -78 -127 -124h439q8 -37 8 -49q0 -57 -39 -57h-563q-8 16 -8 41q0 45 18 65q57 63 181 171t183.5 183t59.5 152q0 61 -34 98.5t-124 37.5q-114 -1 -235 -91z" />
<glyph unicode="&#xbe;" horiz-adv-x="1789" d="M289 1044q0 41 37 41q53 0 135 -8q106 70 106 162q0 43 -37.5 78t-126.5 35q-139 0 -239 -80q-23 23 -24 54.5t16 41.5q90 86 284 86q129 0 188.5 -52t59.5 -132q0 -125 -115 -215q70 -25 110 -77t40 -122q0 -139 -96.5 -212t-258 -73t-227.5 58q-16 14 -16 43 q0 37 31 63q76 -59 215 -59q109 0 173 45t64 125q0 55 -39 93t-100 46q-47 8 -168 8q-12 16 -12 51zM1511 856v-596h144q10 -25 10 -55q0 -53 -35 -53h-119v-123q0 -39 -61 -39q-20 0 -45 6v156h-383q-16 18 -16 53q0 23 14 63q41 127 147.5 294t204.5 261q37 39 92 39 q10 0 47 -6zM1116 254h291l4 467q-78 -70 -168 -208t-127 -259zM1427 1413l-819 -1411q-8 -18 -33 -18q-49 0 -77 45l817 1401q8 27 37 26q40 0 75 -43z" />
<glyph unicode="&#xbf;" horiz-adv-x="618" d="M430 946q0 -39 -23.5 -65.5t-62.5 -26.5q-90 0 -90 92q0 39 24.5 65.5t65.5 26.5q86 0 86 -92zM315 -399q-125 0 -205.5 68.5t-80.5 221.5q0 82 28.5 161t63.5 127l82 109q47 62 65 95q37 63 37 139q0 25 -4 55.5t-7 41t1 20.5q18 27 102 12q23 -51 23 -125 q0 -94 -47 -178q-27 -47 -90.5 -130t-99.5 -153.5t-36 -152.5q0 -199 199 -199q117 0 197 62q14 -39 14 -88q0 -31 -77 -58.5t-165 -27.5z" />
<glyph unicode="&#xc0;" horiz-adv-x="892" d="M762 0l-103 395h-426l-94 -372q-4 -25 -55 -25q-41 0 -70 4l387 1421q4 18 39 19q31 0 49 -6l388 -1409q4 -16 -6.5 -22.5t-41.5 -6.5q-38 0 -67 2zM358 879l-98 -379h371l-99 379q-78 303 -86 401q-14 -127 -88 -401zM498 1604q-6 0 -140.5 101t-148.5 116 q4 27 19.5 57.5t33.5 30.5q6 0 134 -108.5t145 -131.5q-23 -65 -43 -65z" />
<glyph unicode="&#xc1;" horiz-adv-x="892" d="M762 0l-103 395h-426l-94 -372q-4 -25 -55 -25q-41 0 -70 4l387 1421q4 18 39 19q31 0 49 -6l388 -1409q4 -16 -6.5 -22.5t-41.5 -6.5q-38 0 -67 2zM358 879l-98 -379h371l-99 379q-78 303 -86 401q-14 -127 -88 -401zM408 1593q-10 0 -21.5 16.5t-17.5 32.5l-7 17 q51 53 119 112.5t112 94.5t48 35q18 0 33.5 -32t19.5 -59q-12 -16 -110 -91t-176 -126z" />
<glyph unicode="&#xc2;" horiz-adv-x="892" d="M762 0l-103 395h-426l-94 -372q-4 -25 -55 -25q-41 0 -70 4l387 1421q4 18 39 19q31 0 49 -6l388 -1409q4 -16 -6.5 -22.5t-41.5 -6.5q-38 0 -67 2zM358 879l-98 -379h371l-99 379q-78 303 -86 401q-14 -127 -88 -401zM195 1636l227 234q12 4 27 4q25 0 40 -19 q199 -201 199 -219q0 -12 -26.5 -26.5t-57.5 -14.5q-143 150 -158 177q-150 -174 -174 -175q-48 0 -77 39z" />
<glyph unicode="&#xc3;" horiz-adv-x="892" d="M762 0l-103 395h-426l-94 -372q-4 -25 -55 -25q-41 0 -70 4l387 1421q4 18 39 19q31 0 49 -6l388 -1409q4 -16 -6.5 -22.5t-41.5 -6.5q-38 0 -67 2zM358 879l-98 -379h371l-99 379q-78 303 -86 401q-14 -127 -88 -401zM152 1688q82 139 208 139q47 0 95.5 -52.5 t91.5 -52.5q47 0 76.5 23.5t44 46.5t22.5 23q12 0 23.5 -16.5t16.5 -33.5l5 -16q-12 -27 -33.5 -53.5t-68.5 -54t-101 -27.5q-66 0 -113.5 54t-78.5 54q-35 0 -61.5 -23.5t-43 -46t-24.5 -22.5q-30 1 -59 58z" />
<glyph unicode="&#xc4;" horiz-adv-x="892" d="M223 1739q0 35 21.5 59.5t58.5 24.5q39 0 60.5 -23.5t21.5 -60.5t-22.5 -60.5t-59.5 -23.5q-80 0 -80 84zM512 1739q0 35 21.5 59.5t58.5 24.5q39 0 60.5 -23.5t21.5 -60.5t-22.5 -60.5t-59.5 -23.5q-80 0 -80 84zM762 0l-103 395h-426l-94 -372q-4 -25 -55 -25 q-41 0 -70 4l387 1421q4 18 39 19q31 0 49 -6l388 -1409q4 -16 -6.5 -22.5t-41.5 -6.5q-38 0 -67 2zM358 879l-98 -379h371l-99 379q-78 303 -86 401q-14 -127 -88 -401z" />
<glyph unicode="&#xc5;" horiz-adv-x="892" d="M762 0l-103 395h-426l-94 -372q-4 -25 -55 -25q-41 0 -70 4l387 1421q4 18 39 19q31 0 49 -6l388 -1409q4 -16 -6.5 -22.5t-41.5 -6.5q-38 0 -67 2zM358 879l-98 -379h371l-99 379q-78 303 -86 401q-14 -127 -88 -401zM260 1769q0 186 193 187q92 0 134 -41t42 -143 q0 -186 -191 -187q-88 0 -133 42t-45 142zM348 1765q0 -98 92 -98q102 0 103 105q0 100 -90 100q-53 0 -79 -25t-26 -82z" />
<glyph unicode="&#xc6;" horiz-adv-x="1314" d="M854 104h403q0 -74 -3 -89t-21 -15h-492v395h-401l-178 -372q-10 -25 -56 -25q-41 0 -69 4l672 1409q6 23 36 23h515q0 -72 -3.5 -88.5t-19.5 -16.5h-383v-493h358q0 -70 -3 -87.5t-19 -17.5h-336v-627zM567 870l-178 -370h352v800q-74 -203 -174 -430z" />
<glyph unicode="&#xc7;" horiz-adv-x="722" d="M477 1456q92 0 141.5 -32.5t49.5 -69.5t-21 -70q-72 63 -153 64q-49 0 -87 -13.5t-79 -56.5t-69 -117t-45 -205t-17 -309q0 -168 19.5 -281.5t56 -169t75.5 -76t92 -20.5q66 0 125.5 28t87.5 62q20 -37 21 -71q0 -47 -65.5 -90t-159.5 -49l-21 -103q2 4 37 4 q41 0 70.5 -29.5t29.5 -89.5q0 -78 -43 -117.5t-104 -39.5q-59 0 -109 20q8 53 21 68q10 4 19 0t30.5 -11.5t40.5 -7.5q70 0 69 74q0 72 -67 72l-80 -13l33 173q-51 4 -90 19t-79 59t-66.5 115t-43 191.5t-16.5 284.5q0 207 24.5 359.5t61.5 236.5t93 133t105.5 63.5 t112.5 14.5z" />
<glyph unicode="&#xc8;" horiz-adv-x="690" d="M227 104h404q0 -74 -3 -89t-22 -15h-489v1405q0 29 26 29h490q0 -97 -11 -103q-3 -2 -10 -2h-385v-493h361q0 -70 -3 -87.5t-22 -17.5h-336v-627zM451 1604q-6 0 -140.5 101t-148.5 116q4 27 19.5 57.5t33.5 30.5q6 0 134 -108.5t145 -131.5q-23 -65 -43 -65z" />
<glyph unicode="&#xc9;" horiz-adv-x="690" d="M227 104h404q0 -74 -3 -89t-22 -15h-489v1405q0 29 26 29h490q0 -97 -11 -103q-3 -2 -10 -2h-385v-493h361q0 -70 -3 -87.5t-22 -17.5h-336v-627zM358 1593q-10 0 -21 16.5t-18 32.5l-6 17q51 53 119 112.5t112 94.5t48 35q18 0 33.5 -32t19.5 -59q-12 -16 -110.5 -91 t-176.5 -126z" />
<glyph unicode="&#xca;" horiz-adv-x="690" d="M227 104h404q0 -74 -3 -89t-22 -15h-489v1405q0 29 26 29h490q0 -97 -11 -103q-3 -2 -10 -2h-385v-493h361q0 -70 -3 -87.5t-22 -17.5h-336v-627zM145 1636l228 234q12 4 26 4q25 0 41 -19q199 -201 199 -219q0 -12 -26.5 -26.5t-57.5 -14.5q-143 150 -158 177 q-150 -174 -174 -175q-49 0 -78 39z" />
<glyph unicode="&#xcb;" horiz-adv-x="690" d="M174 1739q0 35 21.5 59.5t58.5 24.5q39 0 60.5 -23.5t21.5 -60.5t-22.5 -60.5t-59.5 -23.5q-80 0 -80 84zM463 1739q0 35 21.5 59.5t58.5 24.5q39 0 60.5 -23.5t21.5 -60.5t-22.5 -60.5t-59.5 -23.5q-80 0 -80 84zM227 104h404q0 -74 -3 -89t-22 -15h-489v1405 q0 29 26 29h490q0 -97 -11 -103q-3 -2 -10 -2h-385v-493h361q0 -70 -3 -87.5t-22 -17.5h-336v-627z" />
<glyph unicode="&#xcc;" horiz-adv-x="337" d="M111 0v1376q0 43 15 50.5t99 7.5v-1407q0 -20 -14 -23.5t-100 -3.5zM221 1604q-6 0 -140 101t-149 116q4 27 19.5 57.5t34.5 30.5q6 0 134 -108.5t144 -131.5q-23 -65 -43 -65z" />
<glyph unicode="&#xcd;" horiz-adv-x="337" d="M111 0v1376q0 43 15 50.5t99 7.5v-1407q0 -20 -14 -23.5t-100 -3.5zM129 1593q-10 0 -21.5 16.5t-17.5 32.5l-6 17q51 53 118.5 112.5t111.5 94.5t48 35q18 0 34 -32t20 -59q-12 -16 -110.5 -91t-176.5 -126z" />
<glyph unicode="&#xce;" horiz-adv-x="337" d="M111 0v1376q0 43 15 50.5t99 7.5v-1407q0 -20 -14 -23.5t-100 -3.5zM-82 1636l227 234q12 4 27 4q25 0 41 -19q199 -201 199 -219q0 -12 -27 -26.5t-57 -14.5q-143 150 -158 177q-150 -174 -174 -175q-49 0 -78 39z" />
<glyph unicode="&#xcf;" horiz-adv-x="337" d="M111 0v1376q0 43 15 50.5t99 7.5v-1407q0 -20 -14 -23.5t-100 -3.5zM-53 1739q0 35 21.5 59.5t58.5 24.5q39 0 60.5 -23.5t21.5 -60.5t-23 -60.5t-59 -23.5q-80 0 -80 84zM236 1739q0 35 21.5 59.5t57.5 24.5q39 0 60.5 -23.5t21.5 -60.5t-22.5 -60.5t-59.5 -23.5 q-79 0 -79 84z" />
<glyph unicode="&#xd0;" horiz-adv-x="847" d="M166 1434h205q203 0 300 -145.5t97 -487.5q0 -238 -29.5 -399.5t-87 -246.5t-126 -120t-163.5 -35h-247v705h-90v49q0 14 3 28.5t8 18.5t15 4h64v594q0 35 51 35zM645 801q0 287 -65.5 407.5t-210.5 120.5h-142v-524h213q0 -63 -4 -81.5t-24 -18.5h-185v-596h138 q47 0 83.5 13t75.5 56t63.5 117t41 202t16.5 304z" />
<glyph unicode="&#xd1;" horiz-adv-x="933" d="M717 0l-252 575q-57 135 -250 642q8 -303 8 -689v-501q0 -20 -13 -23.5t-97 -3.5v1405q0 29 26 29h80l246 -566q39 -109 254 -647q-10 154 -10 699v485q0 20 14 24.5t98 4.5v-1407q0 -27 -26 -27h-78zM190 1688q82 139 209 139q47 0 95.5 -52.5t91.5 -52.5 q47 0 76.5 23.5t44 46.5t22.5 23q12 0 23.5 -16.5t16.5 -33.5l5 -16q-12 -27 -33.5 -53.5t-68.5 -54t-101 -27.5q-66 0 -113.5 54t-78.5 54q-35 0 -61.5 -23.5t-43 -46t-24.5 -22.5q-31 1 -60 58z" />
<glyph unicode="&#xd2;" horiz-adv-x="913" d="M78 727q0 391 95 559t298 168q201 0 283 -159.5t82 -565.5q0 -410 -91.5 -579.5t-295.5 -169.5q-203 0 -287 161.5t-84 585.5zM203 692q0 -326 56 -461t194 -135q141 0 201.5 144.5t60.5 490.5q0 338 -55.5 473t-192.5 135t-200.5 -148.5t-63.5 -498.5zM528 1604 q-6 0 -140 101t-148 116q4 27 19 57.5t34 30.5q6 0 134 -108.5t144 -131.5q-23 -65 -43 -65z" />
<glyph unicode="&#xd3;" horiz-adv-x="913" d="M78 727q0 391 95 559t298 168q201 0 283 -159.5t82 -565.5q0 -410 -91.5 -579.5t-295.5 -169.5q-203 0 -287 161.5t-84 585.5zM203 692q0 -326 56 -461t194 -135q141 0 201.5 144.5t60.5 490.5q0 338 -55.5 473t-192.5 135t-200.5 -148.5t-63.5 -498.5zM436 1593 q-10 0 -21.5 16.5t-17.5 32.5l-6 17q51 53 119 112.5t112 94.5t48 35q18 0 33.5 -32t19.5 -59q-12 -16 -110.5 -91t-176.5 -126z" />
<glyph unicode="&#xd4;" horiz-adv-x="913" d="M78 727q0 391 95 559t298 168q201 0 283 -159.5t82 -565.5q0 -410 -91.5 -579.5t-295.5 -169.5q-203 0 -287 161.5t-84 585.5zM203 692q0 -326 56 -461t194 -135q141 0 201.5 144.5t60.5 490.5q0 338 -55.5 473t-192.5 135t-200.5 -148.5t-63.5 -498.5zM223 1636l228 234 q12 4 26 4q25 0 41 -19q199 -201 199 -219q0 -12 -26.5 -26.5t-57.5 -14.5q-143 150 -158 177q-150 -174 -174 -175q-49 0 -78 39z" />
<glyph unicode="&#xd5;" horiz-adv-x="913" d="M78 727q0 391 95 559t298 168q201 0 283 -159.5t82 -565.5q0 -410 -91.5 -579.5t-295.5 -169.5q-203 0 -287 161.5t-84 585.5zM203 692q0 -326 56 -461t194 -135q141 0 201.5 144.5t60.5 490.5q0 338 -55.5 473t-192.5 135t-200.5 -148.5t-63.5 -498.5zM180 1688 q82 139 209 139q47 0 95 -52.5t91 -52.5q47 0 77 23.5t44.5 46.5t22.5 23q12 0 23.5 -16.5t16.5 -33.5l5 -16q-12 -27 -33.5 -53.5t-69 -54t-100.5 -27.5q-66 0 -114 54t-78 54q-35 0 -61.5 -23.5t-43 -46t-24.5 -22.5q-31 1 -60 58z" />
<glyph unicode="&#xd6;" horiz-adv-x="913" d="M78 727q0 391 95 559t298 168q201 0 283 -159.5t82 -565.5q0 -410 -91.5 -579.5t-295.5 -169.5q-203 0 -287 161.5t-84 585.5zM203 692q0 -326 56 -461t194 -135q141 0 201.5 144.5t60.5 490.5q0 338 -55.5 473t-192.5 135t-200.5 -148.5t-63.5 -498.5zM252 1739 q0 35 21.5 59.5t58.5 24.5q39 0 60.5 -23.5t21.5 -60.5t-22.5 -60.5t-59.5 -23.5q-80 0 -80 84zM541 1739q0 35 21.5 59.5t58.5 24.5q39 0 60 -23.5t21 -60.5t-22.5 -60.5t-58.5 -23.5q-80 0 -80 84z" />
<glyph unicode="&#xd7;" d="M610 307l-170 191l-168 -191q-8 -8 -15 -9t-19.5 8t-22.5 19.5t-35 34.5l191 215l-193 220q64 62 80 60q7 -1 12 -7l170 -193l172 193q16 10 29.5 2t52.5 -46q6 -6 11 -9l-195 -220l192 -215q-45 -47 -57 -55t-35 2z" />
<glyph unicode="&#xd8;" horiz-adv-x="950" d="M182 -33q-18 -2 -43.5 7.5t-29.5 29.5q0 2 10 28l27 68l24 62q-74 166 -74 565q0 391 93.5 559t295.5 168q156 0 238 -90l43 109q70 -4 76 -37q0 -16 -58 -172q70 -170 70 -535q0 -410 -90 -579.5t-295 -169.5q-160 0 -244 92zM733 731q0 305 -43 440l-381 -1005 q53 -72 156 -72q94 0 150.5 53.5t87 194.5t30.5 389zM221 692q0 -297 43 -432l379 1008q-55 72 -156 71q-139 0 -202.5 -147.5t-63.5 -499.5z" />
<glyph unicode="&#xd9;" horiz-adv-x="937" d="M227 1434v-998q0 -66 4.5 -111.5t19.5 -94t43 -78t75 -48t114 -18.5q143 0 230 43v1278q0 20 15 23.5t99 3.5v-1383q-43 -29 -140 -50t-204 -21q-98 0 -167.5 25.5t-108.5 64.5t-60.5 103.5t-27.5 123.5t-6 143v965q0 20 14 24.5t100 4.5zM535 1604q-6 0 -140.5 101 t-148.5 116q4 27 19.5 57.5t33.5 30.5q6 0 134 -108.5t145 -131.5q-23 -65 -43 -65z" />
<glyph unicode="&#xda;" horiz-adv-x="937" d="M227 1434v-998q0 -66 4.5 -111.5t19.5 -94t43 -78t75 -48t114 -18.5q143 0 230 43v1278q0 20 15 23.5t99 3.5v-1383q-43 -29 -140 -50t-204 -21q-98 0 -167.5 25.5t-108.5 64.5t-60.5 103.5t-27.5 123.5t-6 143v965q0 20 14 24.5t100 4.5zM442 1593q-10 0 -21 16.5 t-18 32.5l-6 17q51 53 119 112.5t112 94.5t48 35q18 0 33.5 -32t19.5 -59q-12 -16 -110.5 -91t-176.5 -126z" />
<glyph unicode="&#xdb;" horiz-adv-x="937" d="M227 1434v-998q0 -66 4.5 -111.5t19.5 -94t43 -78t75 -48t114 -18.5q143 0 230 43v1278q0 20 15 23.5t99 3.5v-1383q-43 -29 -140 -50t-204 -21q-98 0 -167.5 25.5t-108.5 64.5t-60.5 103.5t-27.5 123.5t-6 143v965q0 20 14 24.5t100 4.5zM229 1636l228 234q12 4 26 4 q25 0 41 -19q199 -201 199 -219q0 -12 -26.5 -26.5t-57.5 -14.5q-143 150 -158 177q-150 -174 -174 -175q-49 0 -78 39z" />
<glyph unicode="&#xdc;" horiz-adv-x="937" d="M258 1739q0 35 21.5 59.5t58.5 24.5q39 0 60.5 -23.5t21.5 -60.5t-22.5 -60.5t-59.5 -23.5q-80 0 -80 84zM547 1739q0 35 21.5 59.5t58.5 24.5q39 0 60.5 -23.5t21.5 -60.5t-22.5 -60.5t-59.5 -23.5q-80 0 -80 84zM227 1434v-998q0 -66 4.5 -111.5t19.5 -94t43 -78 t75 -48t114 -18.5q143 0 230 43v1278q0 20 15 23.5t99 3.5v-1383q-43 -29 -140 -50t-204 -21q-98 0 -167.5 25.5t-108.5 64.5t-60.5 103.5t-27.5 123.5t-6 143v965q0 20 14 24.5t100 4.5z" />
<glyph unicode="&#xdd;" horiz-adv-x="739" d="M317 0v582l-305 833q-5 14 12 16q16 2 115 3l99 -293q39 -106 86 -262t53 -193q16 109 139 457l90 270q4 14 20.5 17.5t102.5 3.5l-299 -848v-559q0 -20 -13.5 -23.5t-99.5 -3.5zM338 1593q-10 0 -21.5 16.5t-17.5 32.5l-6 17q51 53 118.5 112.5t111.5 94.5t48 35 q18 0 34 -32t20 -59q-12 -16 -110.5 -91t-176.5 -126z" />
<glyph unicode="&#xde;" horiz-adv-x="757" d="M113 0v1403q0 20 14 25.5t61 5.5h35v-265h129q358 0 359 -391q0 -223 -98.5 -329.5t-268.5 -106.5h-121v-315q0 -20 -15 -23.5t-95 -3.5zM588 788q0 279 -226 279q-39 0 -70.5 -1t-49.5 -1h-19v-614q6 0 65.5 -1t63.5 -1q236 -1 236 339z" />
<glyph unicode="&#xdf;" horiz-adv-x="962" d="M119 111l-2 1013q0 317 321 318q201 0 299.5 -90t98.5 -201q0 -63 -41 -112.5t-90.5 -75t-90.5 -65.5t-41 -87q0 -39 37 -81t90.5 -84t106.5 -90t90 -121t37 -156q0 -141 -82 -219t-225 -78q-74 0 -131.5 15t-84 34.5t-26.5 38.5q0 39 31 77q72 -63 190 -63 q92 0 149.5 48t57.5 142q0 82 -56.5 157t-124 124t-123.5 115.5t-56 134.5q0 63 41 112.5t91 77t91 68.5t41 88q0 72 -69.5 129t-201.5 57q-115 0 -166 -64.5t-51 -213.5l2 -1002q0 -41 -13 -58t-52 -17q-18 0 -34.5 5t-23.5 10l-8 5q19 39 19 109z" />
<glyph unicode="&#xe0;" horiz-adv-x="751" d="M74 950q0 29 16 41q33 20 125 36.5t197 16.5q127 0 186 -56t59 -191v-123q0 -354 -10 -621q-121 -74 -278 -73q-51 0 -88 4t-79 21.5t-67.5 50t-43 90t-17.5 139.5q0 104 24.5 173.5t71.5 102.5t95 45t114 12q109 0 168 -24v180q0 94 -41 128t-121 34q-180 0 -295 -51 q-16 32 -16 65zM547 510q-55 20 -133 20q-106 0 -165 -47t-59 -194q0 -70 14.5 -115t45.5 -64.5t59.5 -25.5t75.5 -6q102 0 152 45q10 143 10 387zM432 1194q-6 0 -140 101.5t-149 115.5q4 27 19.5 57.5t34.5 30.5q6 0 134 -108.5t144 -130.5q-23 -66 -43 -66z" />
<glyph unicode="&#xe1;" horiz-adv-x="751" d="M74 950q0 29 16 41q33 20 125 36.5t197 16.5q127 0 186 -56t59 -191v-123q0 -354 -10 -621q-121 -74 -278 -73q-51 0 -88 4t-79 21.5t-67.5 50t-43 90t-17.5 139.5q0 104 24.5 173.5t71.5 102.5t95 45t114 12q109 0 168 -24v180q0 94 -41 128t-121 34q-180 0 -295 -51 q-16 32 -16 65zM547 510q-55 20 -133 20q-106 0 -165 -47t-59 -194q0 -70 14.5 -115t45.5 -64.5t59.5 -25.5t75.5 -6q102 0 152 45q10 143 10 387zM342 1184q-10 0 -21.5 16.5t-17.5 32.5l-6 16q51 53 118.5 112.5t111.5 94.5t48 35q18 0 34 -32t20 -58q-12 -16 -110.5 -91 t-176.5 -126z" />
<glyph unicode="&#xe2;" horiz-adv-x="751" d="M129 1227l227 233q12 4 27 4q25 0 41 -18q199 -201 199 -219q0 -12 -27 -26.5t-57 -14.5q-143 150 -158 176q-150 -174 -174 -174q-49 0 -78 39zM74 950q0 29 16 41q33 20 125 36.5t197 16.5q127 0 186 -56t59 -191v-123q0 -354 -10 -621q-121 -74 -278 -73q-51 0 -88 4 t-79 21.5t-67.5 50t-43 90t-17.5 139.5q0 104 24.5 173.5t71.5 102.5t95 45t114 12q109 0 168 -24v180q0 94 -41 128t-121 34q-180 0 -295 -51q-16 32 -16 65zM547 510q-55 20 -133 20q-106 0 -165 -47t-59 -194q0 -70 14.5 -115t45.5 -64.5t59.5 -25.5t75.5 -6 q102 0 152 45q10 143 10 387z" />
<glyph unicode="&#xe3;" horiz-adv-x="751" d="M86 1278q82 139 209 139q47 0 95 -52t91 -52q47 0 77 23.5t44 46t23 22.5q12 0 23 -16.5t17 -32.5l5 -17q-12 -27 -34 -53t-69 -54t-100 -28q-66 0 -114 54.5t-79 54.5q-35 0 -61.5 -23.5t-42.5 -46t-25 -22.5q-30 0 -59 57zM74 950q0 29 16 41q33 20 125 36.5t197 16.5 q127 0 186 -56t59 -191v-123q0 -354 -10 -621q-121 -74 -278 -73q-51 0 -88 4t-79 21.5t-67.5 50t-43 90t-17.5 139.5q0 104 24.5 173.5t71.5 102.5t95 45t114 12q109 0 168 -24v180q0 94 -41 128t-121 34q-180 0 -295 -51q-16 32 -16 65zM547 510q-55 20 -133 20 q-106 0 -165 -47t-59 -194q0 -70 14.5 -115t45.5 -64.5t59.5 -25.5t75.5 -6q102 0 152 45q10 143 10 387z" />
<glyph unicode="&#xe4;" horiz-adv-x="751" d="M74 950q0 29 16 41q33 20 125 36.5t197 16.5q127 0 186 -56t59 -191v-123q0 -354 -10 -621q-121 -74 -278 -73q-51 0 -88 4t-79 21.5t-67.5 50t-43 90t-17.5 139.5q0 104 24.5 173.5t71.5 102.5t95 45t114 12q109 0 168 -24v180q0 94 -41 128t-121 34q-180 0 -295 -51 q-16 32 -16 65zM547 510q-55 20 -133 20q-106 0 -165 -47t-59 -194q0 -70 14.5 -115t45.5 -64.5t59.5 -25.5t75.5 -6q102 0 152 45q10 143 10 387zM158 1329q0 35 21.5 59.5t58.5 24.5q39 0 60 -23.5t21 -60.5t-22.5 -60.5t-58.5 -23.5q-80 0 -80 84zM446 1329 q0 35 21.5 59.5t58.5 24.5q39 0 60.5 -23.5t21.5 -60.5t-22.5 -60.5t-59.5 -23.5q-80 0 -80 84z" />
<glyph unicode="&#xe5;" horiz-adv-x="751" d="M74 950q0 29 16 41q33 20 125 36.5t197 16.5q127 0 186 -56t59 -191v-123q0 -354 -10 -621q-121 -74 -278 -73q-51 0 -88 4t-79 21.5t-67.5 50t-43 90t-17.5 139.5q0 104 24.5 173.5t71.5 102.5t95 45t114 12q109 0 168 -24v180q0 94 -41 128t-121 34q-180 0 -295 -51 q-16 32 -16 65zM547 510q-55 20 -133 20q-106 0 -165 -47t-59 -194q0 -70 14.5 -115t45.5 -64.5t59.5 -25.5t75.5 -6q102 0 152 45q10 143 10 387zM195 1360q0 186 192 186q92 0 134 -41t42 -143q0 -186 -190 -186q-88 0 -133 42t-45 142zM283 1356q0 -98 92 -99 q102 0 102 105q0 100 -90 100q-53 0 -78.5 -24.5t-25.5 -81.5z" />
<glyph unicode="&#xe6;" horiz-adv-x="1269" d="M82 950q0 29 18 39q86 55 312 55q100 0 154.5 -37.5t68.5 -123.5q47 96 116.5 128.5t168.5 32.5q258 0 258 -317q0 -156 -21 -252q-92 -14 -190 -14q-156 0 -299 31v-35q0 -121 15 -197t49 -111.5t71 -46t96 -10.5q154 0 254 70q14 -35 14 -103q0 -12 -36.5 -29.5 t-104.5 -31.5t-137 -14q-180 0 -246 94v-35q-104 -61 -274 -61q-66 0 -110 8t-91 35.5t-70.5 94t-23.5 171.5q0 197 83 269.5t220 72.5q111 0 170 -25v172q0 92 -45 127t-129 35q-172 0 -277 -59q-14 26 -14 67zM547 121v403q-55 20 -133 21q-104 0 -164 -52.5t-60 -203.5 q0 -133 48.5 -172t144.5 -39q121 0 164 43zM909 942q-92 0 -156.5 -72.5t-80.5 -283.5q158 -33 280 -33q63 0 107 8q8 66 8 144q-2 127 -36 182t-122 55z" />
<glyph unicode="&#xe7;" horiz-adv-x="677" d="M623 962.5q0 -32.5 -15 -67.5q-68 47 -159 47q-39 0 -70 -8t-67 -36t-59.5 -75t-39.5 -134t-16 -206q0 -236 55 -318.5t168 -82.5q119 0 188 61q14 -35 15 -65q0 -33 -56.5 -61.5t-142.5 -34.5l-21 -105q2 4 37 4q41 0 71 -29.5t30 -89.5q0 -78 -43 -117.5t-105 -39.5 q-59 0 -108 20q8 53 20 68q10 4 19.5 0t31 -11.5t39.5 -7.5q70 0 70 74q0 72 -68 72l-80 -13l33 175q-135 8 -201.5 114.5t-66.5 392.5q0 141 23.5 246t58.5 163t86 92t97 44t104 10q72 0 122 -24.5t50 -57z" />
<glyph unicode="&#xe8;" horiz-adv-x="768" d="M444 1044q258 0 258 -323q0 -150 -20 -246q-182 -37 -489 -37q0 -143 31.5 -222t79.5 -102.5t128 -23.5q147 0 246 70q14 -37 14 -80q0 -37 -84 -68.5t-194 -31.5q-80 0 -135.5 17t-104.5 65.5t-72.5 146.5t-23.5 248q0 152 22.5 262t56 171.5t86 97.5t97.5 46t104 10z M434 942q-45 0 -80 -14.5t-71.5 -53t-60 -125.5t-27.5 -217q274 0 389 29q8 66 8 137q-2 129 -36 186.5t-122 57.5zM481 1194q-6 0 -140 101.5t-148 115.5q4 27 19 57.5t34 30.5q6 0 134 -108.5t144 -130.5q-23 -66 -43 -66z" />
<glyph unicode="&#xe9;" horiz-adv-x="768" d="M444 1044q258 0 258 -323q0 -150 -20 -246q-182 -37 -489 -37q0 -143 31.5 -222t79.5 -102.5t128 -23.5q147 0 246 70q14 -37 14 -80q0 -37 -84 -68.5t-194 -31.5q-80 0 -135.5 17t-104.5 65.5t-72.5 146.5t-23.5 248q0 152 22.5 262t56 171.5t86 97.5t97.5 46t104 10z M434 942q-45 0 -80 -14.5t-71.5 -53t-60 -125.5t-27.5 -217q274 0 389 29q8 66 8 137q-2 129 -36 186.5t-122 57.5zM391 1184q-10 0 -21.5 16.5t-17.5 32.5l-6 16q51 53 118.5 112.5t112 94.5t48.5 35q18 0 33.5 -32t19.5 -58q-12 -16 -110.5 -91t-176.5 -126z" />
<glyph unicode="&#xea;" horiz-adv-x="768" d="M444 1044q258 0 258 -323q0 -150 -20 -246q-182 -37 -489 -37q0 -143 31.5 -222t79.5 -102.5t128 -23.5q147 0 246 70q14 -37 14 -80q0 -37 -84 -68.5t-194 -31.5q-80 0 -135.5 17t-104.5 65.5t-72.5 146.5t-23.5 248q0 152 22.5 262t56 171.5t86 97.5t97.5 46t104 10z M434 942q-45 0 -80 -14.5t-71.5 -53t-60 -125.5t-27.5 -217q274 0 389 29q8 66 8 137q-2 129 -36 186.5t-122 57.5zM178 1227l228 233q12 4 26 4q25 0 41 -18q199 -201 199 -219q0 -12 -27 -26.5t-57 -14.5q-143 150 -158 176q-150 -174 -174 -174q-49 0 -78 39z" />
<glyph unicode="&#xeb;" horiz-adv-x="768" d="M444 1044q258 0 258 -323q0 -150 -20 -246q-182 -37 -489 -37q0 -143 31.5 -222t79.5 -102.5t128 -23.5q147 0 246 70q14 -37 14 -80q0 -37 -84 -68.5t-194 -31.5q-80 0 -135.5 17t-104.5 65.5t-72.5 146.5t-23.5 248q0 152 22.5 262t56 171.5t86 97.5t97.5 46t104 10z M434 942q-45 0 -80 -14.5t-71.5 -53t-60 -125.5t-27.5 -217q274 0 389 29q8 66 8 137q-2 129 -36 186.5t-122 57.5zM207 1329q0 35 21.5 59.5t58.5 24.5q39 0 60.5 -23.5t21.5 -60.5t-22.5 -60.5t-59.5 -23.5q-80 0 -80 84zM496 1329q0 35 21.5 59.5t57.5 24.5 q39 0 60.5 -23.5t21.5 -60.5t-22.5 -60.5t-59.5 -23.5q-79 0 -79 84z" />
<glyph unicode="&#xec;" horiz-adv-x="350" d="M233 1024v-997q0 -20 -15 -23.5t-101 -3.5v969q0 39 21 47t95 8zM229 1194q-6 0 -140 101.5t-148 115.5q4 27 19 57.5t34 30.5q6 0 134 -108.5t144 -130.5q-23 -66 -43 -66z" />
<glyph unicode="&#xed;" horiz-adv-x="350" d="M233 1024v-997q0 -20 -15 -23.5t-101 -3.5v969q0 39 21 47t95 8zM137 1184q-10 0 -21.5 16.5t-17.5 32.5l-6 16q51 53 119 112.5t112 94.5t48 35q18 0 33.5 -32t19.5 -58q-12 -16 -110.5 -91t-176.5 -126z" />
<glyph unicode="&#xee;" horiz-adv-x="350" d="M233 1024v-997q0 -20 -15 -23.5t-101 -3.5v969q0 39 21 47t95 8zM-76 1227l228 233q12 4 26 4q25 0 41 -18q199 -201 199 -219q0 -12 -26.5 -26.5t-57.5 -14.5q-143 150 -158 176q-150 -174 -174 -174q-49 0 -78 39z" />
<glyph unicode="&#xef;" horiz-adv-x="350" d="M233 1024v-997q0 -20 -15 -23.5t-101 -3.5v969q0 39 21 47t95 8zM-47 1329q0 35 21.5 59.5t58.5 24.5q39 0 60.5 -23.5t21.5 -60.5t-22.5 -60.5t-59.5 -23.5q-80 0 -80 84zM242 1329q0 35 21.5 59.5t58.5 24.5q39 0 60 -23.5t21 -60.5t-22.5 -60.5t-58.5 -23.5 q-80 0 -80 84z" />
<glyph unicode="&#xf0;" horiz-adv-x="894" d="M717 1360l-99 -39q201 -268 201 -729q0 -135 -13 -234.5t-50 -190.5t-111 -139t-182 -48q-188 0 -278.5 129t-90.5 417q0 250 92.5 383t257.5 133q141 0 226 -92q-45 184 -158 328l-197 -78q-32 83 -21 97q4 5 11 8l135 53q-45 45 -129 110q29 55 78 56q27 0 47 -21 q66 -51 113 -102l158 63q31 -83 22 -95q-3 -6 -12 -9zM707 598q0 94 -11 197q-86 143 -227 143q-127 0 -194.5 -112.5t-67.5 -315.5q0 -432 254 -432q80 0 131 41t74.5 120.5t32 160.5t8.5 198z" />
<glyph unicode="&#xf1;" horiz-adv-x="821" d="M113 0v973q166 72 331 71q160 0 220.5 -65.5t60.5 -214.5v-737q0 -20 -14.5 -23.5t-100.5 -3.5v733q0 117 -33.5 164t-136.5 47q-127 0 -215 -47v-870q0 -20 -14 -23.5t-98 -3.5zM141 1278q82 139 209 139q47 0 95.5 -52t91.5 -52q47 0 76.5 23.5t44 46t22.5 22.5 q12 0 23.5 -16.5t16.5 -32.5l5 -17q-12 -27 -33.5 -53t-69 -54t-100.5 -28q-66 0 -114 54.5t-78 54.5q-35 0 -61.5 -23.5t-43 -46t-24.5 -22.5q-31 0 -60 57z" />
<glyph unicode="&#xf2;" horiz-adv-x="784" d="M63 510q0 535 343 534q166 0 241.5 -114.5t75.5 -417.5q0 -532 -340 -532q-82 0 -135 18t-98.5 72.5t-66 162t-20.5 277.5zM184 502q0 -172 26 -267.5t66.5 -126t110.5 -30.5q215 0 215 438q0 252 -48 340t-153 88q-106 0 -161.5 -99t-55.5 -343zM457 1194 q-6 0 -140.5 101.5t-148.5 115.5q4 27 19.5 57.5t33.5 30.5q6 0 134 -108.5t145 -130.5q-23 -66 -43 -66z" />
<glyph unicode="&#xf3;" horiz-adv-x="784" d="M63 510q0 535 343 534q166 0 241.5 -114.5t75.5 -417.5q0 -532 -340 -532q-82 0 -135 18t-98.5 72.5t-66 162t-20.5 277.5zM184 502q0 -172 26 -267.5t66.5 -126t110.5 -30.5q215 0 215 438q0 252 -48 340t-153 88q-106 0 -161.5 -99t-55.5 -343zM365 1184 q-10 0 -21.5 16.5t-17.5 32.5l-7 16q51 53 119 112.5t112 94.5t48 35q18 0 33.5 -32t19.5 -58q-12 -16 -110 -91t-176 -126z" />
<glyph unicode="&#xf4;" horiz-adv-x="784" d="M63 510q0 535 343 534q166 0 241.5 -114.5t75.5 -417.5q0 -532 -340 -532q-82 0 -135 18t-98.5 72.5t-66 162t-20.5 277.5zM184 502q0 -172 26 -267.5t66.5 -126t110.5 -30.5q215 0 215 438q0 252 -48 340t-153 88q-106 0 -161.5 -99t-55.5 -343zM152 1227l227 233 q12 4 27 4q25 0 40 -18q199 -201 199 -219q0 -12 -26.5 -26.5t-57.5 -14.5q-143 150 -158 176q-150 -174 -174 -174q-48 0 -77 39z" />
<glyph unicode="&#xf5;" horiz-adv-x="784" d="M63 510q0 535 343 534q166 0 241.5 -114.5t75.5 -417.5q0 -532 -340 -532q-82 0 -135 18t-98.5 72.5t-66 162t-20.5 277.5zM184 502q0 -172 26 -267.5t66.5 -126t110.5 -30.5q215 0 215 438q0 252 -48 340t-153 88q-106 0 -161.5 -99t-55.5 -343zM109 1278 q82 139 208 139q47 0 95.5 -52t91.5 -52q47 0 76.5 23.5t44 46t22.5 22.5q12 0 23.5 -16.5t16.5 -32.5l5 -17q-12 -27 -33.5 -53t-68.5 -54t-101 -28q-66 0 -113.5 54.5t-78.5 54.5q-35 0 -61.5 -23.5t-43 -46t-24.5 -22.5q-30 0 -59 57z" />
<glyph unicode="&#xf6;" horiz-adv-x="784" d="M180 1329q0 35 21.5 59.5t58.5 24.5q39 0 60.5 -23.5t21.5 -60.5t-22.5 -60.5t-59.5 -23.5q-80 0 -80 84zM469 1329q0 35 21.5 59.5t58.5 24.5q39 0 60.5 -23.5t21.5 -60.5t-22.5 -60.5t-59.5 -23.5q-80 0 -80 84zM63 510q0 535 343 534q166 0 241.5 -114.5t75.5 -417.5 q0 -532 -340 -532q-82 0 -135 18t-98.5 72.5t-66 162t-20.5 277.5zM184 502q0 -172 26 -267.5t66.5 -126t110.5 -30.5q215 0 215 438q0 252 -48 340t-153 88q-106 0 -161.5 -99t-55.5 -343z" />
<glyph unicode="&#xf7;" d="M774 526h-688v50q0 14 3 29.5t8 19.5t16 4h690q0 -63 -4.5 -83t-24.5 -20zM358 287q0 37 21.5 61.5t58.5 24.5q82 0 82 -86q0 -37 -22.5 -60.5t-59.5 -23.5q-80 0 -80 84zM358 856q0 35 21.5 59.5t58.5 24.5q82 0 82 -84q0 -37 -22.5 -61.5t-59.5 -24.5q-80 0 -80 86z " />
<glyph unicode="&#xf8;" horiz-adv-x="868" d="M123 -45q-18 2 -42 15.5t-24 33.5q0 10 95 166q-37 117 -37 340q0 535 338 534q156 0 227 -94q61 106 74 119q68 -16 67 -49q0 -16 -92 -164q43 -123 43 -344q0 -532 -330 -532q-178 0 -245 98q-54 -92 -74 -123zM651 516q0 150 -20 252l-352 -594q45 -96 157 -96 q215 0 215 438zM233 502q0 -137 17 -232l348 592q-43 82 -147.5 82t-161 -99t-56.5 -343z" />
<glyph unicode="&#xf9;" horiz-adv-x="851" d="M731 1024v-973q-137 -72 -311 -71.5t-237.5 83t-63.5 283.5v649q0 23 14 26t100 3v-692q0 -145 40 -198.5t157 -53.5q111 0 188 47v868q0 20 15.5 24.5t97.5 4.5zM485 1194q-6 0 -140 101.5t-148 115.5q4 27 19 57.5t34 30.5q6 0 134 -108.5t144 -130.5q-23 -66 -43 -66z " />
<glyph unicode="&#xfa;" horiz-adv-x="851" d="M731 1024v-973q-137 -72 -311 -71.5t-237.5 83t-63.5 283.5v649q0 23 14 26t100 3v-692q0 -145 40 -198.5t157 -53.5q111 0 188 47v868q0 20 15.5 24.5t97.5 4.5zM393 1184q-10 0 -21.5 16.5t-17.5 32.5l-6 16q51 53 119 112.5t112 94.5t48 35q18 0 33.5 -32t19.5 -58 q-12 -16 -110.5 -91t-176.5 -126z" />
<glyph unicode="&#xfb;" horiz-adv-x="851" d="M731 1024v-973q-137 -72 -311 -71.5t-237.5 83t-63.5 283.5v649q0 23 14 26t100 3v-692q0 -145 40 -198.5t157 -53.5q111 0 188 47v868q0 20 15.5 24.5t97.5 4.5zM180 1227l228 233q12 4 26 4q25 0 41 -18q199 -201 199 -219q0 -12 -26.5 -26.5t-57.5 -14.5 q-143 150 -158 176q-150 -174 -174 -174q-49 0 -78 39z" />
<glyph unicode="&#xfc;" horiz-adv-x="851" d="M731 1024v-973q-137 -72 -311 -71.5t-237.5 83t-63.5 283.5v649q0 23 14 26t100 3v-692q0 -145 40 -198.5t157 -53.5q111 0 188 47v868q0 20 15.5 24.5t97.5 4.5zM209 1329q0 35 21.5 59.5t58.5 24.5q39 0 60.5 -23.5t21.5 -60.5t-22.5 -60.5t-59.5 -23.5q-80 0 -80 84z M498 1329q0 35 21.5 59.5t58.5 24.5q39 0 60 -23.5t21 -60.5t-22.5 -60.5t-58.5 -23.5q-80 0 -80 84z" />
<glyph unicode="&#xfd;" horiz-adv-x="757" d="M334 -33l-266 1022q-6 27 8 31t100 4l154 -602q10 -43 59 -318q18 141 55 320l138 565q4 27 19 31t101 4l-270 -1087q-45 -182 -110.5 -257t-169.5 -75q-150 0 -150 61q0 37 21 66q57 -29 124 -29q130 0 187 264zM354 1184q-10 0 -21 16.5t-18 32.5l-6 16 q51 53 119 112.5t112 94.5t48 35q18 0 33.5 -32t19.5 -58q-12 -16 -110.5 -91t-176.5 -126z" />
<glyph unicode="&#xfe;" horiz-adv-x="819" d="M229 1505v-489q80 27 183 26q168 0 253 -97t85 -343q0 -156 -25 -273.5t-61.5 -181t-87 -103.5t-90.5 -51t-83 -11q-115 0 -174 63v-446q-25 -8 -65 -9q-29 0 -38 8.5t-9 36.5v1815q0 39 19 47t93 8zM229 889v-731q47 -78 144 -78q31 0 59.5 10t65.5 43t64.5 85t46 148.5 t18.5 223.5q0 205 -53.5 278.5t-163.5 73.5q-105 0 -181 -53z" />
<glyph unicode="&#xff;" horiz-adv-x="757" d="M334 -33l-266 1022q-6 27 8 31t100 4l154 -602q10 -43 59 -318q18 141 55 320l138 565q4 27 19 31t101 4l-270 -1087q-45 -182 -110.5 -257t-169.5 -75q-150 0 -150 61q0 37 21 66q57 -29 124 -29q130 0 187 264zM170 1329q0 35 21.5 59.5t58.5 24.5q39 0 60.5 -23.5 t21.5 -60.5t-22.5 -60.5t-59.5 -23.5q-80 0 -80 84zM459 1329q0 35 21.5 59.5t58.5 24.5q39 0 60.5 -23.5t21.5 -60.5t-23 -60.5t-59 -23.5q-80 0 -80 84z" />
<glyph unicode="&#x152;" horiz-adv-x="1284" d="M823 104h404q0 -74 -3 -89t-24 -15h-475v133q-84 -152 -279 -151q-203 0 -287.5 160.5t-84.5 582.5q0 389 94 559t295 170q180 0 262 -133v84q0 29 27 29h477q0 -72 -3 -88.5t-20 -16.5h-383v-493h359q0 -70 -3 -87.5t-22 -17.5h-334v-627zM199 692q0 -326 56 -464 t194 -138q139 0 194 144.5t55 496.5q0 344 -50 479.5t-183 135.5q-139 0 -202.5 -151t-63.5 -503z" />
<glyph unicode="&#x153;" horiz-adv-x="1316" d="M76 510q0 535 340 534q203 0 270 -170q49 104 124 137t177 33q258 0 258 -317q0 -156 -20 -252q-182 -37 -490 -37q0 -115 16.5 -187.5t50.5 -106t69.5 -44t95.5 -10.5q156 0 254 70q14 -37 14 -105q0 -12 -37 -29.5t-104.5 -31.5t-137.5 -14q-109 0 -179 32.5 t-109 126.5q-84 -160 -262 -159q-86 0 -141.5 18t-101.5 72.5t-66.5 162t-20.5 277.5zM197 502q0 -172 25.5 -267.5t66.5 -126t110 -30.5q215 0 215 438q0 252 -48 339t-152 87q-106 0 -161.5 -98t-55.5 -342zM977 942q-47 0 -81 -12t-72 -51t-61.5 -126t-27.5 -221 q276 0 391 29q8 66 9 144q-2 129 -36 183t-122 54z" />
<glyph unicode="&#x178;" horiz-adv-x="739" d="M317 0v582l-305 833q-5 14 12 16q16 2 115 3l99 -293q39 -106 86 -262t53 -193q16 109 139 457l90 270q4 14 20.5 17.5t102.5 3.5l-299 -848v-559q0 -20 -13.5 -23.5t-99.5 -3.5zM156 1739q0 35 21.5 59.5t58.5 24.5q39 0 60 -23.5t21 -60.5t-22.5 -60.5t-58.5 -23.5 q-80 0 -80 84zM444 1739q0 35 21.5 59.5t58.5 24.5q39 0 60.5 -23.5t21.5 -60.5t-22.5 -60.5t-59.5 -23.5q-80 0 -80 84z" />
<glyph unicode="&#x2c6;" horiz-adv-x="493" d="M0 1227l227 233q12 4 27 4q25 0 41 -18q199 -201 199 -219q0 -12 -27 -26.5t-57 -14.5q-143 150 -158 176q-150 -174 -174 -174q-49 0 -78 39z" />
<glyph unicode="&#x2dc;" horiz-adv-x="583" d="M0 1278q82 139 209 139q47 0 95 -52t91 -52q47 0 77 23.5t44 46t23 22.5q12 0 23 -16.5t17 -32.5l5 -17q-12 -27 -34 -53t-69 -54t-100 -28q-66 0 -114 54.5t-79 54.5q-35 0 -61.5 -23.5t-42.5 -46t-25 -22.5q-30 0 -59 57z" />
<glyph unicode="&#x2000;" horiz-adv-x="978" />
<glyph unicode="&#x2001;" horiz-adv-x="1956" />
<glyph unicode="&#x2002;" horiz-adv-x="978" />
<glyph unicode="&#x2003;" horiz-adv-x="1956" />
<glyph unicode="&#x2004;" horiz-adv-x="652" />
<glyph unicode="&#x2005;" horiz-adv-x="489" />
<glyph unicode="&#x2006;" horiz-adv-x="326" />
<glyph unicode="&#x2007;" horiz-adv-x="326" />
<glyph unicode="&#x2008;" horiz-adv-x="244" />
<glyph unicode="&#x2009;" horiz-adv-x="391" />
<glyph unicode="&#x200a;" horiz-adv-x="108" />
<glyph unicode="&#x2010;" horiz-adv-x="593" d="M477 526h-389v50q0 14 3 29.5t8 19.5t16 4h391q0 -63 -4.5 -83t-24.5 -20z" />
<glyph unicode="&#x2011;" horiz-adv-x="593" d="M477 526h-389v50q0 14 3 29.5t8 19.5t16 4h391q0 -63 -4.5 -83t-24.5 -20z" />
<glyph unicode="&#x2013;" horiz-adv-x="892" d="M776 526h-688v50q0 14 3 29.5t8 19.5t16 4h690q0 -63 -4.5 -83t-24.5 -20z" />
<glyph unicode="&#x2014;" horiz-adv-x="1433" d="M1393 526h-1381v50q0 14 3 29.5t8.5 19.5t15.5 4h1382q0 -63 -4 -83t-24 -20z" />
<glyph unicode="&#x2018;" horiz-adv-x="325" d="M242 1270q0 -37 -22.5 -60.5t-57.5 -23.5q-86 0 -86 98q0 92 49 214t76 122q41 0 47 -37q-43 -86 -47 -231q41 -25 41 -82z" />
<glyph unicode="&#x2019;" horiz-adv-x="325" d="M84 1526q0 37 22.5 60.5t59.5 23.5q84 0 84 -99q0 -92 -49 -213.5t-76 -121.5q-39 0 -47 36q43 88 47 232q-41 25 -41 82z" />
<glyph unicode="&#x201a;" horiz-adv-x="321" d="M84 121q0 37 22.5 60.5t59.5 23.5q84 0 84 -99q0 -90 -49 -212.5t-76 -122.5q-39 0 -47 36q43 90 47 232q-41 25 -41 82z" />
<glyph unicode="&#x201c;" horiz-adv-x="610" d="M242 1270q0 -37 -22.5 -60.5t-57.5 -23.5q-86 0 -86 98q0 92 49 214t76 122q41 0 47 -37q-43 -86 -47 -231q41 -25 41 -82zM524 1270q0 -37 -21.5 -60.5t-58.5 -23.5q-84 0 -84 98q0 92 48.5 214t76.5 122q39 0 47 -37q-43 -86 -47 -231q39 -25 39 -82z" />
<glyph unicode="&#x201d;" horiz-adv-x="610" d="M84 1526q0 37 22.5 60.5t59.5 23.5q84 0 84 -99q0 -92 -49 -213.5t-76 -121.5q-39 0 -47 36q43 88 47 232q-41 25 -41 82zM369 1526q0 35 22.5 59.5t57.5 24.5q84 0 83 -99q0 -92 -48 -213.5t-74 -121.5q-41 0 -50 36q45 86 50 232q-41 25 -41 82z" />
<glyph unicode="&#x201e;" horiz-adv-x="606" d="M84 121q0 37 22.5 60.5t59.5 23.5q84 0 84 -99q0 -90 -49 -212.5t-76 -122.5q-39 0 -47 36q43 90 47 232q-41 25 -41 82zM369 121q0 37 22.5 60.5t57.5 23.5q84 0 83 -99q0 -90 -48 -212.5t-74 -122.5q-41 0 -50 36q45 88 50 232q-41 25 -41 82z" />
<glyph unicode="&#x2022;" horiz-adv-x="438" d="M104 578q0 55 34 94t89 39q61 0 95 -37t34 -96q0 -57 -34.5 -95.5t-94.5 -38.5q-123 1 -123 134z" />
<glyph unicode="&#x2026;" horiz-adv-x="999" d="M733 82q0 39 23.5 65.5t62.5 26.5q90 0 90 -92q0 -39 -24.5 -65.5t-65.5 -26.5q-86 0 -86 92zM412 82q0 39 23.5 65.5t62.5 26.5q90 0 90 -92q0 -39 -24.5 -65.5t-65.5 -26.5q-86 0 -86 92zM90 82q0 39 23.5 65.5t62.5 26.5q90 0 90 -92q0 -39 -24.5 -65.5t-65.5 -26.5 q-86 0 -86 92z" />
<glyph unicode="&#x202f;" horiz-adv-x="391" />
<glyph unicode="&#x2039;" horiz-adv-x="524" d="M57 512q0 53 305 512q18 0 36 -14.5t25 -28.5l7 -14q0 -25 -65.5 -138.5t-132.5 -215.5l-66 -101q272 -395 272 -442q-27 -70 -65 -70q-316 455 -316 512z" />
<glyph unicode="&#x203a;" horiz-adv-x="524" d="M467 512q0 -25 -78 -153t-157 -243l-78 -116q-8 2 -18.5 6t-29 21.5t-18.5 40t67.5 133t136.5 211.5l68 100q-266 399 -266 455q0 40 70 57q303 -459 303 -512z" />
<glyph unicode="&#x205f;" horiz-adv-x="489" />
<glyph unicode="&#x20ac;" d="M621 1241q61 0 108 -16.5t66.5 -33.5t19.5 -30q0 -53 -22 -76q-16 14 -60.5 32t-89.5 18t-82 -10.5t-78 -41t-71.5 -98t-46.5 -168.5h333q0 -55 -9 -74.5t-38 -19.5h-299q-6 -76 -6 -170v-29h277q0 -55 -9.5 -74.5t-38.5 -19.5h-225q8 -111 30.5 -182.5t59.5 -104t72 -43 t86 -10.5q125 0 199 74q18 -37 18 -76q0 -31 -72.5 -69.5t-162.5 -38.5q-74 0 -126.5 15t-102.5 59t-80.5 138.5t-39.5 237.5h-186q0 55 9 74.5t38 19.5h135v29q0 94 6 170h-188q0 55 9 74.5t38 19.5h152q20 131 60 220t94.5 131t107 57.5t115.5 15.5z" />
<glyph unicode="&#x2122;" horiz-adv-x="1085" d="M553 784v629q0 20 20 21h43l103 -285l49 -125q35 102 41 123l98 266q6 20 21 21h49v-629q0 -14 -9.5 -17.5t-60.5 -3.5l2 234q0 35 6 237l-23 -65l-22 -62q-8 -24 -10 -28l-67 -176q-4 -10 -11 -11h-43l-71 187l-56 151q8 -205 9 -235l2 -211q0 -14 -9.5 -17.5 t-60.5 -3.5zM485 1368h-155v-565q0 -14 -9.5 -16.5t-60.5 -2.5v584h-190v45q1 19 20 21h414v-45q-1 -20 -19 -21z" />
</font>
</defs>
</svg>
